<svg id="Layer" xmlns="http://www.w3.org/2000/svg" xmlns:xlink="http://www.w3.org/1999/xlink" viewBox="0 0 525.3041 542.0164"><defs><style>.cls-1,.cls-3,.cls-67,.cls-68,.cls-73,.cls-74{fill:none;}.cls-1{stroke:#250048;}.cls-1,.cls-3,.cls-67,.cls-68,.cls-69,.cls-70,.cls-71,.cls-73,.cls-74{stroke-miterlimit:10;}.cls-2{fill:url(#linear-gradient);}.cls-3{stroke:#9d1f60;}.cls-4{fill:url(#linear-gradient-2);}.cls-5{fill:url(#linear-gradient-3);}.cls-6{fill:url(#linear-gradient-4);}.cls-7{fill:url(#linear-gradient-5);}.cls-8{fill:url(#linear-gradient-6);}.cls-9{fill:url(#linear-gradient-7);}.cls-10{fill:url(#linear-gradient-8);}.cls-11{fill:url(#linear-gradient-9);}.cls-12{fill:url(#linear-gradient-10);}.cls-13{fill:url(#linear-gradient-11);}.cls-14{fill:url(#linear-gradient-12);}.cls-15{fill:url(#linear-gradient-13);}.cls-16{fill:url(#linear-gradient-14);}.cls-17{fill:url(#linear-gradient-15);}.cls-18{fill:url(#linear-gradient-16);}.cls-19{fill:url(#linear-gradient-17);}.cls-20{fill:url(#linear-gradient-18);}.cls-21{fill:url(#linear-gradient-19);}.cls-22{fill:url(#linear-gradient-20);}.cls-23{fill:url(#linear-gradient-21);}.cls-24{fill:url(#linear-gradient-22);}.cls-25{fill:url(#linear-gradient-23);}.cls-26{fill:url(#linear-gradient-24);}.cls-27{fill:url(#linear-gradient-25);}.cls-28{fill:url(#linear-gradient-26);}.cls-29{fill:url(#linear-gradient-27);}.cls-30{fill:url(#linear-gradient-28);}.cls-31{fill:url(#linear-gradient-29);}.cls-32{fill:url(#linear-gradient-30);}.cls-33{fill:url(#linear-gradient-31);}.cls-34{fill:url(#linear-gradient-32);}.cls-35{fill:url(#linear-gradient-33);}.cls-36{fill:url(#linear-gradient-34);}.cls-37{fill:url(#linear-gradient-35);}.cls-38{fill:url(#linear-gradient-36);}.cls-39{fill:url(#linear-gradient-37);}.cls-40{fill:url(#linear-gradient-38);}.cls-41{fill:url(#linear-gradient-39);}.cls-42{fill:url(#linear-gradient-40);}.cls-43{fill:url(#linear-gradient-41);}.cls-44{fill:url(#linear-gradient-42);}.cls-45{fill:url(#linear-gradient-43);}.cls-46{fill:url(#linear-gradient-44);}.cls-47{fill:url(#linear-gradient-45);}.cls-48{fill:url(#linear-gradient-46);}.cls-49{fill:url(#linear-gradient-47);}.cls-50{fill:url(#linear-gradient-48);}.cls-51{fill:url(#linear-gradient-49);}.cls-52{fill:url(#linear-gradient-50);}.cls-53{fill:url(#linear-gradient-51);}.cls-54{fill:url(#linear-gradient-52);}.cls-55{fill:url(#linear-gradient-53);}.cls-56{fill:url(#linear-gradient-54);}.cls-57{fill:url(#linear-gradient-55);}.cls-58{fill:url(#linear-gradient-56);}.cls-59{fill:url(#linear-gradient-57);}.cls-60{fill:url(#linear-gradient-58);}.cls-61{fill:url(#linear-gradient-59);}.cls-62{fill:url(#linear-gradient-60);}.cls-63{fill:url(#linear-gradient-61);}.cls-64{fill:url(#linear-gradient-62);}.cls-65{fill:url(#linear-gradient-63);}.cls-66{fill:url(#linear-gradient-64);}.cls-67,.cls-68,.cls-69,.cls-70,.cls-71,.cls-73,.cls-74{stroke:#fff;}.cls-67{stroke-width:2px;}.cls-68{stroke-width:1.75px;}.cls-69,.cls-70,.cls-73{stroke-width:1.5px;}.cls-70,.cls-71,.cls-72{fill:#fff;}.cls-71{stroke-width:0.75px;}.cls-74{stroke-width:0.6776px;}</style><linearGradient id="linear-gradient" x1="261.1853" y1="479.1132" x2="737.7157" y2="479.1132" gradientTransform="translate(66.8956 -61.1613) rotate(7.5091)" gradientUnits="userSpaceOnUse"><stop offset="0" stop-color="#250048"/><stop offset="1" stop-color="#9d1f60"/></linearGradient><linearGradient id="linear-gradient-2" x1="-3126.7967" y1="219.44" x2="-3045.8745" y2="219.44" gradientTransform="matrix(1, 0, 0, -1, 3408.1838, 763.0309)" gradientUnits="userSpaceOnUse"><stop offset="0" stop-color="#9d1f60"/><stop offset="1" stop-color="#250048"/></linearGradient><linearGradient id="linear-gradient-3" x1="-3061.4403" y1="97.7885" x2="-3037.1152" y2="97.7885" gradientTransform="matrix(1, 0, 0, -1, 3416.8493, 760.0459)" xlink:href="#linear-gradient-2"/><linearGradient id="linear-gradient-4" x1="-2964.8417" y1="118.9819" x2="-2877.846" y2="118.9819" gradientTransform="matrix(1, 0, 0, -1, 3414.9907, 750.8866)" xlink:href="#linear-gradient-2"/><linearGradient id="linear-gradient-5" x1="-3037.5881" y1="148.2304" x2="-2988.181" y2="148.2304" gradientTransform="matrix(1, 0, 0, -1, 3413.1218, 757.5557)" xlink:href="#linear-gradient-2"/><linearGradient id="linear-gradient-6" x1="-2868.8465" y1="103.2327" x2="-2820.8489" y2="103.2327" gradientTransform="matrix(1, 0, 0, -1, 3415.9263, 745.3361)" xlink:href="#linear-gradient-2"/><linearGradient id="linear-gradient-7" x1="-3061.5869" y1="166.9795" x2="-3042.0878" y2="166.9795" gradientTransform="matrix(1, 0, 0, -1, 3411.8726, 760.4099)" xlink:href="#linear-gradient-2"/><linearGradient id="linear-gradient-8" x1="-3031.9814" y1="84.6619" x2="-2977.3413" y2="84.6619" gradientTransform="matrix(1, 0, 0, -1, 3417.6789, 756.7983)" xlink:href="#linear-gradient-2"/><linearGradient id="linear-gradient-9" x1="-2976.3069" y1="204.4324" x2="-2913.31" y2="204.4324" gradientTransform="matrix(1, 0, 0, -1, 3408.8971, 752.7985)" xlink:href="#linear-gradient-2"/><linearGradient id="linear-gradient-10" x1="-2784.3506" y1="129.8562" x2="-2725.1036" y2="129.8562" gradientTransform="matrix(1, 0, 0, -1, 3413.7747, 738.9144)" xlink:href="#linear-gradient-2"/><linearGradient id="linear-gradient-11" x1="-3023.3388" y1="249.123" x2="-2965.6369" y2="249.123" gradientTransform="matrix(1, 0, 0, -1, 3405.8073, 756.4927)" xlink:href="#linear-gradient-2"/><linearGradient id="linear-gradient-12" x1="-3089.0792" y1="128.8192" x2="-3047.0813" y2="128.8192" gradientTransform="matrix(1, 0, 0, -1, 3414.6632, 761.4807)" xlink:href="#linear-gradient-2"/><linearGradient id="linear-gradient-13" x1="-3040.5879" y1="200.3189" x2="-3006.0896" y2="200.3189" gradientTransform="matrix(1, 0, 0, -1, 3409.3973, 758.4439)" xlink:href="#linear-gradient-2"/><linearGradient id="linear-gradient-14" x1="-2985.2414" y1="153.0715" x2="-2961.5742" y2="153.0715" gradientTransform="matrix(1, 0, 0, -1, 3412.6706, 754.725)" xlink:href="#linear-gradient-2"/><linearGradient id="linear-gradient-15" x1="-2894.3017" y1="59.7567" x2="-2855.3472" y2="59.7567" gradientTransform="matrix(1, 0, 0, -1, 3419.1355, 747.3823)" xlink:href="#linear-gradient-2"/><linearGradient id="linear-gradient-16" x1="-2876.846" y1="157.1049" x2="-2833.098" y2="157.1049" gradientTransform="matrix(1, 0, 0, -1, 3412.0725, 746.2052)" xlink:href="#linear-gradient-2"/><linearGradient id="linear-gradient-17" x1="-2906.3445" y1="182.9782" x2="-2874.846" y2="182.9782" gradientTransform="matrix(1, 0, 0, -1, 3410.3015, 748.8382)" xlink:href="#linear-gradient-2"/><linearGradient id="linear-gradient-18" x1="-2976.3409" y1="59.1199" x2="-2944.9329" y2="59.1199" gradientTransform="matrix(1, 0, 0, -1, 3419.4042, 753.5612)" xlink:href="#linear-gradient-2"/><linearGradient id="linear-gradient-19" x1="-3110.8077" y1="160.3157" x2="-3080.8998" y2="160.3157" gradientTransform="matrix(1, 0, 0, -1, 3412.4668, 763.5629)" xlink:href="#linear-gradient-2"/><linearGradient id="linear-gradient-20" x1="-2797.6001" y1="88.9834" x2="-2766.1016" y2="88.9834" gradientTransform="matrix(1, 0, 0, -1, 3416.789, 740.7618)" xlink:href="#linear-gradient-2"/><linearGradient id="linear-gradient-21" x1="-2828.3485" y1="146.3555" x2="-2796.8501" y2="146.3555" gradientTransform="matrix(1, 0, 0, -1, 3412.7367, 743.1255)" xlink:href="#linear-gradient-2"/><linearGradient id="linear-gradient-22" x1="-2727.8794" y1="158.9933" x2="-2697.8809" y2="158.9933" gradientTransform="matrix(1, 0, 0, -1, 3411.5675, 735.9761)" xlink:href="#linear-gradient-2"/><linearGradient id="linear-gradient-23" x1="-2704.6256" y1="181.1967" x2="-2688.3763" y2="181.1967" gradientTransform="matrix(1, 0, 0, -1, 3409.9257, 734.8541)" xlink:href="#linear-gradient-2"/><linearGradient id="linear-gradient-24" x1="-2812.5993" y1="110.4026" x2="-2796.8501" y2="110.4026" gradientTransform="matrix(1, 0, 0, -1, 3415.3057, 742.4649)" xlink:href="#linear-gradient-2"/><linearGradient id="linear-gradient-25" x1="-2694.8809" y1="195.8485" x2="-2682.8299" y2="195.8485" gradientTransform="matrix(1, 0, 0, -1, 3408.8506, 734.3415)" xlink:href="#linear-gradient-2"/><linearGradient id="linear-gradient-26" x1="-3061.5869" y1="270.5987" x2="-3029.3385" y2="270.5987" gradientTransform="matrix(1, 0, 0, -1, 3404.3929, 760.2199)" xlink:href="#linear-gradient-2"/><linearGradient id="linear-gradient-27" x1="-2994.4878" y1="193.2112" x2="-2980.2724" y2="193.2112" gradientTransform="matrix(1, 0, 0, -1, 3409.8159, 755.8356)" xlink:href="#linear-gradient-2"/><linearGradient id="linear-gradient-28" x1="-2934.9564" y1="52.264" x2="-2907.5714" y2="52.264" gradientTransform="matrix(1, 0, 0, -1, 3419.7957, 750.7076)" xlink:href="#linear-gradient-2"/><linearGradient id="linear-gradient-29" x1="-2988.0004" y1="120.4002" x2="-2971.043" y2="120.4002" gradientTransform="matrix(1, 0, 0, -1, 3415.0396, 755.0805)" xlink:href="#linear-gradient-2"/><linearGradient id="linear-gradient-30" x1="-2975.0432" y1="94.7191" x2="-2961.0889" y2="94.7191" gradientTransform="matrix(1, 0, 0, -1, 3416.8595, 754.1887)" xlink:href="#linear-gradient-2"/><linearGradient id="linear-gradient-31" x1="-2849.5753" y1="57.3318" x2="-2835.621" y2="57.3318" gradientTransform="matrix(1, 0, 0, -1, 3419.2264, 745.0549)" xlink:href="#linear-gradient-2"/><linearGradient id="linear-gradient-32" x1="-2828.3485" y1="67.6383" x2="-2797.6001" y2="67.6383" gradientTransform="matrix(1, 0, 0, -1, 3418.4072, 742.948)" xlink:href="#linear-gradient-2"/><linearGradient id="linear-gradient-33" x1="-3045.4627" y1="237.7967" x2="-3031.9814" y2="237.7967" gradientTransform="matrix(1, 0, 0, -1, 3406.738, 759.6492)" xlink:href="#linear-gradient-2"/><linearGradient id="linear-gradient-34" x1="-7250.8251" y1="759.6882" x2="-7331.5209" y2="765.7886" gradientTransform="matrix(-1, 0, 0, 1, -6612.2301, -347.6668)" xlink:href="#linear-gradient-2"/><linearGradient id="linear-gradient-35" x1="-7238.7994" y1="643.4867" x2="-7263.0564" y2="645.3205" gradientTransform="matrix(-1, 0, 0, 1, -6619.1986, -345.063)" xlink:href="#linear-gradient-2"/><linearGradient id="linear-gradient-36" x1="-7082.8051" y1="659.0012" x2="-7169.5573" y2="665.5595" gradientTransform="matrix(-1, 0, 0, 1, -6617.9141, -337.6735)" xlink:href="#linear-gradient-2"/><linearGradient id="linear-gradient-37" x1="-7193.0875" y1="689.6666" x2="-7242.3563" y2="693.3912" gradientTransform="matrix(-1, 0, 0, 1, -6616.3363, -343.171)" xlink:href="#linear-gradient-2"/><linearGradient id="linear-gradient-38" x1="-7025.7534" y1="644.7219" x2="-7073.6167" y2="648.3403" gradientTransform="matrix(-1, 0, 0, 1, -6618.7156, -333.0948)" xlink:href="#linear-gradient-2"/><linearGradient id="linear-gradient-39" x1="-7246.9525" y1="709.543" x2="-7266.3969" y2="711.0129" gradientTransform="matrix(-1, 0, 0, 1, -6615.2899, -345.5216)" xlink:href="#linear-gradient-2"/><linearGradient id="linear-gradient-40" x1="-7182.2551" y1="625.9007" x2="-7236.7423" y2="630.0198" gradientTransform="matrix(-1, 0, 0, 1, -6620.1034, -342.5693)" xlink:href="#linear-gradient-2"/><linearGradient id="linear-gradient-41" x1="-7118.2356" y1="745.3563" x2="-7181.0561" y2="750.1054" gradientTransform="matrix(-1, 0, 0, 1, -6612.8722, -339.2207)" xlink:href="#linear-gradient-2"/><linearGradient id="linear-gradient-42" x1="-6930.0238" y1="670.9214" x2="-6989.1051" y2="675.3878" gradientTransform="matrix(-1, 0, 0, 1, -6616.9721, -327.7807)" xlink:href="#linear-gradient-2"/><linearGradient id="linear-gradient-43" x1="-7170.555" y1="790.2465" x2="-7228.0954" y2="794.5964" gradientTransform="matrix(-1, 0, 0, 1, -6610.3016, -342.2553)" xlink:href="#linear-gradient-2"/><linearGradient id="linear-gradient-44" x1="-7254.087" y1="673.4586" x2="-7295.9673" y2="676.6247" gradientTransform="matrix(-1, 0, 0, 1, -6617.4186, -346.5509)" xlink:href="#linear-gradient-2"/><linearGradient id="linear-gradient-45" x1="-7210.9753" y1="742.317" x2="-7245.377" y2="744.9177" gradientTransform="matrix(-1, 0, 0, 1, -6613.256, -343.8852)" xlink:href="#linear-gradient-2"/><linearGradient id="linear-gradient-46" x1="-7167.4554" y1="700.1967" x2="-7186.152" y2="701.6101" gradientTransform="matrix(-1, 0, 0, 1, -6615.7061, -340.7534)" xlink:href="#linear-gradient-2"/><linearGradient id="linear-gradient-47" x1="-7060.239" y1="601.5868" x2="-7099.0845" y2="604.5234" gradientTransform="matrix(-1, 0, 0, 1, -6621.3551, -334.8011)" xlink:href="#linear-gradient-2"/><linearGradient id="linear-gradient-48" x1="-7037.9966" y1="698.7543" x2="-7081.6222" y2="702.0523" gradientTransform="matrix(-1, 0, 0, 1, -6615.5286, -333.7925)" xlink:href="#linear-gradient-2"/><linearGradient id="linear-gradient-49" x1="-7079.7275" y1="725.0893" x2="-7111.1378" y2="727.4639" gradientTransform="matrix(-1, 0, 0, 1, -6614.0525, -335.9576)" xlink:href="#linear-gradient-2"/><linearGradient id="linear-gradient-50" x1="-7149.8142" y1="601.2345" x2="-7181.1343" y2="603.6022" gradientTransform="matrix(-1, 0, 0, 1, -6621.5449, -339.905)" xlink:href="#linear-gradient-2"/><linearGradient id="linear-gradient-51" x1="-7284.7797" y1="702.5238" x2="-7314.6039" y2="704.7784" gradientTransform="matrix(-1, 0, 0, 1, -6615.7603, -348.0689)" xlink:href="#linear-gradient-2"/><linearGradient id="linear-gradient-52" x1="-6970.9831" y1="631.0946" x2="-7002.3934" y2="633.4691" gradientTransform="matrix(-1, 0, 0, 1, -6619.4517, -329.3219)" xlink:href="#linear-gradient-2"/><linearGradient id="linear-gradient-53" x1="-7001.7315" y1="688.4667" x2="-7033.1418" y2="690.8412" gradientTransform="matrix(-1, 0, 0, 1, -6616.0931, -331.2528)" xlink:href="#linear-gradient-2"/><linearGradient id="linear-gradient-54" x1="-6902.7603" y1="701.1609" x2="-6932.6748" y2="703.4224" gradientTransform="matrix(-1, 0, 0, 1, -6615.1646, -325.3428)" xlink:href="#linear-gradient-2"/><linearGradient id="linear-gradient-55" x1="-6893.2364" y1="723.8827" x2="-6909.4403" y2="725.1076" gradientTransform="matrix(-1, 0, 0, 1, -6613.8147, -324.4078)" xlink:href="#linear-gradient-2"/><linearGradient id="linear-gradient-56" x1="-7001.7095" y1="653.1073" x2="-7017.4146" y2="654.2946" gradientTransform="matrix(-1, 0, 0, 1, -6618.218, -330.7206)" xlink:href="#linear-gradient-2"/><linearGradient id="linear-gradient-57" x1="-6887.6841" y1="738.6926" x2="-6899.7014" y2="739.6011" gradientTransform="matrix(-1, 0, 0, 1, -6612.9296, -323.9789)" xlink:href="#linear-gradient-2"/><linearGradient id="linear-gradient-58" x1="-7234.221" y1="812.6816" x2="-7266.3791" y2="815.1126" gradientTransform="matrix(-1, 0, 0, 1, -6609.1143, -345.3258)" xlink:href="#linear-gradient-2"/><linearGradient id="linear-gradient-59" x1="-7185.1297" y1="735.9738" x2="-7199.3053" y2="737.0455" gradientTransform="matrix(-1, 0, 0, 1, -6613.6152, -341.7335)" xlink:href="#linear-gradient-2"/><linearGradient id="linear-gradient-60" x1="-7112.4471" y1="594.5302" x2="-7139.7554" y2="596.5947" gradientTransform="matrix(-1, 0, 0, 1, -6621.883, -337.5506)" xlink:href="#linear-gradient-2"/><linearGradient id="linear-gradient-61" x1="-7179.0835" y1="668.0268" x2="-7192.9988" y2="669.0787" gradientTransform="matrix(-1, 0, 0, 1, -6617.647, -341.2457)" xlink:href="#linear-gradient-2"/><linearGradient id="linear-gradient-62" x1="-7002.4805" y1="609.7777" x2="-7033.1429" y2="612.0957" gradientTransform="matrix(-1, 0, 0, 1, -6620.7766, -331.1356)" xlink:href="#linear-gradient-2"/><linearGradient id="linear-gradient-63" x1="-7236.8377" y1="780.587" x2="-7250.2812" y2="781.6033" gradientTransform="matrix(-1, 0, 0, 1, -6611.0537, -344.8668)" xlink:href="#linear-gradient-2"/><linearGradient id="linear-gradient-64" x1="-7233.0466" y1="666.0305" x2="-7246.9619" y2="667.0825" gradientTransform="matrix(-1, 0, 0, 1, -6617.8613, -344.4524)" xlink:href="#linear-gradient-2"/></defs><title>CSE-Fest-2020-Logo-Final</title><ellipse class="cls-1" cx="499.5033" cy="479.513" rx="244.1317" ry="252.1961" transform="translate(-295.7288 -139.5321) rotate(-7.5091)"/><ellipse class="cls-2" cx="499.4505" cy="479.1132" rx="238.1003" ry="245.9655" transform="translate(-295.677 -139.5424) rotate(-7.5091)"/><ellipse class="cls-1" cx="500" cy="479.9296" rx="261.9706" ry="270.6243" transform="translate(-295.779 -139.4636) rotate(-7.5091)"/><ellipse class="cls-3" cx="499.6972" cy="480.4497" rx="253.0553" ry="261.4145" transform="translate(-295.8496 -139.4987) rotate(-7.5091)"/><circle class="cls-4" cx="321.8481" cy="543.5909" r="40.4611" transform="translate(-275.6637 -184.3288) rotate(-4.1303)"/><circle class="cls-5" cx="367.5716" cy="662.2574" r="12.1625" transform="translate(-284.0918 -180.7274) rotate(-4.1303)"/><circle class="cls-6" cx="493.6468" cy="631.9047" r="43.4978" transform="translate(-281.5782 -171.7258) rotate(-4.1303)"/><circle class="cls-7" cx="400.2373" cy="609.3252" r="24.7035" transform="matrix(0.9974, -0.072, 0.072, 0.9974, -280.1946, -178.5122)"/><circle class="cls-8" cx="571.0786" cy="642.1034" r="23.9988" transform="matrix(0.9974, -0.072, 0.072, 0.9974, -282.1117, -166.1224)"/><circle class="cls-9" cx="360.0352" cy="593.4304" r="9.7495" transform="matrix(0.9974, -0.072, 0.072, 0.9974, -279.1542, -181.449)"/><circle class="cls-10" cx="413.0175" cy="672.1365" r="27.3201" transform="translate(-284.6853 -177.4286) rotate(-4.1303)"/><circle class="cls-11" cx="464.0886" cy="548.3661" r="31.4984" transform="translate(-275.6382 -174.0717) rotate(-4.1303)"/><circle class="cls-12" cx="659.0476" cy="609.0582" r="29.6235" transform="matrix(0.9974, -0.072, 0.072, 0.9974, -279.5032, -159.8723)"/><circle class="cls-13" cx="411.3195" cy="507.3697" r="28.8509" transform="matrix(0.9974, -0.072, 0.072, 0.9974, -272.8225, -177.9788)"/><circle class="cls-14" cx="346.583" cy="632.6615" r="20.999" transform="translate(-282.0147 -182.316) rotate(-4.1303)"/><circle class="cls-15" cx="386.0586" cy="558.125" r="17.2491" transform="translate(-276.5437 -179.6663) rotate(-4.1303)"/><circle class="cls-16" cx="439.2628" cy="601.6535" r="11.8336" transform="translate(-279.5407 -175.7213) rotate(-4.1303)"/><circle class="cls-17" cx="544.3111" cy="687.6256" r="19.4772" transform="translate(-285.4599 -167.932) rotate(-4.1303)"/><circle class="cls-18" cx="557.1005" cy="589.1003" r="21.874" transform="translate(-278.3305 -167.2668) rotate(-4.1303)"/><circle class="cls-19" cx="519.7063" cy="565.86" r="15.7492" transform="translate(-276.7537 -170.0204) rotate(-4.1303)"/><circle class="cls-20" cx="458.7673" cy="694.4413" r="15.704" transform="translate(-286.1729 -174.0755) rotate(-4.1303)"/><circle class="cls-21" cx="316.6131" cy="603.2471" r="14.9539" transform="translate(-279.974 -184.5509) rotate(-4.1303)"/><circle class="cls-22" cx="634.9381" cy="651.7784" r="15.7492" transform="matrix(0.9974, -0.072, 0.072, 0.9974, -282.6427, -161.4978)"/><circle class="cls-23" cx="600.1374" cy="596.7699" r="15.7492" transform="translate(-278.7711 -164.1472) rotate(-4.1303)"/><circle class="cls-24" cx="698.6873" cy="576.9828" r="14.9993" transform="translate(-277.09 -157.1006) rotate(-4.1303)"/><circle class="cls-25" cx="713.4248" cy="553.6573" r="8.1246" transform="translate(-275.3718 -156.0997) rotate(-4.1303)"/><circle class="cls-26" cx="610.581" cy="632.0624" r="7.8746" transform="translate(-281.2859 -163.3033) rotate(-4.1303)"/><circle class="cls-27" cx="719.9952" cy="538.493" r="6.0255" transform="translate(-274.2625 -155.6659) rotate(-4.1303)"/><circle class="cls-28" cx="358.9303" cy="489.6212" r="16.1242" transform="translate(-271.6803 -181.7981) rotate(-4.1303)"/><circle class="cls-29" cx="422.4357" cy="562.6243" r="7.1077" transform="translate(-276.7733 -177.0346) rotate(-4.1303)"/><circle class="cls-30" cx="498.5318" cy="698.4435" r="13.6925" transform="translate(-286.3579 -171.2011) rotate(-4.1303)"/><circle class="cls-31" cx="435.5179" cy="634.6802" r="8.4787" transform="translate(-281.9291 -175.9053) rotate(-4.1303)"/><circle class="cls-32" cx="448.7935" cy="659.4696" r="6.9772" transform="translate(-283.6801 -174.8847) rotate(-4.1303)"/><circle class="cls-33" cx="576.6283" cy="687.7231" r="6.9772" transform="translate(-285.383 -165.6042) rotate(-4.1303)"/><circle class="cls-34" cx="605.4329" cy="675.3098" r="15.3742" transform="translate(-284.4141 -163.5618) rotate(-4.1303)"/><circle class="cls-35" cx="368.0159" cy="521.8525" r="6.7406" transform="translate(-273.9781 -181.0601) rotate(-4.1303)"/><circle class="cls-36" cx="678.9429" cy="415.0717" r="40.4611" transform="translate(-260.8381 -167.7959) rotate(-3.4105)"/><circle class="cls-37" cx="631.7294" cy="299.3406" r="12.1625" transform="translate(-254.0369 -170.8096) rotate(-3.4105)"/><circle class="cls-38" cx="508.2671" cy="324.6068" r="43.4978" transform="translate(-255.7586 -178.1096) rotate(-3.4105)"/><circle class="cls-39" cx="601.3856" cy="348.3578" r="24.7035" transform="matrix(0.9982, -0.0595, 0.0595, 0.9982, -257.0066, -172.5279)"/><circle class="cls-40" cx="430.9695" cy="313.4363" r="23.9988" transform="translate(-255.231 -182.7278) rotate(-3.4105)"/><circle class="cls-41" cx="641.3848" cy="364.7564" r="9.7495" transform="translate(-257.9114 -170.1193) rotate(-3.4105)"/><circle class="cls-42" cx="589.3953" cy="285.391" r="27.3201" transform="translate(-253.282 -173.3528) rotate(-3.4105)"/><circle class="cls-43" cx="536.7736" cy="408.5101" r="31.4984" transform="translate(-260.6995 -176.2652) rotate(-3.4105)"/><circle class="cls-44" cx="342.5924" cy="345.3739" r="29.6235" transform="translate(-257.2875 -187.9288) rotate(-3.4105)"/><circle class="cls-45" cx="589.0236" cy="450.1661" r="28.8509" transform="translate(-263.0851 -173.083) rotate(-3.4105)"/><circle class="cls-46" cx="657.6086" cy="328.4907" r="20.999" transform="translate(-255.7252 -169.2184) rotate(-3.4105)"/><circle class="cls-47" cx="614.9201" cy="399.7321" r="17.2491" transform="translate(-260.0389 -171.6318) rotate(-3.4105)"/><circle class="cls-48" cx="561.0976" cy="360.15" r="9.3745" transform="translate(-257.7795 -174.9038) rotate(-3.4105)"/><circle class="cls-49" cx="458.3067" cy="268.2539" r="19.4772" transform="translate(-252.4947 -181.1816) rotate(-3.4105)"/><circle class="cls-50" cx="444.2808" cy="366.6108" r="21.874" transform="translate(-258.3708 -181.8418) rotate(-3.4105)"/><circle class="cls-51" cx="481.3801" cy="390.319" r="15.7492" transform="translate(-259.7155 -179.5927) rotate(-3.4105)"/><circle class="cls-52" cx="543.9293" cy="262.5133" r="15.704" transform="translate(-252.0015 -176.098) rotate(-3.4105)"/><circle class="cls-53" cx="683.9315" cy="355.5822" r="14.9539" transform="translate(-257.2902 -167.6045) rotate(-3.4105)"/><circle class="cls-54" cx="367.2365" cy="302.9599" r="15.7492" transform="translate(-254.7206 -186.5379) rotate(-3.4105)"/><circle class="cls-55" cx="401.3436" cy="358.4012" r="15.7492" transform="translate(-257.9584 -184.4106) rotate(-3.4105)"/><circle class="cls-56" cx="302.5529" cy="376.9488" r="14.9993" transform="translate(-259.2368 -190.2549) rotate(-3.4105)"/><circle class="cls-57" cx="287.5236" cy="400.0874" r="8.1246" transform="translate(-260.6399 -191.108) rotate(-3.4105)"/><circle class="cls-58" cx="391.3441" cy="322.9804" r="7.8746" transform="translate(-255.8689 -185.0683) rotate(-3.4105)"/><circle class="cls-59" cx="280.7632" cy="415.168" r="6.0255" transform="translate(-261.549 -191.4834) rotate(-3.4105)"/><circle class="cls-60" cx="641.1858" cy="468.5713" r="16.1242" transform="translate(-264.0877 -169.9473) rotate(-3.4105)"/><circle class="cls-61" cx="578.6023" cy="394.7762" r="7.1077" transform="translate(-259.8084 -173.8011) rotate(-3.4105)"/><circle class="cls-62" cx="504.2182" cy="258.0119" r="13.6925" transform="translate(-251.8041 -178.4684) rotate(-3.4105)"/><circle class="cls-63" cx="568.3942" cy="327.3071" r="6.9772" transform="translate(-255.8128 -174.5279) rotate(-3.4105)"/><circle class="cls-64" cx="397.035" cy="279.801" r="15.3742" transform="translate(-253.2901 -184.8062) rotate(-3.4105)"/><circle class="cls-65" cx="632.5057" cy="436.2284" r="6.7406" transform="translate(-262.179 -170.521) rotate(-3.4105)"/><circle class="cls-66" cx="622.1429" cy="322.1041" r="6.9772" transform="translate(-255.408 -171.3396) rotate(-3.4105)"/><path id="dance" class="cls-67" d="M498.8445,644.0985a1.8319,1.8319,0,0,0-.0318.1984c-.0287.5374-.0691,1.0747-.0777,1.6124-.0079.4995.0236,1,.0272,1.4994a.8926.8926,0,0,1-.0646.3625,5.0324,5.0324,0,0,1-1.6,2.1253c-.4105.2957-.7978.625-1.218.9057-.8055.5382-1.6089,1.0838-2.4473,1.5673a17.7378,17.7378,0,0,0-2.2162,1.28,3.8117,3.8117,0,0,1-1.7858.76,1.522,1.522,0,0,0-.941.5043c-.2526.2913-.4711.6119-.7174.9091-.37.4463-.7909.9174-1.4213.7a3.6865,3.6865,0,0,0-1.05-.16,1.4706,1.4706,0,0,0-1.2141.276.5666.5666,0,0,1-.2281.13.9517.9517,0,0,0-.5627.4967,4.06,4.06,0,0,1-.3025.466c-.1739.2191-.3649.4247-.55.6344a3.9721,3.9721,0,0,0-.542.6239,8.6459,8.6459,0,0,0-.3623.9339,1.1632,1.1632,0,0,1-.5434.7168,1.2381,1.2381,0,0,1-1.8234-.78,5.8374,5.8374,0,0,1-.1432-2.039c.1329-1.1107.3146-2.2157.4837-3.3219.1162-.76.2107-1.5259.3817-2.2739a5.62,5.62,0,0,1,.536-1.4436c.3877-.7047.3039-.6308.9666-.3095.1711.0829.4676.1407.5835.0511a1.0209,1.0209,0,0,1,.5923-.2245,3.1186,3.1186,0,0,1,2.1065.19,1.6674,1.6674,0,0,1,.0035-.2368c.0283-.1663.0165-.4264.11-.4748a.751.751,0,0,1,.5618,0,2.7925,2.7925,0,0,1,.7351.4513.3519.3519,0,0,0,.5045.0074c.32-.2151.6711-.3858.9839-.61a2.8938,2.8938,0,0,0,.78-.6929,1.9951,1.9951,0,0,1,.9687-.8495c.1625-.0636.3835-.1666.43-.302a1.31,1.31,0,0,1,.6864-.6885c.0605-.0362.1423-.0953.15-.1525a1.6366,1.6366,0,0,1,.8424-1.0982.811.811,0,0,1,.865-.1195,3.993,3.993,0,0,0,.7613.1723l-.0728-.845a.5236.5236,0,0,1-.58-.2467,14.6669,14.6669,0,0,1-1.0209-2.4089c-.3446-.8771-.2011-1.8465-.55-2.7186a.4216.4216,0,0,1-.0137-.1044c-.0332-.2765-.0656-.5532-.1-.83-.0271-.2188-.0594-.437-.0843-.656a4.5563,4.5563,0,0,0-.11-.933,5.5516,5.5516,0,0,1-.2253-2.0309c.02-.52.0477-1.0387.0708-1.5581.043-.9684.0784-1.9371.1306-2.905a2.09,2.09,0,0,0-.202-1.431.2232.2232,0,0,1-.0317-.1245.9841.9841,0,0,0-.7237-.963c-.1551-.0632-.3167-.1112-.47-.1792a.4077.4077,0,0,1-.265-.5951,2.4079,2.4079,0,0,1,.1075-.297c.38-.7922.7677-1.5809,1.145-2.3744q1.4688-3.0894,2.931-6.1819c.41-.865.8526-1.7166,1.2165-2.6006a2.0179,2.0179,0,0,0,.0941-1.6447c-.1423-.3136-.3091-.616-.4581-.9267a1.4518,1.4518,0,0,0-.5007-.5918,7.7981,7.7981,0,0,1-.9342-.7723.8988.8988,0,0,1-.364-.79c.1073-.6442.2191-1.2892.37-1.9243.1147-.483.0812-.5776-.3472-.8421a14.7983,14.7983,0,0,0-1.9827-1.0245,8.84,8.84,0,0,1-1.6243-1.0429c-.5923-.4274-1.1369-.9223-1.7381-1.3357-1.012-.6959-2.055-1.3466-3.0783-2.0264a.4647.4647,0,0,0-.543-.0584c-.31.1589-.4526.0614-.4819-.221a1.72,1.72,0,0,1-.4222-.1058c-.033-.0172.0173-.1945.0338-.337a.5656.5656,0,0,0-.2319-.0329.4966.4966,0,0,1-.5078-.1337,1.3539,1.3539,0,0,0-.262-.1424c-.1078-.0609-.2673-.1022-.3083-.1947-.0826-.1864-.188-.156-.3394-.1336a2.9422,2.9422,0,0,1-.622.0277c-.34-.0226-.6782-.0939-1.0181-.1027-.2953-.0077-.5287-.1055-.5192-.329.0088-.2068-.1084-.253-.246-.3189-.2754-.1319-.3037-.3646-.0539-.5435a2.1539,2.1539,0,0,1,.342-.1224c.0955-.0448.251-.1153.2514-.1753a.4555.4555,0,0,0-.16-.3068,4.3563,4.3563,0,0,0-.4708-.2912,2.9418,2.9418,0,0,0-.4745-.3139c-.863-.3322-1.7332-.6461-2.602-.9632-.17-.0621-.3053-.1638-.2075-.3455a.3808.3808,0,0,1,.3214-.1121q.9564.1411,1.9069.3213c.8658.1627,1.7283.3427,2.5935.5087a4.0176,4.0176,0,0,1,2.0668.9974.5624.5624,0,0,0,.4717.1465c.3211-.0179.7117-.0685.8189.4107.0147.0659.1462.1111.2294.1551.1429.0756.29.1427.4689.2293.27-.1081.44-.0221.549.31a.3016.3016,0,0,0,.1273.17c.48.2259.9671.435,1.4466.661.9932.4681,1.971.9713,2.9776,1.4081a12.8106,12.8106,0,0,1,2.982,1.7426,6.0434,6.0434,0,0,0,2.1261,1.3673,16.3626,16.3626,0,0,1,2.3434,1.0615,10.2616,10.2616,0,0,0,1.3274.5857,4.6566,4.6566,0,0,1,2.2609,1.3379,3.88,3.88,0,0,0,1.5868,1.1984,3.3755,3.3755,0,0,1,1.343.8115c.202.2072.4086.41.6094.6111a1.7271,1.7271,0,0,0,1.0926-1.9173.9628.9628,0,0,1,.2018-.596c.2876-.4011.6131-.7757.9336-1.1522a.9175.9175,0,0,1,.3056-.2322,5.05,5.05,0,0,0,.5079-.1768,1.3655,1.3655,0,0,1,.9154-.2642,3.648,3.648,0,0,0,.5547.0181,3.04,3.04,0,0,1,1.5946.4594,8.4178,8.4178,0,0,1,1.6623,1.4552,1.6667,1.6667,0,0,1,.3862.5495c.0865.2218.0518.49.133.715a2.1118,2.1118,0,0,1,.078,1.4179c-.2077.631-.414,1.2633-.6509,1.8835a.4833.4833,0,0,0-.003.4708c.1892.3078.3943.6068.5661.9239.0977.18.18.2874.4021.1858a.6837.6837,0,0,1,.3107-.0249c.2834.017.3612-.0791.2744-.363-.07-.2273-.152-.4509-.2168-.68a3.66,3.66,0,0,1-.1515-.6669c-.0079-.09.1093-.1908.17-.2866.0689.0569.1607.1006.2029.1731.1859.32.3465.6551.54.97a1.939,1.939,0,0,0,.3277.3279l.0965-.0519c-.0243-.3744-.0414-.7494-.0756-1.1229a.3828.3828,0,0,1,.3-.4507c.0381.1091.0778.2044.1047.3032a10.0708,10.0708,0,0,0,.3918,1.3935,1.915,1.915,0,0,1,.2885.8946c-.0046.0764.0675.1574.1043.2363.0677-.0725.17-.1343.1966-.22.0835-.2682.1458-.5437.2027-.8192.0606-.2933.1835-.3945.4554-.3309-.0258.375-.0441.7538-.08,1.131-.04.4189-.0943.8364-.1442,1.2544a1.97,1.97,0,0,1-.0417.2351c-.0877.3577-.19.7123-.26,1.0733a1.0381,1.0381,0,0,0,.0673.3679,1.3132,1.3132,0,0,1,.0575.2778c-.0055.3-.0225.6-.0428.8994-.0063.0926-.006.22-.0627.2685a1.9478,1.9478,0,0,1-.551.3709.503.503,0,0,0-.3332.4048c-.2271,1.005-.4413,2.0128-.6677,3.0179a9.3167,9.3167,0,0,1-.2754,1.0411c-.2144.6109-.4805,1.204-.6859,1.8176a7.1823,7.1823,0,0,1-1.4352,2.7652.6148.6148,0,0,1-.6792.2126,3.2069,3.2069,0,0,1-1.945-1.5324,14.0769,14.0769,0,0,0-2.408-3.2406.3246.3246,0,0,0-.4529-.0691c-.398.1876-.7965.3748-1.1994.5514a10.8735,10.8735,0,0,0-1.3115.566,9.6518,9.6518,0,0,0-2.1942,1.585.35.35,0,0,0-.1081.2437c.093.4747.2068.9454.3158,1.4259l-.29-.05c.1587.1608.26.2782.3764.3781a.7019.7019,0,0,1,.3023.74.344.344,0,0,0,.0317.2263c.1363.2476.2818.4905.4334.7292a.84.84,0,0,1,.176.6678c-.0128.0549.0413.1349.0817.191a2.3537,2.3537,0,0,1,.3455.4628c.3478.9145.66,1.8427,1.0065,2.7575.2472.6518.5261,1.2918.7986,1.9339.1827.4305.3927.85.5649,1.2843a1.5967,1.5967,0,0,1,.058,1.2076.5737.5737,0,0,0,.0425.5812,1.7052,1.7052,0,0,1,.2224.5617q.37,1.3775.7208,2.76a13.0494,13.0494,0,0,1,.2855,1.2791,4.661,4.661,0,0,1-.0167.8178c-.0136.4413.0043.8864-.048,1.3231-.07.5871-.1871,1.1691-.2985,1.7506-.1078.5629-.21,1.1285-.3577,1.6816-.2054.7706-.4326,1.5366-.6857,2.2927a3.8124,3.8124,0,0,1-.5187,1.1008,13.8444,13.8444,0,0,1-1.0626,1.066c-.374.3929-.6565.881-1.2,1.0909-.0537.0207-.1219.1622-.1026.1885a2.2321,2.2321,0,0,1,.2116.721,2.83,2.83,0,0,0,.3842.597,2.7512,2.7512,0,0,1,.1513.2626,4.7278,4.7278,0,0,0,.3755.736c.2968.3924.6574.7364.9557,1.1278a2.6538,2.6538,0,0,1,.5571,1.4375c.04.5913-.2548.92-.7567.9052a5.8388,5.8388,0,0,1-1.6049-.25,17.3773,17.3773,0,0,1-2.0307-.8531,8.4383,8.4383,0,0,1-3.082-2.6215c-.0884-.1153-.2058-.2689-.1914-.3908.04-.3382.1655-.6656.2147-1.0034.09-.6177.1491-1.24.2247-1.8919-.179.1589-.2619.0617-.3647-.0818-.1467-.2048-.3339-.38-.49-.5786a.5219.5219,0,0,1-.1444-.301,3.8406,3.8406,0,0,1,.1391-.6811.2271.2271,0,0,1,.1387-.1367c.4056-.0983.5306-.42.6468-.7634.0634-.1872.1153-.4532.2545-.5256a1.9333,1.9333,0,0,1,1.2809-.2051c.4233.0872.79-.1645.7148-.5981a1.7934,1.7934,0,0,1,.51-1.5906.8005.8005,0,0,0,.1494-.35,7.4874,7.4874,0,0,1,.1485-.76,1.156,1.156,0,0,0-.0283-.9614.7144.7144,0,0,1,.1893-.8943,1.0911,1.0911,0,0,0,.12-.1772,1.0158,1.0158,0,0,0-.3-.03c-.3147.0768-.4055-.1135-.5007-.3564-.1931-.4924-.4109-.9753-.6231-1.46-.1064-.243-.223-.4816-.3349-.7222Zm9.9772-24.59c.3036.5464.6191,1.0875.8888,1.65a.87.87,0,0,1-.0089.5715.4715.4715,0,0,0,.0959.43c.1934.3149.3925.6271.5688.9514a4,4,0,0,1,.2349.5846c.0709.2008.17.2415.2869.065a7.1342,7.1342,0,0,0,.5778-1.025c.2845-.6379.5366-1.29.795-1.94a1.3477,1.3477,0,0,0-.3572-1.6353,2.4936,2.4936,0,0,1-.8747-1.8828.2134.2134,0,0,0-.2062-.2465,3.9384,3.9384,0,0,1-1.3737-.5915.3419.3419,0,0,0-.5589.2582.2967.2967,0,0,1-.0318.1276,7.865,7.865,0,0,1-.5971.6985,1.4917,1.4917,0,0,1-.4441.1963C508.1433,618.3017,508.4854,618.9037,508.8217,619.5089Z" transform="translate(-237.3479 -208.9214)"/><g id="football"><path class="cls-68" d="M650.1237,601.9943c.0879.3266.1854.651.2618.98a12.6988,12.6988,0,0,1,.5713,2.6951,20.5845,20.5845,0,0,0,.5005,3.6077c.1808.9943.5538,1.9539.7312,2.9485a16.8777,16.8777,0,0,0,1.1647,3.365c.5027,1.2394.8848,2.53,1.2765,3.8109.1062.3472.2662.4381.5675.3492.2861-.0844.3828.0479.5437.2731a7.2984,7.2984,0,0,0,1.2411,1.4352c.7072.5791,1.323.3951,1.754-.4042.0413-.0766.0828-.1531.1391-.2574a1.4756,1.4756,0,0,1,.9026.8226c.2505.5229.4407,1.0748.6919,1.5973a3.4138,3.4138,0,0,0,.587.9361.8383.8383,0,0,0,1.4719-.43,2.8193,2.8193,0,0,0-.4405-2.3845c-.2172-.3025-.48-.5752-.672-.8921a6.4465,6.4465,0,0,1-.4364-.9627c-.0767-.1927-.1025-.4052-.174-.6a1.0851,1.0851,0,0,0-1.5859-.7275,2.0027,2.0027,0,0,1-.2966.0518c.0494-.1279.0562-.2318.11-.272.41-.3046.3785-.68.25-1.1172a19.3742,19.3742,0,0,1-.5743-2.5176,6.912,6.912,0,0,1,.512.6267c.3958.6131.7487,1.2547,1.1592,1.8574.5957.8747.9545.9577,1.9222.527.49-.2181.5455-.1966.6455.33a4.0066,4.0066,0,0,0,1.0482,1.8858,35.4911,35.4911,0,0,1,2.7675,3.3855,5.3621,5.3621,0,0,1,.525,2.1117,7.6424,7.6424,0,0,1-.0293,1.2917c-.0056.3492.2073.5654.5267.527a9.29,9.29,0,0,0,1.6463-.3376.5812.5812,0,0,0,.3559-.838c-.0622-.1673-.1436-.3284-.194-.4989-.0939-.3178-.1572-.645-.26-.96a3.0092,3.0092,0,0,0-.4021-1.0147,4.9336,4.9336,0,0,1-.8232-1.8475c-.4184-1.3325-.889-2.6521-1.4136-3.9464a4.7015,4.7015,0,0,0-1.5207-2.0123.6078.6078,0,0,1-.2217-.7426.8685.8685,0,0,0-.0963-.652c-.6185-.966-1.2635-1.9155-1.9149-2.86-.5331-.773-1.09-1.53-1.6307-2.2972a3.2493,3.2493,0,0,1-.2086-.3885,8.8805,8.8805,0,0,0-.7044-1.33,8.44,8.44,0,0,0-1.3463-1.4265,1.7766,1.7766,0,0,1-.5871-1.9267,5.46,5.46,0,0,0,.1881-1.6207,9.0773,9.0773,0,0,1,.1864-1.7048,7.4814,7.4814,0,0,1,2.6314,1.3937l.4657-.3681a6.5429,6.5429,0,0,1,.986,1.0354,3.99,3.99,0,0,0,1.9354,1.585c.2192.094.436.1937.6571.283a.943.943,0,0,1,.7034,1.007,1.2785,1.2785,0,0,0,.997,1.1169c.1382.0123.2952-.1885.5341-.3545.4444-.0105.6028.1422.6949.7335a1.86,1.86,0,0,0,.2044.4545,1.7011,1.7011,0,0,0,.4055-.292,1.3069,1.3069,0,0,0-.454-1.9981.6132.6132,0,0,0-.12-.0593,3.9971,3.9971,0,0,1-2.1353-1.859,7.9009,7.9009,0,0,0-2.6519-2.6133,6.6162,6.6162,0,0,1-.57-.4288l.1761-.4047c-1.2066-1.141-2.3731-2.3146-3.6179-3.3984a5.3981,5.3981,0,0,0-3.4511-1.1721c-.2221-.009-.4446-.0094-.72-.0149a2.9693,2.9693,0,0,1,.2787-1.705c.2109-.3231.0925-.8785.0723-1.327-.0092-.2042-.1855-.3981-.2076-.6051-.0932-.8724-.783-1.407-1.161-2.1161-.4946-.0514-.9171-.4284-1.4807-.2272a1.8337,1.8337,0,0,0-1.0744.9865,8.311,8.311,0,0,0-.5069,2.4533,1.91,1.91,0,0,0,.8039,1.944.6436.6436,0,0,1-.2219,1.0769c-.787.352-1.5563.7437-2.3377,1.1085a3.1252,3.1252,0,0,0-1.57,1.7023c-.4943,1.1808-.9412,2.3816-1.3988,3.5775-.0375.0979-.0487.29.0035.3245.3788.2523.2292.5772.1381.8819a4.892,4.892,0,0,0,.2411,3.3921c.499,1.208.8731,2.4678,1.2914,3.7085a2.1729,2.1729,0,0,1,.0506.477q.11,1.1277.221,2.2552a.3612.3612,0,0,0,.0509.1225,1.7809,1.7809,0,0,0,2.3345.4072c-.434-.479-1.4645-.7213-.73-1.7307l.6217,1.1231a3.0131,3.0131,0,0,0-.9314-2.92,1.1216,1.1216,0,0,1-.542-.8691c-.0528-.533-.0957-1.0689-.1041-1.6041a7.665,7.665,0,0,0-.5735-3.2755.5924.5924,0,0,1,.3609-.8094.9807.9807,0,0,0,.3992-.4267c.1693-.3372.2892-.6991.43-1.0508Z" transform="translate(-237.3479 -208.9214)"/><path class="cls-68" d="M651.5634,626.61a2.5883,2.5883,0,1,0,2.2354-2.8579A2.5857,2.5857,0,0,0,651.5634,626.61Z" transform="translate(-237.3479 -208.9214)"/></g><g id="security"><path class="cls-69" d="M326.808,562.6795c1.201,0,2.3289.0144,3.4553-.018.1428-.0041.3144-.2311.4112-.3918a1.7123,1.7123,0,0,1,1.8345-.81,1.6855,1.6855,0,0,1,1.2812,1.5875,1.6515,1.6515,0,0,1-1.1649,1.62,1.6044,1.6044,0,0,1-1.9446-.8042.5966.5966,0,0,0-.6524-.3715c-1.13.0128-2.2609-.0055-3.3911.0092-.47.0061-.6591-.1891-.6533-.6555.0141-1.13.0042-2.2608.004-3.3912,0-.1959,0-.3918,0-.5539l-3.8817.5743c0,1.0038-.0141,2.03.0181,3.0551.004.1266.24.2712.3942.3635a1.6648,1.6648,0,1,1-2.3883,1.9891,1.6234,1.6234,0,0,1,.8336-2.0186.49.49,0,0,0,.324-.5268c-.0147-.9619-.0058-1.9241-.0058-2.8567l-3.9913-.5951c0,.1527,0,.3412,0,.53q0,3.1169-.0012,6.2338c-.0012.7476-.0242.769-.7505.77-1.4955.0025-2.9911.0008-4.4762.0008-.5988,1.0784-1.253,1.4393-2.1408,1.1939a1.656,1.656,0,0,1,.1117-3.2126c.8581-.1851,1.5078.2,2.0045,1.2025h4.416c.01-.1393.0283-.2813.0284-.4232.0021-2.0613-.006-4.1227.01-6.1838a.5374.5374,0,0,0-.4172-.6038,15.9559,15.9559,0,0,1-9.1527-8.668.5711.5711,0,0,0-.6166-.4248c-1.0258.0249-2.0525.0089-3.1391.0089,0,1.2128-.007,2.371.0124,3.5287.0017.0989.1626.224.2771.2874a1.6619,1.6619,0,1,1-2.3042,1.9382,1.6229,1.6229,0,0,1,.8907-1.9113.5.5,0,0,0,.307-.54q-.0109-1.72,0-3.4411c.0028-.567.1061-.6716.67-.6746,1.1114-.0058,2.2228-.0017,3.329-.0017l-.8014-3.8854c-.7177,0-1.4783-.0191-2.2361.0185-.128.0064-.2682.2423-.3609.3973a1.6647,1.6647,0,1,1-2.0328-2.374,1.6257,1.6257,0,0,1,2.0646.8182.4843.4843,0,0,0,.5274.3217c.6766-.0161,1.3538-.0054,2.05-.0054.0354-.7151.0467-1.3767.1068-2.0339.0584-.64.1666-1.2748.26-1.96h-3.0694c-.9309,0-1.8622-.016-2.7926.0065-.47.0114-.6527-.1567-.6464-.6376.02-1.5287.0074-3.0578.0074-4.5773-1.1148-.6819-1.4525-1.31-1.188-2.1891a1.6945,1.6945,0,0,1,1.6763-1.1653,1.6727,1.6727,0,0,1,1.5355,1.34c.1633.8567-.2228,1.4988-1.2248,1.9763v4.4144h5.9276c.196-.548.37-1.1164.599-1.6618a15.9491,15.9491,0,0,1,9.2952-9.0477c.3728-.1442.5211-.3049.4977-.7059-.0347-.5951-.009-1.1937-.009-1.8174a2.3964,2.3964,0,0,0-.3544-.0572c-.9974-.0042-1.9952-.0163-2.9919.011a.67.67,0,0,0-.4709.2983,1.7025,1.7025,0,0,1-1.9213.8974,1.6673,1.6673,0,0,1,.0012-3.2259,1.7025,1.7025,0,0,1,1.9229.9.6707.6707,0,0,0,.4772.2868c1.03.0259,2.061.0126,3.0917.0127,1.0644,0,1.0646,0,1.0654,1.0872,0,.61,0,1.2209,0,1.7963l3.8817-.5866a11.7352,11.7352,0,0,0-.0182-1.3086c-.0153-.1377-.2284-.281-.3809-.3711a1.67,1.67,0,0,1,.7535-3.1293,1.6655,1.6655,0,0,1,1.6125,1.11,1.617,1.617,0,0,1-.7669,2.0022.5734.5734,0,0,0-.3835.6425c.0263.36.006.7241.006,1.0511l3.9715.5957c.0055-.1255.0193-.2976.02-.47.0017-1.5626-.0008-3.1252.0021-4.6879.0011-.5913.0658-.653.6672-.6538,1.5286-.0019,3.0573-.0006,4.574-.0006.53-1.0462,1.1628-1.4155,2.0459-1.21a1.654,1.654,0,0,1,.0482,3.2105c-.8954.2242-1.5575-.1489-2.0921-1.1859h-4.4062v5.3266c.1184.0486.2656.1108.414.17a15.9624,15.9624,0,0,1,9.7292,10.331c.1169.3592.2659.4959.6532.48.8088-.0332,1.62-.01,2.4885-.01,0-1.2143.007-2.3727-.0125-3.5306-.0017-.0987-.163-.2236-.2775-.2868a1.6614,1.6614,0,1,1,2.304-1.9369,1.6227,1.6227,0,0,1-.8907,1.9109.5.5,0,0,0-.3065.5409q.011,1.72.0017,3.4411c-.003.5663-.1075.67-.6715.675-.7979.0069-1.5959.0013-2.3938.001h-.4588l.3585,3.8833c.7121,0,1.4566.0194,2.1983-.0184.1287-.0066.2712-.24.3628-.3944a1.6657,1.6657,0,1,1,.397,2.0988,1.0473,1.0473,0,0,1-.3492-.4121c-.137-.4178-.4142-.4762-.8022-.4575-.6275.03-1.2575.0081-1.8361.0081l-.8219,3.9912h.6673c1.8785,0,3.757.009,5.6354-.006.4691-.0037.6514.1623.6452.6419-.02,1.5287-.0074,3.0578-.0074,4.6144a1.7891,1.7891,0,0,1,1.2125,1.2658,1.6583,1.6583,0,0,1-3.1371,1.0407,1.6133,1.6133,0,0,1,.7262-2.0953.6563.6563,0,0,0,.4086-.7221c-.02-1.2924-.0078-2.5853-.0078-3.9292-.4686,0-.8957,0-1.3229,0-1.5958-.0008-3.1918.008-4.7874-.0112a.5367.5367,0,0,0-.59.3738,15.9728,15.9728,0,0,1-9.1989,8.6864c-.29.1112-.4235.231-.4186.5585C326.8188,560.1807,326.808,561.3922,326.808,562.6795Zm-5.1528-4.0857a15.2877,15.2877,0,1,0-15.2633-15.0963A15.2552,15.2552,0,0,0,321.6552,558.5938Zm-9.6075-33.35a.84.84,0,0,0-1.68.0137.84.84,0,1,0,1.68-.0137Zm29.3759,8.4567a.8355.8355,0,0,0-.8666-.83.84.84,0,0,0,.0212,1.68A.8326.8326,0,0,0,341.4237,533.7008Zm-38.6759,21.7746a.84.84,0,1,0,0-1.68.84.84,0,0,0,0,1.68Zm30.2246,7.6142a.84.84,0,1,0-1.6787.0121.8394.8394,0,0,0,1.6787-.0121Zm-11.3118-39.9312a.8667.8667,0,0,0-.8711.8378.83.83,0,0,0,.8052.8385.8007.8007,0,0,0,.8805-.7965A.8376.8376,0,0,0,321.6605,523.1585Zm21.0248,20.9825a.8677.8677,0,0,0-.8609-.8484.8345.8345,0,0,0-.82.877.8056.8056,0,0,0,.8224.81A.8388.8388,0,0,0,342.6853,544.1409Zm-40.35.0721a.8038.8038,0,0,0-.835-.8462.839.839,0,0,0-.8451.8513.8653.8653,0,0,0,.8244.8358A.8355.8355,0,0,0,302.335,544.213Zm19.3609,19.2943a.8078.8078,0,0,0-.8321.85.8381.8381,0,0,0,.8165.83.8662.8662,0,0,0,.871-.8383A.835.835,0,0,0,321.6958,563.5073Zm11.26-40.3349a.8453.8453,0,1,0-.8512-.8534A.8482.8482,0,0,0,332.9562,523.1723Zm-32.2869,9.7428a.8491.8491,0,0,0-.8359-.8673.8447.8447,0,0,0-.0447,1.6885A.8523.8523,0,0,0,300.6694,532.9152Zm42.8322,21.6939a.8434.8434,0,1,0,.0551,1.6856.8434.8434,0,0,0-.0551-1.6856Zm-32.2693,11.3973a.8434.8434,0,1,0-1.6857.05.8434.8434,0,0,0,1.6857-.05Z" transform="translate(-237.3479 -208.9214)"/><path class="cls-70" d="M312.0478,525.2441a.84.84,0,1,1-1.68.0137.84.84,0,0,1,1.68-.0137Z" transform="translate(-237.3479 -208.9214)"/><path class="cls-70" d="M341.4237,533.7008a.8326.8326,0,0,1-.8454.85.84.84,0,0,1-.0212-1.68A.8355.8355,0,0,1,341.4237,533.7008Z" transform="translate(-237.3479 -208.9214)"/><path class="cls-70" d="M302.7477,555.4754a.84.84,0,0,1,0-1.68.84.84,0,1,1,0,1.68Z" transform="translate(-237.3479 -208.9214)"/><path class="cls-70" d="M332.9723,563.09a.8394.8394,0,0,1-1.6787.0121.84.84,0,1,1,1.6787-.0121Z" transform="translate(-237.3479 -208.9214)"/><path class="cls-70" d="M321.6605,523.1585a.8376.8376,0,0,1,.8146.88.8007.8007,0,0,1-.8805.7965.83.83,0,0,1-.8052-.8385A.8667.8667,0,0,1,321.6605,523.1585Z" transform="translate(-237.3479 -208.9214)"/><path class="cls-70" d="M342.6853,544.1409a.8388.8388,0,0,1-.858.8387.8056.8056,0,0,1-.8224-.81.8345.8345,0,0,1,.82-.877A.8677.8677,0,0,1,342.6853,544.1409Z" transform="translate(-237.3479 -208.9214)"/><path class="cls-70" d="M302.335,544.213a.8355.8355,0,0,1-.8557.8409.8653.8653,0,0,1-.8244-.8358.839.839,0,0,1,.8451-.8513A.8038.8038,0,0,1,302.335,544.213Z" transform="translate(-237.3479 -208.9214)"/><path class="cls-70" d="M321.6958,563.5073a.835.835,0,0,1,.8554.8421.8662.8662,0,0,1-.871.8383.8381.8381,0,0,1-.8165-.83A.8078.8078,0,0,1,321.6958,563.5073Z" transform="translate(-237.3479 -208.9214)"/><path class="cls-70" d="M332.9562,523.1723a.8453.8453,0,0,1-.0358-1.69.8452.8452,0,1,1,.0358,1.69Z" transform="translate(-237.3479 -208.9214)"/><path class="cls-70" d="M300.6694,532.9152a.844.844,0,1,1-1.6863-.07.8394.8394,0,0,1,.85-.7969A.8491.8491,0,0,1,300.6694,532.9152Z" transform="translate(-237.3479 -208.9214)"/><path class="cls-70" d="M343.5015,554.6091a.8434.8434,0,1,1-.8307.8716A.852.852,0,0,1,343.5015,554.6091Z" transform="translate(-237.3479 -208.9214)"/><path class="cls-70" d="M311.2323,566.0065a.8434.8434,0,0,1-1.6857.05.8434.8434,0,1,1,1.6857-.05Z" transform="translate(-237.3479 -208.9214)"/><path class="cls-69" d="M315.1683,539.7883a6.6355,6.6355,0,0,1,2.293-5.844,6.2672,6.2672,0,0,1,4.31-1.5416,6.3509,6.3509,0,0,1,4.85,2.28,6.7408,6.7408,0,0,1,1.5438,5.1124c.1806.0247.3084.0449.4369.0593a1.65,1.65,0,0,1,1.5956,1.568,37.4113,37.4113,0,0,1-.1854,5.9123,8.3912,8.3912,0,0,1-8.337,6.9012,8.4908,8.4908,0,0,1-8.3658-6.8887,25.5332,25.5332,0,0,1-.1959-3.4731c-.0228-.5807-.0016-1.1631-.0023-1.7447C313.109,540.5591,313.5421,540.0447,315.1683,539.7883Zm6.5418.8558q-3.3135,0-6.6271.001c-.8327.0011-1.1724.3492-1.175,1.1878-.0014.4651-.0149.9307.0025,1.3951a29.7568,29.7568,0,0,0,.1986,4.0185,7.7183,7.7183,0,0,0,15.2456-.7533c.1252-1.5185.0624-3.0527.0776-4.58.0093-.9408-.3159-1.2669-1.2446-1.2674Q324.9489,540.6441,321.71,540.6441Zm5.6007-.825a5.714,5.714,0,1,0-11.2833-.0111h1.5133c0-.2835.0038-.5288-.0007-.774a4.1269,4.1269,0,0,1,8.2433-.3977c.0242.3887.0035.78.0035,1.1828Zm-2.3621-.0063a3.5233,3.5233,0,0,0-1.5478-3.7563,3.3533,3.3533,0,0,0-3.7034.1613,3.4568,3.4568,0,0,0-1.2777,3.595Z" transform="translate(-237.3479 -208.9214)"/><path class="cls-69" d="M321.6,550.25c-.4769-.1211-.9762-.2245-1.4593-.3784a.5405.5405,0,0,1-.3707-.75c.0626-.2059.0984-.42.1653-.6245a1.6906,1.6906,0,0,0-.2917-1.9083,2.3212,2.3212,0,0,1,.5062-3.2761,2.4643,2.4643,0,0,1,3.337.2748,2.4062,2.4062,0,0,1-.0278,3.3339.7694.7694,0,0,0-.2175.9119c.1277.393.1924.8062.313,1.2019a.63.63,0,0,1-.4568.89C322.6259,550.0632,322.135,550.1372,321.6,550.25Zm1.1776-.9662c-.1681-.6861-.2864-1.2528-.45-1.8062a.6686.6686,0,0,1,.3059-.8776,1.53,1.53,0,0,0,.6891-1.55,1.6614,1.6614,0,0,0-1.4752-1.4591,1.7025,1.7025,0,0,0-1.7391,1.0634,1.6191,1.6191,0,0,0,.6277,1.9682.6246.6246,0,0,1,.2939.7931c-.1639.586-.2981,1.18-.4689,1.8684Z" transform="translate(-237.3479 -208.9214)"/></g><g id="programming"><path class="cls-67" d="M531.8274,344.34a6.0055,6.0055,0,0,1,1.5785.3593,5.7541,5.7541,0,0,1-1.5231.6179q-17.222,1.6332-34.45,3.2051c-2.82.2606-5.6382.5416-8.4615.7577a3.3864,3.3864,0,0,1-1.2024-.4061,4.11,4.11,0,0,1,1.1625-.5713c1.3721-.1853,2.7568-.2771,4.0873-.4a18.9122,18.9122,0,0,1-.4893-2.2207c-.4994-5.1471-.9689-10.2971-1.4382-15.4471-.21-2.2993.598-3.2811,2.8889-3.4943q14.2825-1.3293,28.5667-2.6406c2.3673-.2174,3.3021.58,3.5264,2.9848.4612,4.9446.9266,9.8889,1.3621,14.8359.0777.8831.02,1.7781.025,2.7986C528.8873,344.5876,530.3548,344.4069,531.8274,344.34Zm-25.0048-11.7628c1.2287,2.7082,2.4346,5.4273,3.7148,8.1108.1738.3643.7208.5506,1.0951.8192.0489-.4539.2754-.9841.1183-1.3494q-1.7858-4.1536-3.7246-8.24a1.6248,1.6248,0,0,0-.9978-.61c-.1255-.0348-.3774.3867-.5221.5453C506.6595,332.2042,506.7385,332.392,506.8226,332.5774Zm-1.4042,2.416c.1891-.2526.1212-.6976.17-1.055-.3793.0547-.8756-.0235-1.1161.1886-.7614.6713-1.4254,1.4528-2.1306,2.1883-.5139.5359-.4528.9956.1561,1.4111.8076.5512,1.5771,1.1681,2.4266,1.643.2984.1668.7846-.0024,1.1851-.0182-.1522-.3658-.2116-.8319-.4759-1.0767a20.1139,20.1139,0,0,0-1.9118-1.4139A24.518,24.518,0,0,0,505.4184,334.9934Zm7.698,2.6669c-.1939.2561-.1244.7115-.1747,1.0763.3693-.0414.7415-.067,1.106-.1344.1-.0185.1768-.1624.2655-.2475,2.7514-2.64,2.6014-3.5244-.9292-5.1739-.25-.1168-.6394.0652-.9639.1082.0772.3286.0455.7807.2519.9629.64.5644,1.37,1.0261,2.1547,1.5926A22.0417,22.0417,0,0,0,513.1164,337.66Z" transform="translate(-237.3479 -208.9214)"/><path class="cls-67" d="M497.37,310.1622a9.4474,9.4474,0,1,1,10.2614,8.4321A9.5134,9.5134,0,0,1,497.37,310.1622Zm7.3617-3.0277a4.0583,4.0583,0,0,0-4.4372.1752,1.9486,1.9486,0,0,0-.7971,1.2693,7.0292,7.0292,0,0,0,3.4533,6.8648,6.9139,6.9139,0,0,0,7.9792-.2511,7.0535,7.0535,0,0,0,3.0238-7.0721,7.4006,7.4006,0,0,0-.3676-1.19A8.4142,8.4142,0,0,1,504.7316,307.1345Z" transform="translate(-237.3479 -208.9214)"/><path class="cls-67" d="M523.7448,322.9621a5.2221,5.2221,0,0,0-2.3045-3.8529,9.3675,9.3675,0,0,0-7.1165-1.6064,1.6443,1.6443,0,0,0-.7549.3422c-3.7244,2.9723-7.67,3.3035-11.9113,1.1486a4.02,4.02,0,0,0-2.13-.1147,8.2361,8.2361,0,0,0-5.7727,3.1361,4.7825,4.7825,0,0,0-1.1237,3.8227Z" transform="translate(-237.3479 -208.9214)"/></g><path id="puzzle" class="cls-71" d="M696.3514,425.0565q-.3618,3.5457-.7251,7.0913a1.3228,1.3228,0,0,1-1.6133,1.3251c-3.0959-.3138-6.1911-.6346-9.2875-.9433a1.2944,1.2944,0,0,1-1.2-.8365,1.3227,1.3227,0,0,1,.3366-1.4564,2.3575,2.3575,0,0,0,.1922-3.1659,5.8252,5.8252,0,0,0-2.32-1.8509,10.3658,10.3658,0,0,0-4.8307-1.0429,8.826,8.826,0,0,0-3.843.8762c-1.6193.817-2.6016,2.3058-1.4977,4.1332a1.2567,1.2567,0,0,1-1.34,1.857c-2.8927-.286-5.784-.5857-8.6756-.8824a1.32,1.32,0,0,1-1.3278-1.6357q.5483-5.3817,1.098-10.7632c.0159-.156.0249-.3133.0517-.4674a1.2735,1.2735,0,0,1,1.7946-.9964A2.1362,2.1362,0,0,1,663.91,417a3.9421,3.9421,0,0,0,6.7988-.1976,5.6362,5.6362,0,0,0,.1138-6.3765,3.72,3.72,0,0,0-3.6767-1.9,4.2352,4.2352,0,0,0-2.621,1.3245,1.3491,1.3491,0,0,1-1.5554.3378,1.3644,1.3644,0,0,1-.7271-1.4855q.5641-5.5438,1.1323-11.0871a1.6636,1.6636,0,0,1,.0844-.4224,1.3115,1.3115,0,0,1,1.5422-.8377q3.9423.3966,7.8836.8027l.4395.0448c-.0379-.1576-.0555-.2394-.0773-.32a4.7426,4.7426,0,0,1,.31-3.4143,6.6331,6.6331,0,0,1,3.8969-3.3032,10.1824,10.1824,0,0,1,5.9037-.3425,8.7275,8.7275,0,0,1,5.2649,3.1883,5.079,5.079,0,0,1,.7853,5.1781c-.0761.1962-.1751.3835-.2867.6252l.4418.0451q3.87.3948,7.7392.7919a2.7689,2.7689,0,0,1,.6724.1251,1.3414,1.3414,0,0,1,.798,1.5369q-.3583,3.5461-.7226,7.0916l-.042.4118c.0674.0153.0924.0291.1129.0242.0817-.0194.162-.0449.243-.0677a4.7931,4.7931,0,0,1,3.3188.2231,6.5479,6.5479,0,0,1,3.478,4.0073,10.0949,10.0949,0,0,1,.3088,5.9764,8.5129,8.5129,0,0,1-3.6513,5.4811,4.878,4.878,0,0,1-4.0823.6552c-.4456-.1265-.8719-.3211-1.34-.497Zm-31.3138-27.0432-1.0236,10.0329c.2108-.1335.3951-.2553.5841-.3692a5.4208,5.4208,0,0,1,6.9508.9614,7.432,7.432,0,0,1-1.195,10.8762,5.4425,5.4425,0,0,1-7.2184-.831c-.0473-.0516-.1006-.0976-.1887-.1825l-1.0207,10.0044,7.7938.7951a10.1885,10.1885,0,0,1-.2731-1.2256,4.16,4.16,0,0,1,1.8271-3.8631,8.6564,8.6564,0,0,1,4.6674-1.6635,12.5306,12.5306,0,0,1,5.48.7049,7.8465,7.8465,0,0,1,4.0119,2.8839,3.95,3.95,0,0,1,.1429,4.6105,1.59,1.59,0,0,0-.0726.16l8.4718.8643,1.1017-10.7988c.4241.4637.7685.8417,1.1145,1.2182a4.1463,4.1463,0,0,0,1.9155,1.3,3.5789,3.5789,0,0,0,3.4279-.846,7.1491,7.1491,0,0,0,2.2979-3.9658,8.8744,8.8744,0,0,0-.1425-4.8881,5.6421,5.6421,0,0,0-1.7574-2.7267,3.4034,3.4034,0,0,0-4.0419-.2771c-.6216.3883-1.21.83-1.899,1.3066l.0478-.4688q.5031-4.9317,1.0062-9.8635c.0487-.4772.0482-.4775-.4437-.5277l-10.4755-1.0687-.4659-.0475c.4628-.4491.8715-.833,1.2662-1.2308a3.4822,3.4822,0,0,0,.6431-4.5065,4.9187,4.9187,0,0,0-1.5908-1.6564,8.7861,8.7861,0,0,0-8.3162-.8592,4.408,4.408,0,0,0-2.7014,2.5569,3.2486,3.2486,0,0,0,.2389,2.8547c.3558.6265.7778,1.2155,1.22,1.8982Z" transform="translate(-237.3479 -208.9214)"/><g id="acoustic"><path class="cls-72" d="M351.48,327.0065a10.5164,10.5164,0,0,1,1.1942.4275c.64.3154,1.2564.6777,1.8767,1.031a1.3137,1.3137,0,0,1,.5441,1.8854c-.1113.2089-.2474.4047-.3675.5991.6425.5059.7678.7814.5523,1.1567-.2075.3614-.5442.4052-1.2216.1457l-.1737.2941a7.579,7.579,0,0,1,.5474.8182.5472.5472,0,0,1-.0814.4129c-.2029.3643-.526.3932-1.2172.1294a1.5315,1.5315,0,0,1-1.2075.9732c-.0693.01-.1442.1032-.1844.1757q-1.9342,3.4944-3.8605,6.9932a.0919.0919,0,0,0-.01.04c.5553.4445,1.1242.8574,1.6438,1.3253a6.363,6.363,0,0,1,1.955,2.9612,4.4405,4.4405,0,0,1-1.4736,4.7026c-.43.33-.8662.6536-1.3092.9664a2.8586,2.8586,0,0,0-1.2179,2.8,32.2045,32.2045,0,0,1,.1736,3.7875,8.3371,8.3371,0,0,1-1.8778,5.0055,6.0927,6.0927,0,0,1-5.2521,2.2512,13.1862,13.1862,0,0,1-5.4249-1.5011,23.0848,23.0848,0,0,1-4.7835-2.9661,9.9389,9.9389,0,0,1-2.9067-3.7,6.1311,6.1311,0,0,1,.4323-5.64,10.241,10.241,0,0,1,4.6591-4.159c.5177-.2525,1.0223-.5318,1.5329-.7988a2.6735,2.6735,0,0,0,1.4593-2.2947,18.8239,18.8239,0,0,1,.2665-2.2535,4.1978,4.1978,0,0,1,2.6177-2.9987,5.9022,5.9022,0,0,1,4.153-.0669c.6168.1787,1.2144.4239,1.8419.6463q1.0457-1.8992,2.0957-3.806c.58-1.0519,1.1632-2.1019,1.7384-3.1563.0551-.1011.1207-.2529.0835-.3388a1.4743,1.4743,0,0,1,.138-1.4473,6.1963,6.1963,0,0,1-.5422-.78.5892.5892,0,0,1,.08-.447c.1964-.3581.5682-.3913,1.229-.1091l.196-.3932c-.5952-.4719-.7286-.7638-.5346-1.1253.205-.382.5214-.4246,1.1518-.1916l1.0265-1.2229Zm-8.0173,14.8212a8.1438,8.1438,0,0,0-3.0172-.7893,2.7931,2.7931,0,0,0-3.0318,2.74,14.09,14.09,0,0,1-.1568,1.6531,4.1356,4.1356,0,0,1-2.0771,3.1409c-.6171.3542-1.24.7013-1.8788,1.0144a8.5816,8.5816,0,0,0-3.8572,3.4049,4.3147,4.3147,0,0,0-.0706,4.547,9.2889,9.2889,0,0,0,2.3768,2.6692,22.0886,22.0886,0,0,0,3.9352,2.4094,11.692,11.692,0,0,0,4.8521,1.4148,4.3456,4.3456,0,0,0,4.2748-2.2671,7.5173,7.5173,0,0,0,1.0133-4.0639c-.046-1.1623-.1685-2.3217-.2071-3.4841a3.6754,3.6754,0,0,1,1.1109-2.8629,18.5966,18.5966,0,0,1,1.9142-1.5592,2.4873,2.4873,0,0,0,1.0854-2.5687c-.2834-1.6507-1.5067-2.5794-2.782-3.48-.0763.1305-.1353.2266-.19.3252-.8321,1.5081-1.6461,3.0265-2.5059,4.5187a1.8177,1.8177,0,0,0-.2345,1.39,3.0691,3.0691,0,0,1-2.2882,3.5441,3.1518,3.1518,0,0,1-3.8343-2.2336,3.196,3.196,0,0,1,2.2372-3.8737.6774.6774,0,0,0,.3676-.2918c.5989-1.0542,1.1775-2.12,1.7672-3.1793C342.6565,343.2452,343.0551,342.5486,343.4626,341.8277Zm8.6881-12.9822c-.147-.0926-.2735-.2361-.396-.2327a.5525.5525,0,0,0-.4061.221c-.6122,1.0695-1.2031,2.1512-1.7957,3.2318a.3909.3909,0,0,0,.13.5877.4009.4009,0,0,0,.5922-.2061q.88-1.5873,1.7526-3.1785A2.2307,2.2307,0,0,0,352.1507,328.8455Zm-.4931,4.8286a2.4179,2.4179,0,0,0,.29-.3366q.87-1.5531,1.7249-3.1149c.177-.3248.1284-.552-.1239-.6682-.2953-.136-.4654.0342-.5976.2744q-.3924.7131-.7872,1.4249c-.3167.5741-.6471,1.1414-.9385,1.7281a.6216.6216,0,0,0,.0258.4956C351.3057,333.58,351.5051,333.6061,351.6576,333.6741Z" transform="translate(-237.3479 -208.9214)"/><path class="cls-72" d="M334.1185,354.6943a1.8384,1.8384,0,0,1,.3772.1119q3.097,1.7,6.1878,3.4111c.3322.1838.3836.3636.21.699-.1558.3018-.32.6-.4863.8956a.43.43,0,0,1-.6557.19q-3.1219-1.7261-6.2442-3.4516a.4119.4119,0,0,1-.1951-.6225c.1752-.33.3517-.66.5417-.9811A1.4514,1.4514,0,0,1,334.1185,354.6943Z" transform="translate(-237.3479 -208.9214)"/></g><g id="ai"><path class="cls-72" d="M525.6759,428.1524l-1.3761-.6729c.32-.9688.6945-1.8943.93-2.8539a14.9445,14.9445,0,0,0-1.3833-10.5777,30.27,30.27,0,0,1-2.6279-5.9384c-1.8547-7.0935,2.2769-13.3736,7.6673-16.13a21.245,21.245,0,0,1,11.4443-2.1175,14.9427,14.9427,0,0,1,9.2873,3.76,14.5333,14.5333,0,0,1,4.82,8.9655,8.2894,8.2894,0,0,1-.1494,2.969,3.1378,3.1378,0,0,0,.5547,2.6933c.6819.98,1.3534,1.9681,2.0485,2.939,1.0725,1.4979.7921,2.7421-.8354,3.6285-.2031.1106-.4024.228-.6345.36.1129.22.2143.404.3035.5937a1.416,1.416,0,0,1-1.2625,2.0885c-1.29.021-2.58.0049-3.9051.0049v-1.6074h3.42c.0242-.1.051-.1441.04-.1732-.6051-1.5478-.536-1.7366.9285-2.5205,1.1427-.6117,1.1328-.618.431-1.67-.8576-1.2854-1.6937-2.5853-2.5292-3.8853a2.4128,2.4128,0,0,1-.2984-1.93c.9731-3.83-.4137-7.0144-2.7508-9.8889a12.811,12.811,0,0,0-8.4725-4.5648,19.4721,19.4721,0,0,0-10.093,1.0974c-4.5883,1.8235-7.6841,5.06-8.6658,10.0121a11.59,11.59,0,0,0,.9423,6.9914c.51,1.1621,1.1226,2.2809,1.7164,3.4047C527.5786,417.5858,528.1452,423.3653,525.6759,428.1524Z" transform="translate(-237.3479 -208.9214)"/><path class="cls-72" d="M538.9732,422.8114h-1.63c0-.1989,0-.3855,0-.5721q0-11.0491.0075-22.0982a.62.62,0,0,0-.4736-.7181,3.2858,3.2858,0,1,1,4.5593-2.9,3.129,3.129,0,0,1-1.9438,2.8478.7777.7777,0,0,0-.5293.8715q.0194,10.9322.01,21.8644C538.9732,422.3194,538.9732,422.5316,538.9732,422.8114Zm-.8311-24.7853a1.6421,1.6421,0,0,0,1.6686-1.6112,1.6858,1.6858,0,0,0-1.6769-1.6823,1.6454,1.6454,0,0,0-1.6413,1.6985A1.5723,1.5723,0,0,0,538.1421,398.0261Z" transform="translate(-237.3479 -208.9214)"/><path class="cls-72" d="M534.8053,427.7831H533.199c0-1.1545,0-2.3014,0-3.4482-.0006-3.2705.0052-6.541-.0155-9.8114a1.16,1.16,0,0,0-.31-.705c-.6-.6443-1.2492-1.2418-1.8563-1.88a.4854.4854,0,0,0-.6538-.1253,3.2963,3.2963,0,0,1-4.5074-3.844,3.0876,3.0876,0,0,1,2.4786-2.39,3.1523,3.1523,0,0,1,3.1454,1.0019,3.1872,3.1872,0,0,1,.6246,3.392.7352.7352,0,0,0,.2053.9426c.7708.7221,1.51,1.4792,2.2395,2.2434a.9748.9748,0,0,1,.2691.6q.024,6.8748.0135,13.75C534.8321,427.5851,534.8177,427.6612,534.8053,427.7831Zm-4.127-18.9718a1.57,1.57,0,0,0-1.5994-1.6533,1.6272,1.6272,0,0,0-1.7064,1.6264,1.67,1.67,0,0,0,1.6771,1.6762A1.6332,1.6332,0,0,0,530.6783,408.8112Z" transform="translate(-237.3479 -208.9214)"/><path class="cls-72" d="M535.6485,410.4312H534.03a20.2978,20.2978,0,0,1,.0184-2.5,3.4361,3.4361,0,0,0-1.49-3.5408,1.1008,1.1008,0,0,1-.21-.2049,1.2562,1.2562,0,0,0-1.654-.5031,2.914,2.914,0,0,1-3.3276-1.008,3.31,3.31,0,0,1,2.43-5.4537,3.314,3.314,0,0,1,3.0994,4.5928.5422.5422,0,0,0,.1424.7424c.724.6883,1.4144,1.4119,2.1351,2.1038a1.4057,1.4057,0,0,1,.4858,1.1264C535.6288,407.312,535.6485,408.8386,535.6485,410.4312Zm-5.7932-11.5342a1.6165,1.6165,0,0,0-1.6606,1.6107,1.6884,1.6884,0,0,0,1.6723,1.6857,1.652,1.652,0,0,0,1.6485-1.6984A1.5891,1.5891,0,0,0,529.8553,398.897Z" transform="translate(-237.3479 -208.9214)"/><path class="cls-72" d="M542.1958,410.4305h-1.5645c0-.227,0-.4343,0-.6416,0-1.351.0183-2.7025-.011-4.0529a1.2939,1.2939,0,0,1,.4624-1.0631c.728-.6818,1.4151-1.407,2.1277-2.1055a.5793.5793,0,0,0,.1665-.7542,3.2891,3.2891,0,1,1,6.2229-2.065,3.2912,3.2912,0,0,1-4.455,3.8168.5858.5858,0,0,0-.7927.1582c-.5364.5695-1.0847,1.13-1.66,1.66a1.219,1.219,0,0,0-.435,1.0163c.0278,1.2914.0043,2.584-.0014,3.8761A.6459.6459,0,0,1,542.1958,410.4305Zm5.8559-9.924a1.586,1.586,0,0,0-1.6443-1.6143,1.6293,1.6293,0,0,0-1.67,1.6653,1.696,1.696,0,0,0,1.7194,1.6462A1.6737,1.6737,0,0,0,548.0518,400.5065Z" transform="translate(-237.3479 -208.9214)"/><path class="cls-72" d="M542.1707,418.4646c.44,1.113.8623,2.1622,1.2669,3.2182a1.15,1.15,0,0,0,.9249.786c1.5122.2925,3.0187.6154,4.5325.8989a3.4568,3.4568,0,0,0,1.0524.0108,1.2464,1.2464,0,0,0,1.2736-1.487,2.9677,2.9677,0,0,1,.6866-2.0631c.0618-.0753.1541-.1524.1659-.2378.1213-.8777.7559-.9307,1.44-.9179a2.9941,2.9941,0,0,0,.3607-.0385,2.5226,2.5226,0,0,1-.5659,2.0482,2.0765,2.0765,0,0,0-.4562,1.4067,2.76,2.76,0,0,1-2.4151,2.8455,11.4911,11.4911,0,0,1-4.239-.3383c-.4826-.0962-.8045-.0207-1.01.42-.4754,1.0218-.9419,2.0478-1.4351,3.1223l-1.55-.3692,1.527-3.7658c-1.468-.2962-1.7951-1.6555-2.2887-2.87-.2775-.6827-.5066-1.385-.77-2.1136Z" transform="translate(-237.3479 -208.9214)"/><path class="cls-72" d="M542.2457,416.2037h-1.5987c0-.6359-.0145-1.2549.0122-1.8722.0054-.1242.1543-.2546.2592-.36,1.0356-1.0415,2.0694-2.0851,3.12-3.1118a.615.615,0,0,0,.156-.8152,3.2258,3.2258,0,0,1,.7014-3.5723,3.3154,3.3154,0,0,1,3.5752-.7306,3.2918,3.2918,0,0,1-2.494,6.0929.6113.6113,0,0,0-.8038.1618c-.7688.809-1.5513,1.6078-2.3716,2.3639a1.412,1.412,0,0,0-.5371,1.3311A3.0167,3.0167,0,0,1,542.2457,416.2037Zm6.63-7.4329a1.5867,1.5867,0,0,0-1.64-1.6152,1.6668,1.6668,0,0,0-1.6771,1.6694,1.6913,1.6913,0,0,0,1.7248,1.6387A1.6584,1.6584,0,0,0,548.8754,408.7707Z" transform="translate(-237.3479 -208.9214)"/></g><g id="math"><path class="cls-72" d="M581.617,630.7069l3.1382,20.6245c-.0108.0219-.0309.0438-.031.0657a2.9424,2.9424,0,0,1-2.5879,2.7731q-9.62,1.4411-19.2343,2.92c-.1487.0226-.2972.0473-.4465.0656a2.863,2.863,0,0,1-3.1466-2.3808q-1.5044-9.8767-3.0036-19.7542a2.7117,2.7117,0,0,1,1.2534-2.8015,6.6269,6.6269,0,0,1,.7912-.4071l20.4262-3.108c.0555.01.1107.0242.1667.0282a2.8715,2.8715,0,0,1,2.4836,1.5768C581.4956,630.4388,581.5537,630.5742,581.617,630.7069Zm-21.9,13.9066q.5375,3.5323,1.075,7.0647c.1408.9254.2759,1.8518.4249,2.7759a.9911.9911,0,0,0,1.1955.8877q9.7917-1.4881,19.5828-2.98a1.0931,1.0931,0,0,0,.9152-.9594c.0061-.0558.0126-.1549-.0094-.1638-.2088-.0843-.1552-.2782-.178-.427q-1.46-9.555-2.9116-19.1113c-.0138-.0909-.0258-.1821-.0423-.2725a.9944.9944,0,0,0-1.2111-.8673q-9.7048,1.4755-19.4091,2.9543a1.1667,1.1667,0,0,0-.3108.0863,1.0863,1.0863,0,0,0-.6068,1.2452Q558.9731,639.73,559.7168,644.6136Z" transform="translate(-237.3479 -208.9214)"/><path class="cls-72" d="M581.617,630.7069c-.0633-.1327-.1214-.2681-.1907-.3976a2.8715,2.8715,0,0,0-2.4836-1.5768c-.0559-.004-.1111-.0186-.1667-.0282l2.4789-.3772Z" transform="translate(-237.3479 -208.9214)"/><path class="cls-72" d="M565.3127,649.05c-.5107-.3721-1.0012-.72-1.4813-1.0824a.8213.8213,0,0,1-.3265-.9492.9026.9026,0,0,1,.8318-.682,1.3147,1.3147,0,0,1,.6413.224c.4783.32.9314.6771,1.4175,1.0364.3639-.4957.7139-.9807,1.073-1.4589a.9092.9092,0,0,1,1.48,1.0557c-.2916.4179-.6005.8238-.9042,1.2333-.0543.0732-.12.1378-.2045.2328.3482.2546.6633.4846.9779.7151.1685.1235.34.2439.504.3725a.8627.8627,0,0,1,.2063,1.255.934.934,0,0,1-1.2942.2051c-.43-.303-.85-.622-1.274-.9335-.0533-.0391-.1088-.0754-.185-.1279-.3532.4824-.6936.9672-1.055,1.4358a.9349.9349,0,0,1-1.6268-.2233.8261.8261,0,0,1,.1413-.8253c.3018-.4211.6128-.8356.9193-1.2534C565.2025,649.2141,565.2473,649.1453,565.3127,649.05Z" transform="translate(-237.3479 -208.9214)"/><path class="cls-72" d="M563.916,638.111c-.0947-.6224-.1894-1.2061-.2706-1.7917a.852.852,0,0,1,.433-.9092.902.902,0,0,1,1.3509.6654c.0856.4853.1509.9742.2252,1.4615l.0456.3c.392-.06.761-.1159,1.13-.1719.2478-.0376.4951-.08.7436-.1114a.869.869,0,0,1,1.0454.7557.8848.8848,0,0,1-.789,1.0291c-.5356.0891-1.0735.1648-1.61.2474-.0726.0112-.1443.0281-.2465.0483.0791.52.1583,1.029.2329,1.5386a2.0813,2.0813,0,0,1,.0329.3976.8683.8683,0,0,1-.82.8537.8525.8525,0,0,1-.9539-.7265c-.089-.5017-.1576-1.0069-.2351-1.5106-.0136-.0884-.0269-.1769-.0445-.2921-.5968.0908-1.1643.179-1.7325.2622a1.8288,1.8288,0,0,1-.373.0245.8813.8813,0,0,1-.839-.812.8627.8627,0,0,1,.726-.9583C562.6,638.3016,563.2369,638.2144,563.916,638.111Z" transform="translate(-237.3479 -208.9214)"/><path class="cls-72" d="M574.2429,635.1c.9079-.1379,1.8147-.283,2.7239-.4119a.8963.8963,0,0,1,1.0925,1.0125.9174.9174,0,0,1-.8753.7869q-2.327.3566-4.6547.7089c-.2724.0414-.5437.0939-.8175.1208a.901.901,0,0,1-1.0147-1.11.8156.8156,0,0,1,.58-.6311,2.3878,2.3878,0,0,1,.3414-.0756Q572.93,635.2978,574.2429,635.1Z" transform="translate(-237.3479 -208.9214)"/><path class="cls-72" d="M574.6545,637.9032q1.3742-.2091,2.7485-.4176a.8862.8862,0,0,1,1.0821.7428.8955.8955,0,0,1-.8119,1.0379q-2.7479.4213-5.4968.8362a.88.88,0,0,1-1.0642-.7656.8684.8684,0,0,1,.794-1.0148C572.822,638.18,573.7384,638.0426,574.6545,637.9032Z" transform="translate(-237.3479 -208.9214)"/><path class="cls-72" d="M576.2339,648.1823c-.9243.1408-1.8474.29-2.7734.4192a.8916.8916,0,0,1-1.0458-1.0931.8469.8469,0,0,1,.7429-.6851q2.7958-.4379,5.5956-.85a.9011.9011,0,1,1,.2532,1.7842C578.0839,647.909,577.1582,648.0414,576.2339,648.1823Z" transform="translate(-237.3479 -208.9214)"/><path class="cls-72" d="M576.2566,648.5675a1.1008,1.1008,0,0,1,1.2022.8546,1.019,1.019,0,0,1-.8412,1.1674,1.0842,1.0842,0,0,1-1.1942-.8581A.9966.9966,0,0,1,576.2566,648.5675Z" transform="translate(-237.3479 -208.9214)"/><path class="cls-72" d="M575.5727,643.9975a1.097,1.097,0,0,1,1.1924.8661,1.1247,1.1247,0,0,1-.8792,1.1675,1.0988,1.0988,0,0,1-1.1592-.88A.9942.9942,0,0,1,575.5727,643.9975Z" transform="translate(-237.3479 -208.9214)"/></g><g id="treasure"><path class="cls-73" d="M420.541,520.8376c-.3769-.9937-.7287-1.9213-1.08-2.849q-1.0862-2.8649-2.1724-5.73c-.43-1.133-.8473-2.2707-1.2973-3.3955-.11-.2754.0165-.3947.1793-.55q3.7407-3.562,7.4775-7.1281c.5566-.5308,1.1123-1.0626,1.7218-1.6449.0917.2417.1674.4407.2427.64q1.7127,4.5329,3.4258,9.0657c.2939.7769.5869,1.5541.8955,2.3252a.3206.3206,0,0,1-.1026.4145q-3.5426,3.3663-7.0755,6.7428c-.5914.5644-1.1785,1.1333-1.7688,1.6989C420.8562,520.5525,420.7209,520.6724,420.541,520.8376Z" transform="translate(-237.3479 -208.9214)"/><path class="cls-73" d="M397.8968,508.2113c-.1363-.8178-.3378-1.6245-.3944-2.4413a13.4134,13.4134,0,0,1,1.6352-7.56,7.4343,7.4343,0,0,1,2.86-3.0176,3.9445,3.9445,0,0,1,1.8683-.3868q4.0154-.1477,8.03-.3059c.2834-.0109.5664-.03.8562-.0464-3.5776,3.8361-4.4949,8.3163-3.3984,13.36Z" transform="translate(-237.3479 -208.9214)"/><path class="cls-73" d="M398.466,509.4841c.5838-.0225,1.1462-.0556,1.7084-.0545a.4018.4018,0,0,1,.275.2313c.5967,1.5511,1.18,3.1075,1.7666,4.6624.33.8747.656,1.7512,1,2.62a.3778.3778,0,0,0,.2805.2007c2.3332-.0739,4.666-.1618,6.9988-.2487a.9471.9471,0,0,0,.162-.0407l-2.9166-7.6905c.697-.0262,1.347-.0563,1.9972-.0664.0682-.0011.1723.1035.2024.1813.4833,1.2484.9578,2.5,1.4333,3.7516q.9222,2.4272,1.843,4.8549c.4293,1.1312.8581,2.2626,1.3064,3.4445-.5331.02-1.0205.0419-1.5082.0557q-4.8116.1364-9.6233.27c-.1881.0053-.339.0124-.43-.2282q-2.227-5.9151-4.4738-11.8228A1.0423,1.0423,0,0,1,398.466,509.4841Z" transform="translate(-237.3479 -208.9214)"/><path class="cls-73" d="M415.3533,507.2994c-.0937-.4861-.1926-.9208-.26-1.36a13.4445,13.4445,0,0,1,.7131-6.5924,9.7766,9.7766,0,0,1,2.5981-4.0672,3.9846,3.9846,0,0,1,2.1417-1.1212,2.9752,2.9752,0,0,1,2.652,1.14,9.5261,9.5261,0,0,1,1.6319,2.7869.34.34,0,0,1-.103.2788q-2.4285,2.3322-4.8679,4.653-2.0865,1.9919-4.1723,3.9844C415.597,507.0876,415.5012,507.1678,415.3533,507.2994Z" transform="translate(-237.3479 -208.9214)"/><path class="cls-73" d="M417.604,494.2662a11.9848,11.9848,0,0,0-3.5439,6.2265,13.5739,13.5739,0,0,0,.0818,7.1533l-3.38.1213a10.35,10.35,0,0,1-.5352-3.688,13.4933,13.4933,0,0,1,1.8333-6.6566,7.3887,7.3887,0,0,1,2.3728-2.5606,3.1128,3.1128,0,0,1,1.719-.547C416.6084,494.32,417.0652,494.2859,417.604,494.2662Z" transform="translate(-237.3479 -208.9214)"/><path class="cls-73" d="M411.2351,509.0373c1.1272-.0386,2.1935-.0821,3.26-.0992.0913-.0015.2285.1558.2717.2674.6329,1.6364,1.2545,3.2772,1.8765,4.9177q1.2767,3.3675,2.55,6.7362c.04.1044.0792.2088.1306.3445-1.1139.0348-2.1919.0757-3.27.0893-.0911.0011-.2263-.165-.2705-.28q-1.333-3.476-2.6473-6.9591-.8719-2.299-1.7429-4.5984Z" transform="translate(-237.3479 -208.9214)"/><path class="cls-73" d="M400.0339,494.9225c-3.5906,3.8559-4.5294,8.3062-3.4707,13.3233-.6529.0272-1.3461.0563-2.0393.0849a3.6972,3.6972,0,0,0-.5505.0259c-.3556.0694-.4788-.1027-.5591-.4184a12.526,12.526,0,0,1-.2108-5.005,12.2886,12.2886,0,0,1,2.1678-5.5913,5.4092,5.4092,0,0,1,2.8708-2.218A11.3887,11.3887,0,0,1,400.0339,494.9225Z" transform="translate(-237.3479 -208.9214)"/><path class="cls-73" d="M401.7053,521.687c-1.0121.0337-1.9616.0722-2.9115.0847-.0813.0011-.2005-.1569-.242-.2642-.4906-1.2691-.97-2.5426-1.4519-3.8149q-1.4408-3.8008-2.8819-7.6016l-.1743-.46c.9943-.0331,1.9437-.07,2.8935-.0873a.3348.3348,0,0,1,.2312.1927c.5911,1.539,1.17,3.0824,1.7548,4.624q.9439,2.49,1.8917,4.9787C401.1053,520.1037,401.3948,520.8682,401.7053,521.687Z" transform="translate(-237.3479 -208.9214)"/><path class="cls-73" d="M401.7542,509.3652c1.2274-.0427,2.42-.0863,3.6126-.1243.3424-.0109.7635-.1273,1.0053.028.2281.1464.2708.5854.3894.8977.6882,1.8114,1.3748,3.6234,2.0806,5.4844-.2737.0193-.5173.0429-.7616.0527-1.2055.0484-2.4111.0914-3.6165.1412-.1729.0071-.2878-.0042-.3641-.2082-.7633-2.043-1.54-4.0809-2.3131-6.12A1.3856,1.3856,0,0,1,401.7542,509.3652Zm4.783,4.8112c-.1954-.5153-.3735-1.0023-.5658-1.4836a.6485.6485,0,0,1,.0089-.5855,1.1489,1.1489,0,0,0-.5972-1.6109,1.2116,1.2116,0,1,0-.953,2.2279.722.722,0,0,1,.3243.3458c.2146.5062.3979,1.0256.5989,1.5555Z" transform="translate(-237.3479 -208.9214)"/></g><g id="hackathon"><path class="cls-73" d="M589.06,297.3609q-1.7978,0-3.5957,0a2.0763,2.0763,0,0,1-2.2233-2.1769,19.8833,19.8833,0,0,0-.3514-2.8757,5.9572,5.9572,0,0,0-1.8312-3.0328,10.2262,10.2262,0,0,1-2.2744-2.809,9.85,9.85,0,0,1-.848-4.6446c.1529-4.7412,2.3591-8.2473,6.7-10.13a10.56,10.56,0,0,1,11.9976,2.0621,10.8222,10.8222,0,0,1,3.5016,9.2554,8.0782,8.0782,0,0,1-1.4222,4.4345,8.1968,8.1968,0,0,1-1.2054,1.3541,7.7037,7.7037,0,0,0-2.6648,6.4026,1.9364,1.9364,0,0,1-.9959,1.8556,2.5189,2.5189,0,0,1-1.1108.2911C591.5113,297.3831,590.2851,297.3609,589.06,297.3609Zm-.0284-1.2169q1.7364,0,3.4728,0c.83-.0008,1.1083-.2808,1.1145-1.1143a11.7126,11.7126,0,0,1,.5283-3.5785,8.35,8.35,0,0,1,2.4394-3.4571,6.6,6.6,0,0,0,2.1165-3.589,11.9439,11.9439,0,0,0,.108-4.1343,9.9152,9.9152,0,0,0-13.9678-7.3629,10.0761,10.0761,0,0,0-5.4763,11.3865,6.9569,6.9569,0,0,0,2.2917,3.8469,7.3232,7.3232,0,0,1,2.4594,3.9389,27.3982,27.3982,0,0,1,.358,3.078c.0551.6728.3229.9835,1.002.9856C586.6622,296.1473,587.8467,296.1445,589.0313,296.144Z" transform="translate(-237.3479 -208.9214)"/><path class="cls-73" d="M588.9812,300.429q-1.8758-.0005-3.7516-.001c-.4987-.0007-.7832-.2249-.7859-.61s.2781-.6178.78-.6186q3.7717-.0057,7.5435,0c.4977.0008.7712.2405.7625.6334-.0083.3745-.2775.5938-.7565.5953C591.5092,300.432,590.2452,300.4294,588.9812,300.429Z" transform="translate(-237.3479 -208.9214)"/><path class="cls-73" d="M589.02,302.267c.9291,0,1.8583-.0065,2.7874.002.4885.0045.7729.31.6916.7257a.5853.5853,0,0,1-.6366.5005q-2.8682.0058-5.7364-.0011a.6083.6083,0,0,1-.6655-.6057c-.0052-.367.2546-.614.6913-.6181C587.1081,302.2612,588.0643,302.2674,589.02,302.267Z" transform="translate(-237.3479 -208.9214)"/><path class="cls-73" d="M573.8945,280.8336c.4306,0,.8614-.0069,1.2919.0019.425.0087.6679.2229.6843.5816a.6033.6033,0,0,1-.6636.6479q-1.3116.0249-2.624,0a.6179.6179,0,1,1,.0194-1.2287C573.033,280.8262,573.4638,280.8337,573.8945,280.8336Z" transform="translate(-237.3479 -208.9214)"/><path class="cls-73" d="M577.9288,274.4957c.0122.556-.4572.8817-.8728.6587-.8282-.4446-1.6392-.9224-2.4438-1.4088a.5552.5552,0,0,1-.206-.7765.5686.5686,0,0,1,.7865-.275q1.2546.6862,2.477,1.43C577.81,274.2092,577.8757,274.4159,577.9288,274.4957Z" transform="translate(-237.3479 -208.9214)"/><path class="cls-73" d="M598.3384,267.6716a4.397,4.397,0,0,1-.1984.5067q-.6169,1.0864-1.2493,2.164a.6216.6216,0,1,1-1.07-.6015q.6464-1.1393,1.3128-2.2673a.5307.5307,0,0,1,.7143-.2757A2.1385,2.1385,0,0,1,598.3384,267.6716Z" transform="translate(-237.3479 -208.9214)"/><path class="cls-73" d="M603.6436,273.3109c.1426.1226.3695.2386.47.4234a.5148.5148,0,0,1-.1856.7126q-1.2262.7374-2.4776,1.4322a.5768.5768,0,0,1-.7945-.2552.6015.6015,0,0,1,.2508-.8331c.7745-.4592,1.5572-.9045,2.34-1.35A2.5407,2.5407,0,0,1,603.6436,273.3109Z" transform="translate(-237.3479 -208.9214)"/><path class="cls-73" d="M583.2029,269.78c-.161.1711-.2926.4027-.49.4989a.5381.5381,0,0,1-.725-.2576c-.2879-.4853-.5662-.9763-.8487-1.4648-.1749-.3024-.3618-.5985-.522-.9084a.596.596,0,0,1,.201-.8136.5742.5742,0,0,1,.8191.1632c.4959.8144.9624,1.6468,1.4359,2.4747a.8938.8938,0,0,1,.0591.2313Z" transform="translate(-237.3479 -208.9214)"/><path class="cls-73" d="M590.0773,266.701c-.0006.4441.008.8885-.0031,1.3324a.6106.6106,0,1,1-1.2181.0012q-.0113-1.3323.0021-2.6648a.5964.5964,0,0,1,.6268-.6386.6026.6026,0,0,1,.59.6376C590.0875,265.8124,590.0779,266.2568,590.0773,266.701Z" transform="translate(-237.3479 -208.9214)"/><path class="cls-73" d="M604.19,281.674c.4306,0,.8614-.0048,1.2919.0013.4425.0062.6965.2345.6923.6084a.5958.5958,0,0,1-.6543.6129q-1.3321.0169-2.6645-.0024a.6086.6086,0,1,1,.0022-1.2155c.4439-.0095.8882-.0022,1.3323-.0022Z" transform="translate(-237.3479 -208.9214)"/><path class="cls-73" d="M589.4215,274.7818a7.0764,7.0764,0,0,1,6.715,6.9587c-.0032.586-.4938.9466-.9119.6351a.9567.9567,0,0,1-.3-.6438,5.8643,5.8643,0,0,0-3.1972-5.077,5.3178,5.3178,0,0,0-2.3534-.64,2.7807,2.7807,0,0,1-.4408-.0365.5535.5535,0,0,1-.4882-.5954.5656.5656,0,0,1,.5364-.5979A3.2166,3.2166,0,0,1,589.4215,274.7818Z" transform="translate(-237.3479 -208.9214)"/></g><g id="cricket"><path class="cls-73" d="M432.2446,317.773q-.4227,1.4777-.8453,2.9555c-.3249,1.1375-.6459,2.2763-.9791,3.4114a.9191.9191,0,0,1-.2154.3206q-1.66,1.8579-3.3266,3.71a1.574,1.574,0,0,1-1.7519.5768,1.5473,1.5473,0,0,1-1.0138-1.6362,1.1128,1.1128,0,0,0-.0205-.135l-.8047-.1432,1.9623-11.03-1.382-.2459L421.9119,326.55l-.8419-.15,1.9568-10.9985-1.0114-.18-1.9581,11.0056-.8478-.1508c.0121-.1186.0169-.2445.0387-.3673q.9165-5.16,1.8406-10.3185a1.8329,1.8329,0,0,1,.17-.3935c.019-.181-.0252-.4289.0787-.5562a.6629.6629,0,0,1,.5353-.1532q1.9113.3094,3.8127.6779a.7.7,0,0,1,.4539.3288c.0628.1389-.0445.3547-.1113.525a2.3924,2.3924,0,0,1,.0141.4921q-.8621,4.8962-1.7372,9.79l-.0877.493c1.1692-1.3057,2.2846-2.528,3.3649-3.7806a2.2168,2.2168,0,0,0,.3036-.8307c.4773-1.6657.9065-3.3468,1.4438-4.9927a2.6357,2.6357,0,0,0,.0092-1.4559c-.2853-1.4026-.528-2.8142-.7651-4.226a2.6486,2.6486,0,0,1,4.3745-2.4595c.0364.0305.0753.0579.1434.11l2.8108-2.1339c-.1032-.2355-.1032-.2355-.5319-.059-.0525-.0656-.1161-.133-.1661-.2094q-2.6452-4.0385-5.2875-8.0788a.5807.5807,0,0,1,.0722-.8374.9262.9262,0,0,1,1.5868.1039q2.6751,4.0188,5.3441,8.0417c.0326.0491.0612.1008.108.1784l-.45.2576a4.1352,4.1352,0,0,1,.9677.1887.8439.8439,0,0,1,.4173.8855,1.0055,1.0055,0,0,1,.362,1.78c.2361.3742.4723.758.7186,1.1353.151.2313.2509.4724-.0267.6561-.2754.1823-.4636.0079-.6126-.23-.2271-.3621-.4622-.7191-.7112-1.105-.7484.5672-1.4708,1.1145-2.1929,1.662-.3718.2819-.7362.5743-1.118.8421a.4343.4343,0,0,0-.2108.5048c.152.7723.23,1.5626.429,2.3215a25.4685,25.4685,0,0,0,.9332,2.9328,7.8663,7.8663,0,0,1,.3038,4.791c-.5189,2.3215-.8575,4.6831-1.2786,7.0267a1.5082,1.5082,0,0,1-2.9926-.1378,2.61,2.61,0,0,1,.0633-.6388c.477-2.6982.9617-5.395,1.4308-8.0945a1.6444,1.6444,0,0,0-.0414-.697c-.2121-.767-.4544-1.5256-.6852-2.2875Z" transform="translate(-237.3479 -208.9214)"/><path class="cls-74" d="M431.1422,306.155a2.067,2.067,0,1,1-1.66-2.3985A2.0982,2.0982,0,0,1,431.1422,306.155Z" transform="translate(-237.3479 -208.9214)"/><path class="cls-74" d="M442.78,299.7621a1.3676,1.3676,0,0,1,1.7535.5421,1.3538,1.3538,0,0,1-.3457,1.814Z" transform="translate(-237.3479 -208.9214)"/><path class="cls-74" d="M442.4156,300.0166a6.8872,6.8872,0,0,1,1.3491,2.2967,1.3258,1.3258,0,0,1-1.6-.523A1.3433,1.3433,0,0,1,442.4156,300.0166Z" transform="translate(-237.3479 -208.9214)"/></g><g id="music"><path class="cls-72" d="M464.1615,529.05a4.6128,4.6128,0,0,1,.4809,1.3768c.0387,3.9165.0335,7.8335.017,11.75-.008,1.9063-1.0387,3.2006-2.6183,3.3331a2.7993,2.7993,0,0,1-2.823-1.4,2.757,2.757,0,0,1,.0772-3.14,2.839,2.839,0,0,1,2.9033-1.2405,8.4976,8.4976,0,0,1,.8332.1826v-5.7749c-2.9447.5488-5.8568,1.0772-8.7569,1.6653-.1872.038-.3969.5351-.4.821-.0315,2.6812-.0069,5.363-.027,8.0443a2.9085,2.9085,0,0,1-5.2676,1.6949,2.9237,2.9237,0,0,1,2.86-4.6143c.2338.04.4625.1094.8052.1923.0163-.3717.0419-.6883.0422-1.005.0032-2.8021-.0017-5.6041.0037-8.4062.0023-1.2058.0836-1.2888,1.2821-1.5148q4.7786-.901,9.5558-1.81a1.2588,1.2588,0,0,0,.3086-.1554Zm-1.0851,1.7412L453.9,532.536v1.72l9.1765-1.732v-1.7324Zm-.0021,11.8114a1.4067,1.4067,0,0,0-1.3832-1.3679,1.3655,1.3655,0,0,0-1.3275,1.41,1.3177,1.3177,0,0,0,1.3261,1.3A1.3507,1.3507,0,0,0,463.0743,542.6025Zm-10.8124,2.02a1.2884,1.2884,0,0,0-1.3811-1.3209,1.3887,1.3887,0,0,0-1.3249,1.3256,1.48,1.48,0,0,0,1.3733,1.4016A1.4047,1.4047,0,0,0,452.2619,544.6221Z" transform="translate(-237.3479 -208.9214)"/><path class="cls-72" d="M462.0634,559.6833c-1.5444-2.6372-1.3439-4.087.8044-6.2383,2.8533-2.8573,5.7165-5.7048,8.5487-8.5829a1.5144,1.5144,0,0,0,.4248-1.0609,6.8742,6.8742,0,0,1,13.67-1.4389,6.83,6.83,0,0,1-5.3622,7.5742,2.6064,2.6064,0,0,1-1.0666.1083c-1.2917-.2556-2.0959.3967-2.9367,1.2669-2.6175,2.709-5.3233,5.3323-7.9694,8.014a4.2241,4.2241,0,0,1-4.2329,1.3835.8321.8321,0,0,0-.4349-.0422c-1.1182.4134-2.2539.7928-3.3348,1.29a3.1885,3.1885,0,0,0-1.79,2.456,4.8746,4.8746,0,0,1-4.0666,4.1549,6.5471,6.5471,0,0,0-1.84.8759c-.4247.2542-.8086.4781-1.1978.04a.75.75,0,0,1,.19-1.2336,10.6046,10.6046,0,0,1,2.4783-1.1794,3.4716,3.4716,0,0,0,2.85-2.7711,5.0348,5.0348,0,0,1,4.37-4.3032,3.9092,3.9092,0,0,0,.517-.1469C461.793,559.8129,461.8962,559.7574,462.0634,559.6833Zm13.3633-20.6108c.44.3506.8188.6032,1.1384.9163,1.1627,1.1386,2.3366,2.2692,3.43,3.4724.2184.24.0994.7872.1359,1.1927a5.034,5.034,0,0,1-1.201-.12c-.2563-.087-.4379-.3987-.6492-.6136-1.26-1.2818-2.52-2.5646-3.7992-3.867a5.2894,5.2894,0,0,0,7.9937,6.8951,5.3142,5.3142,0,0,0,.3377-7.0742C481.0711,537.7087,478.0617,537.2995,475.4267,539.0725Zm-6.12,10.1125c-1.9,1.9178-3.8531,3.8728-5.7867,5.8468a2.3854,2.3854,0,1,0,3.36,3.3437c1.5451-1.52,3.06-3.07,4.6072-4.5874.4236-.4153.9188-.7576,1.3336-1.0948Zm1.3731-1.1927,3.2643,3.2043,1.575-1.6221L472.27,546.328Z" transform="translate(-237.3479 -208.9214)"/><path class="cls-72" d="M482.3045,545.81c-.4493.34-.7824.7675-1.0013.7153a1.1538,1.1538,0,0,1-.7048-.7961c-.03-.1939.4567-.6508.7214-.6586C481.5886,545.0626,481.8693,545.4614,482.3045,545.81Z" transform="translate(-237.3479 -208.9214)"/></g><g id="ones"><path class="cls-72" d="M453.2969,259.7383l2.9854-1.0615L462.07,274.96l-2.9854,1.0615Z" transform="translate(-237.3479 -208.9214)"/><path class="cls-72" d="M342.0205,627.2471l2.9854-1.0615,5.7881,16.2832-2.9854,1.0615Z" transform="translate(-237.3479 -208.9214)"/><path class="cls-72" d="M557.1113,579.543l2.8242,1.4336-7.8223,15.41-2.8242-1.4336Z" transform="translate(-237.3479 -208.9214)"/><path class="cls-72" d="M661.4434,320.3486l2.7207,1.624-8.8564,14.8389-2.7207-1.623Z" transform="translate(-237.3479 -208.9214)"/><path class="cls-72" d="M482.2012,382.9453l2.6191.9111-4.9687,14.2773-2.6182-.9111Z" transform="translate(-237.3479 -208.9214)"/><path class="cls-72" d="M606.2148,666.8008l2.6172.9121L603.8643,681.99l-2.6182-.9121Z" transform="translate(-237.3479 -208.9214)"/><path class="cls-72" d="M493.7656,694.0176l2.5479-1.0908,5.9521,13.8965-2.5479,1.0908Z" transform="translate(-237.3479 -208.9214)"/><path class="cls-72" d="M545.2246,255.002l2.6191.9111L542.875,270.19l-2.6182-.9111Z" transform="translate(-237.3479 -208.9214)"/><path class="cls-72" d="M403.5107,350.8418l2.3428,1.48-8.0762,12.7793-2.3437-1.48Z" transform="translate(-237.3479 -208.9214)"/><path class="cls-72" d="M361.5527,298.5039l2.1875-.93,5.0723,11.93-2.1875.9307Z" transform="translate(-237.3479 -208.9214)"/><path class="cls-72" d="M582.5889,438.9873l4.2715-2.0815,11.3555,23.2964-4.2715,2.0815Z" transform="translate(-237.3479 -208.9214)"/><path class="cls-72" d="M419.93,664.3564l3.8193,2.8252-15.4131,20.8359-3.82-2.8252Z" transform="translate(-237.3479 -208.9214)"/></g><g id="zeros"><path class="cls-72" d="M446.2188,357.1064a3.3437,3.3437,0,0,1,4.2178,2.1133l3.3457,10.0684a3.3438,3.3438,0,0,1-2.1143,4.2178l-10.0674,3.3447a3.3283,3.3283,0,0,1-4.2178-2.1133l-3.3457-10.0684a3.33,3.33,0,0,1,2.1143-4.2178Zm4.45,13.3926a.1609.1609,0,0,0,.085-.2051l-3.3457-10.0674a.1619.1619,0,0,0-.19-.1143L437.15,363.458a.1638.1638,0,0,0-.1064.2119l3.3457,10.0684a.1626.1626,0,0,0,.2119.1055Z" transform="translate(-237.3479 -208.9214)"/><path class="cls-72" d="M388.7813,548.4814a3.3437,3.3437,0,0,1,4.2178,2.1133l3.3457,10.0674a3.3448,3.3448,0,0,1-2.1143,4.2188l-10.0674,3.3447a3.3283,3.3283,0,0,1-4.2178-2.1133L376.6,556.0439a3.33,3.33,0,0,1,2.1143-4.2178Zm4.45,13.3926a.1613.1613,0,0,0,.085-.2051l-3.3457-10.0674a.1619.1619,0,0,0-.19-.1143l-10.0674,3.3457a.1638.1638,0,0,0-.1064.2119l3.3457,10.0674a.1631.1631,0,0,0,.2119.1064Z" transform="translate(-237.3479 -208.9214)"/><path class="cls-72" d="M545.82,678.207a3.3429,3.3429,0,0,1,4.2178,2.1133l3.3457,10.0674a3.3434,3.3434,0,0,1-2.1143,4.2178l-10.0674,3.3457a3.329,3.329,0,0,1-4.2178-2.1133L533.6387,685.77a3.331,3.331,0,0,1,2.1143-4.2187Zm4.45,13.3926a.1613.1613,0,0,0,.085-.2051L547.01,681.3262a.1612.1612,0,0,0-.19-.1133l-10.0674,3.3457a.1628.1628,0,0,0-.1064.2109l3.3457,10.0684a.1619.1619,0,0,0,.2119.1055Z" transform="translate(-237.3479 -208.9214)"/><path class="cls-72" d="M613.1133,341.4453a4.4589,4.4589,0,0,1,2.2207,5.8848l-5.8262,12.8867a4.46,4.46,0,0,1-5.8857,2.2207l-12.8867-5.8262a4.44,4.44,0,0,1-2.2207-5.8857l5.8262-12.8867a4.438,4.438,0,0,1,5.8857-2.22Zm-7.752,17.1436a.2161.2161,0,0,0,.2686-.125l5.8262-12.8877a.214.214,0,0,0-.083-.2832l-12.8867-5.8262a.22.22,0,0,0-.2969.1113l-5.8262,12.8877a.22.22,0,0,0,.1113.2969Z" transform="translate(-237.3479 -208.9214)"/><path class="cls-72" d="M411.4766,605.5137a4.4576,4.4576,0,0,1,2.2217,5.8848l-5.8262,12.8867a4.4593,4.4593,0,0,1-5.8857,2.2207L389.1,620.68a4.4387,4.4387,0,0,1-2.2207-5.8857l5.8262-12.8867a4.4375,4.4375,0,0,1,5.8848-2.22Zm-7.75,17.1436a.2151.2151,0,0,0,.2676-.125l5.8262-12.8877a.214.214,0,0,0-.083-.2832l-12.8867-5.8262a.22.22,0,0,0-.2969.1113l-5.8262,12.8877a.2191.2191,0,0,0,.1123.2969Z" transform="translate(-237.3479 -208.9214)"/><path class="cls-72" d="M392.1221,274.6855a2.51,2.51,0,0,1,3.4707-.6973l6.625,4.4087a2.509,2.509,0,0,1,.6963,3.4707l-4.4082,6.626a2.4978,2.4978,0,0,1-3.4707.6963l-6.625-4.4087a2.4975,2.4975,0,0,1-.6973-3.47Zm8.8135,5.8652a.1194.1194,0,0,0-.0449-.16l-6.625-4.4087a.1192.1192,0,0,0-.1641.02l-4.41,6.626a.1243.1243,0,0,0,.0352.1748l6.625,4.4087a.1248.1248,0,0,0,.1758-.0352Z" transform="translate(-237.3479 -208.9214)"/><path class="cls-72" d="M515.3154,558.6533a2.51,2.51,0,0,1,3.4707-.6973l6.625,4.4092a2.5088,2.5088,0,0,1,.6963,3.4707l-4.4082,6.625a2.4984,2.4984,0,0,1-3.4707.6973l-6.625-4.4092a2.4974,2.4974,0,0,1-.6973-3.47Zm8.8135,5.8652a.1186.1186,0,0,0-.0449-.1592l-6.625-4.4092a.1192.1192,0,0,0-.1641.0205l-4.41,6.625a.1256.1256,0,0,0,.0352.1758l6.625,4.4082a.1252.1252,0,0,0,.1758-.0352Z" transform="translate(-237.3479 -208.9214)"/><path class="cls-72" d="M454.377,687.32a2.51,2.51,0,0,1,3.4707-.6973l6.625,4.4082a2.5091,2.5091,0,0,1,.6963,3.4707l-4.4082,6.627a2.4971,2.4971,0,0,1-3.4707.6953l-6.625-4.4082a2.4976,2.4976,0,0,1-.6973-3.47Zm8.8135,5.8652a.12.12,0,0,0-.0449-.16l-6.625-4.4082a.1192.1192,0,0,0-.1641.02l-4.41,6.627a.1231.1231,0,0,0,.0352.1738l6.625,4.4092a.1244.1244,0,0,0,.1758-.0352Z" transform="translate(-237.3479 -208.9214)"/><path class="cls-72" d="M591.3174,595.9473a2.5087,2.5087,0,0,1,1.374-3.2617l7.37-3a2.509,2.509,0,0,1,3.2627,1.373l3.001,7.3721a2.4984,2.4984,0,0,1-1.375,3.2617l-7.37,3.001a2.4978,2.4978,0,0,1-3.2617-1.374Zm9.8047-3.9922a.12.12,0,0,0-.1572-.0508l-7.37,3a.1192.1192,0,0,0-.0762.1465l3.001,7.3721a.1232.1232,0,0,0,.1641.0693l7.3711-3.001a.1227.1227,0,0,0,.0684-.1641Z" transform="translate(-237.3479 -208.9214)"/><path class="cls-72" d="M628.36,650.42a2.5087,2.5087,0,0,1,1.374-3.2617l7.37-3a2.509,2.509,0,0,1,3.2627,1.373l3.001,7.3721a2.4984,2.4984,0,0,1-1.375,3.2617l-7.37,3.001a2.4978,2.4978,0,0,1-3.2617-1.374Zm9.8047-3.9922a.12.12,0,0,0-.1572-.0508l-7.37,3a.1192.1192,0,0,0-.0762.1465l3.001,7.3721a.1232.1232,0,0,0,.1641.0693l7.3711-3.001a.1227.1227,0,0,0,.0684-.1641Z" transform="translate(-237.3479 -208.9214)"/><path class="cls-72" d="M508.9785,251.1416a2.51,2.51,0,0,1,2.8623,2.0835l1.2363,7.8613a2.51,2.51,0,0,1-2.084,2.8618l-7.8623,1.2363a2.4965,2.4965,0,0,1-2.86-2.084l-1.2363-7.8613a2.4962,2.4962,0,0,1,2.082-2.8613ZM510.624,261.6a.12.12,0,0,0,.0859-.1411l-1.2363-7.8613a.12.12,0,0,0-.126-.1079l-7.8623,1.2368a.1222.1222,0,0,0-.1035.144l1.2363,7.8613a.1218.1218,0,0,0,.1426.105Z" transform="translate(-237.3479 -208.9214)"/><path class="cls-72" d="M613.7988,391.3721a2.5091,2.5091,0,0,1,3.4531.78l4.249,6.7285a2.5074,2.5074,0,0,1-.78,3.4526l-6.7285,4.25a2.4974,2.4974,0,0,1-3.4521-.78l-4.249-6.7285a2.4972,2.4972,0,0,1,.7793-3.4521Zm5.6533,8.9512a.12.12,0,0,0,.0234-.1641l-4.249-6.7285a.12.12,0,0,0-.1582-.0488l-6.7295,4.25a.1235.1235,0,0,0-.0391.1738l4.249,6.7285a.1233.1233,0,0,0,.1738.0391Z" transform="translate(-237.3479 -208.9214)"/><path class="cls-72" d="M648.3086,464.7031a2.5108,2.5108,0,0,1,1.3057,3.291l-3.1572,7.3047a2.51,2.51,0,0,1-3.291,1.3047l-7.3057-3.1572a2.4971,2.4971,0,0,1-1.3037-3.291l3.1572-7.3047a2.4973,2.4973,0,0,1,3.29-1.3047Zm-4.1992,9.7178a.1191.1191,0,0,0,.1484-.0723l3.1572-7.3047a.12.12,0,0,0-.0488-.1582l-7.3057-3.1582a.1235.1235,0,0,0-.165.0664l-3.1572,7.3047a.1234.1234,0,0,0,.0654.166Z" transform="translate(-237.3479 -208.9214)"/></g><path class="cls-72" d="M307.6162,451.8325l3.2969,4.7681a4.6724,4.6724,0,0,1-1.1885,6.5127L292.25,475.1948,277.5068,453.87l16.5859-11.4673a4.671,4.671,0,0,1,6.5117,1.1885l3.0107,4.3535a4.7451,4.7451,0,0,1,.7617,1.9248A4.65,4.65,0,0,1,307.6162,451.8325Zm-24.0479,2.5742a.8.8,0,0,0-.2012,1.1021l3.0107,4.354a.7985.7985,0,0,0,1.1016.2012l12.7354-8.8057a.7987.7987,0,0,0,.2012-1.1021l-3.01-4.3535a.8.8,0,0,0-1.1025-.2012Zm20.8486-.3628a.7985.7985,0,0,0-1.1016-.2012l-13.624,9.4194a.7989.7989,0,0,0-.2012,1.1021l3.2969,4.7686a.7985.7985,0,0,0,1.1016.2012l13.624-9.4194a.7988.7988,0,0,0,.2012-1.1021Z" transform="translate(-237.3479 -208.9214)"/><path class="cls-72" d="M325.59,426.4219l3.5547-1.5757,8.6064,19.4189a4.6711,4.6711,0,0,1-2.3818,6.1753l-15.1406,6.71a4.6709,4.6709,0,0,1-6.1748-2.3823l-8.6064-19.4189,3.5547-1.5752,8.6064,19.4185a.7988.7988,0,0,0,1.0449.4033l15.1406-6.71a.7989.7989,0,0,0,.4023-1.0454Z" transform="translate(-237.3479 -208.9214)"/><path class="cls-72" d="M361.0137,421.2778l-19.4395,4.11,1.4746,6.9731,15.6357-3.3062.8047,3.8032-15.6367,3.3062,1.4746,6.9731,19.4395-4.11.8047,3.8037-23.2432,4.9141-5.3613-25.3564,23.2432-4.9141Z" transform="translate(-237.3479 -208.9214)"/><path class="cls-72" d="M392.9268,416.9248l-.0361,3.8877L381.876,420.71l-.2051,22.0288-3.8877-.0361.2061-22.0293-11.0146-.1025.0361-3.8877Z" transform="translate(-237.3479 -208.9214)"/><path class="cls-72" d="M416.0771,427.2764l-4.4639,13.9951,19.3115,6.1592-1.7061,5.3511-19.5527-6.2358a5.3163,5.3163,0,0,1-3.457-6.6958l4.6387-14.5439a5.3169,5.3169,0,0,1,6.6963-3.4575l19.5518,6.2358-1.707,5.3511Z" transform="translate(-237.3479 -208.9214)"/><path class="cls-72" d="M462.8818,450.1245l-4.9756-2.6782,1.0068-1.87-12.9307-6.96-2.1494,3.9932,13.2158,7.1138a5.3378,5.3378,0,0,1,2.165,7.2153l-2.4219,4.5a5.3386,5.3386,0,0,1-7.2158,2.1655l-13.4375-7.2329a5.3155,5.3155,0,0,1-2.166-7.2153l1.1436-2.1235,4.9121,2.644-1.0068,1.87,12.9307,6.96,2.1494-3.9932-13.1523-7.08a5.3144,5.3144,0,0,1-2.165-7.2153l2.4219-4.5a5.3156,5.3156,0,0,1,7.2158-2.1655l13.4375,7.2334a5.3373,5.3373,0,0,1,2.165,7.2148Z" transform="translate(-237.3479 -208.9214)"/><path class="cls-72" d="M488.1045,465.8135l-14.7129-10.86-2.6934,3.6489,11.8457,8.7437-3.335,4.5176-11.8457-8.7432L464.67,466.77l14.7119,10.86-3.335,4.5181-19.2588-14.2163L472.18,447.0791l19.26,14.2163Z" transform="translate(-237.3479 -208.9214)"/><path class="cls-72" d="M522.3965,488.9683l-3.6611,4.2583-13.8672-11.9219-2.957,3.4395,11.1641,9.5986-3.66,4.2583-11.165-9.5981-6.6182,7.6978-4.2861-3.6841,16.8975-19.6548Z" transform="translate(-237.3479 -208.9214)"/><path class="cls-72" d="M540.1514,506.9658l-15.3867-9.8833-2.4512,3.8164,12.3887,7.9575-3.0352,4.7246-12.3887-7.957-2.4512,3.8164,15.3867,9.8828-3.0352,4.7256L509.0371,511.11l14.0078-21.8076,20.1416,12.9385Z" transform="translate(-237.3479 -208.9214)"/><path class="cls-72" d="M565.3467,520.752l-5.17-2.2832.8584-1.9434L547.6,510.5928l-1.832,4.1494,13.7314,6.0635a5.3382,5.3382,0,0,1,2.7207,7.0254l-2.0645,4.6758a5.3386,5.3386,0,0,1-7.0254,2.7217l-13.9619-6.166a5.3154,5.3154,0,0,1-2.7217-7.0254l.9746-2.2061,5.1045,2.2539-.8584,1.9424,13.4346,5.9336,1.832-4.1494-13.665-6.0342a5.316,5.316,0,0,1-2.7207-7.0264l2.0645-4.6748a5.3154,5.3154,0,0,1,7.0254-2.7217L563.6,511.52a5.34,5.34,0,0,1,2.7217,7.0264Z" transform="translate(-237.3479 -208.9214)"/><path class="cls-72" d="M594.3926,520.0371l-1.3115,5.4609L583.21,523.127l-4.7422,19.7422-5.46-1.3115,4.7422-19.7422-9.8711-2.3711,1.3115-5.46Z" transform="translate(-237.3479 -208.9214)"/><path class="cls-72" d="M626.5381,519.9033a4.67,4.67,0,0,1,4.94,4.4023l.3408,5.8926a4.67,4.67,0,0,1-4.4014,4.9414l-16.53.9551a.7983.7983,0,0,0-.7451.8359l.2988,5.1748a.8.8,0,0,0,.8369.7451l21.2012-1.2246.2236,3.8809L606.83,547.001l-.5684-9.8457a4.67,4.67,0,0,1,4.4023-4.9414l16.5293-.9551a.7989.7989,0,0,0,.7451-.8359l-.3408-5.8936a.799.799,0,0,0-.8359-.7451l-16.5293.9551a.7982.7982,0,0,0-.7451.8359l.0869,1.51-3.8809.2236-.0869-1.5088a4.67,4.67,0,0,1,4.4014-4.9414Z" transform="translate(-237.3479 -208.9214)"/><path class="cls-72" d="M653.3691,513.31a4.6729,4.6729,0,0,1,5.8066,3.18l4.6465,15.8984a4.6722,4.6722,0,0,1-3.18,5.8066l-15.8984,4.6465a4.6715,4.6715,0,0,1-5.8057-3.18l-4.6475-15.8984a4.6727,4.6727,0,0,1,3.1807-5.8066Zm-14.8066,8.38a.7987.7987,0,0,0-.5381.9824l3.7471,12.8223,12.2051-18.3105Zm20.9893,12.7715a.8.8,0,0,0,.5381-.9824l-3.748-12.8223-12.2051,18.3105Z" transform="translate(-237.3479 -208.9214)"/><path class="cls-72" d="M678.6377,501.2471a4.67,4.67,0,0,1,6.3174,1.9736l2.74,5.23a4.6706,4.6706,0,0,1-1.9736,6.3174l-14.67,7.6855a.8.8,0,0,0-.334,1.0693l2.4063,4.5928a.7993.7993,0,0,0,1.0693.334l18.8154-9.8584,1.8047,3.4443-22.9619,12.03-4.5781-8.7383a4.6721,4.6721,0,0,1,1.9746-6.3184l14.6689-7.6855a.7976.7976,0,0,0,.334-1.0684l-2.7393-5.23a.8.8,0,0,0-1.0693-.334l-14.67,7.6855a.7984.7984,0,0,0-.334,1.0693l.7012,1.3389-3.4443,1.8047-.7012-1.3389a4.6715,4.6715,0,0,1,1.9736-6.3184Z" transform="translate(-237.3479 -208.9214)"/><path class="cls-72" d="M701.7422,485.0029a4.6724,4.6724,0,0,1,6.5527.9463l9.918,13.2656a4.6733,4.6733,0,0,1-.9463,6.5527L704,515.6846a4.6705,4.6705,0,0,1-6.5518-.9463l-9.918-13.2656a4.6722,4.6722,0,0,1,.9463-6.5518Zm-10.9365,13.0327a.7981.7981,0,0,0-.16,1.1084l7.999,10.7,5.0225-21.4243Zm24.1318,4.6167a.7982.7982,0,0,0,.16-1.1084l-7.999-10.7-5.0234,21.4243Z" transform="translate(-237.3479 -208.9214)"/></svg>