<svg id="Layer" xmlns="http://www.w3.org/2000/svg" xmlns:xlink="http://www.w3.org/1999/xlink" viewBox="0 0 490.7495 504.2071"><defs><style>.cls-1,.cls-66,.cls-67,.cls-72,.cls-73{fill:none;}.cls-1{stroke:#250048;}.cls-1,.cls-66,.cls-67,.cls-68,.cls-69,.cls-70,.cls-72,.cls-73,.cls-74{stroke-miterlimit:10;}.cls-2{fill:url(#linear-gradient);}.cls-3{fill:url(#linear-gradient-2);}.cls-4{fill:url(#linear-gradient-3);}.cls-5{fill:url(#linear-gradient-4);}.cls-6{fill:url(#linear-gradient-5);}.cls-7{fill:url(#linear-gradient-6);}.cls-8{fill:url(#linear-gradient-7);}.cls-9{fill:url(#linear-gradient-8);}.cls-10{fill:url(#linear-gradient-9);}.cls-11{fill:url(#linear-gradient-10);}.cls-12{fill:url(#linear-gradient-11);}.cls-13{fill:url(#linear-gradient-12);}.cls-14{fill:url(#linear-gradient-13);}.cls-15{fill:url(#linear-gradient-14);}.cls-16{fill:url(#linear-gradient-15);}.cls-17{fill:url(#linear-gradient-16);}.cls-18{fill:url(#linear-gradient-17);}.cls-19{fill:url(#linear-gradient-18);}.cls-20{fill:url(#linear-gradient-19);}.cls-21{fill:url(#linear-gradient-20);}.cls-22{fill:url(#linear-gradient-21);}.cls-23{fill:url(#linear-gradient-22);}.cls-24{fill:url(#linear-gradient-23);}.cls-25{fill:url(#linear-gradient-24);}.cls-26{fill:url(#linear-gradient-25);}.cls-27{fill:url(#linear-gradient-26);}.cls-28{fill:url(#linear-gradient-27);}.cls-29{fill:url(#linear-gradient-28);}.cls-30{fill:url(#linear-gradient-29);}.cls-31{fill:url(#linear-gradient-30);}.cls-32{fill:url(#linear-gradient-31);}.cls-33{fill:url(#linear-gradient-32);}.cls-34{fill:url(#linear-gradient-33);}.cls-35{fill:url(#linear-gradient-34);}.cls-36{fill:url(#linear-gradient-35);}.cls-37{fill:url(#linear-gradient-36);}.cls-38{fill:url(#linear-gradient-37);}.cls-39{fill:url(#linear-gradient-38);}.cls-40{fill:url(#linear-gradient-39);}.cls-41{fill:url(#linear-gradient-40);}.cls-42{fill:url(#linear-gradient-41);}.cls-43{fill:url(#linear-gradient-42);}.cls-44{fill:url(#linear-gradient-43);}.cls-45{fill:url(#linear-gradient-44);}.cls-46{fill:url(#linear-gradient-45);}.cls-47{fill:url(#linear-gradient-46);}.cls-48{fill:url(#linear-gradient-47);}.cls-49{fill:url(#linear-gradient-48);}.cls-50{fill:url(#linear-gradient-49);}.cls-51{fill:url(#linear-gradient-50);}.cls-52{fill:url(#linear-gradient-51);}.cls-53{fill:url(#linear-gradient-52);}.cls-54{fill:url(#linear-gradient-53);}.cls-55{fill:url(#linear-gradient-54);}.cls-56{fill:url(#linear-gradient-55);}.cls-57{fill:url(#linear-gradient-56);}.cls-58{fill:url(#linear-gradient-57);}.cls-59{fill:url(#linear-gradient-58);}.cls-60{fill:url(#linear-gradient-59);}.cls-61{fill:url(#linear-gradient-60);}.cls-62{fill:url(#linear-gradient-61);}.cls-63{fill:url(#linear-gradient-62);}.cls-64{fill:url(#linear-gradient-63);}.cls-65{fill:url(#linear-gradient-64);}.cls-66,.cls-67,.cls-68,.cls-69,.cls-70,.cls-72,.cls-73,.cls-74{stroke:#fff;}.cls-66{stroke-width:2px;}.cls-67{stroke-width:1.75px;}.cls-68,.cls-69,.cls-72{stroke-width:1.5px;}.cls-69,.cls-70,.cls-71,.cls-74{fill:#fff;}.cls-70{stroke-width:0.75px;}.cls-73{stroke-width:0.6776px;}</style><linearGradient id="linear-gradient" x1="261.1853" y1="479.1132" x2="737.7157" y2="479.1132" gradientTransform="translate(66.8322 -61.1477) rotate(7.5091)" gradientUnits="userSpaceOnUse"><stop offset="0" stop-color="#250048"/><stop offset="1" stop-color="#9d1f60"/></linearGradient><linearGradient id="linear-gradient-2" x1="-3126.7967" y1="219.44" x2="-3045.8745" y2="219.44" gradientTransform="matrix(1, 0, 0, -1, 3420.7362, 790.6505)" gradientUnits="userSpaceOnUse"><stop offset="0" stop-color="#9d1f60"/><stop offset="1" stop-color="#250048"/></linearGradient><linearGradient id="linear-gradient-3" x1="-3061.4403" y1="97.7885" x2="-3037.1152" y2="97.7885" gradientTransform="matrix(1, 0, 0, -1, 3447.8129, 778.8131)" xlink:href="#linear-gradient-2"/><linearGradient id="linear-gradient-4" x1="-2964.8417" y1="118.9819" x2="-2877.846" y2="118.9819" gradientTransform="matrix(1, 0, 0, -1, 3439.4674, 749.8581)" xlink:href="#linear-gradient-2"/><linearGradient id="linear-gradient-5" x1="-3037.5881" y1="148.2304" x2="-2988.181" y2="148.2304" gradientTransform="matrix(1, 0, 0, -1, 3435.1883, 771.7754)" xlink:href="#linear-gradient-2"/><linearGradient id="linear-gradient-6" x1="-2868.8465" y1="103.2327" x2="-2820.8489" y2="103.2327" gradientTransform="matrix(1, 0, 0, -1, 3441.037, 731.7775)" xlink:href="#linear-gradient-2"/><linearGradient id="linear-gradient-7" x1="-3061.5869" y1="166.9795" x2="-3042.0878" y2="166.9795" gradientTransform="matrix(1, 0, 0, -1, 3431.9127, 781.2719)" xlink:href="#linear-gradient-2"/><linearGradient id="linear-gradient-8" x1="-3031.9814" y1="84.6619" x2="-2977.3413" y2="84.6619" gradientTransform="matrix(1, 0, 0, -1, 3449.638, 768.1612)" xlink:href="#linear-gradient-2"/><linearGradient id="linear-gradient-9" x1="-2976.3069" y1="204.4324" x2="-2913.31" y2="204.4324" gradientTransform="matrix(1, 0, 0, -1, 3420.3789, 757.5808)" xlink:href="#linear-gradient-2"/><linearGradient id="linear-gradient-10" x1="-2784.3506" y1="129.8562" x2="-2725.1036" y2="129.8562" gradientTransform="matrix(1, 0, 0, -1, 3432.4592, 711.6964)" xlink:href="#linear-gradient-2"/><linearGradient id="linear-gradient-11" x1="-3023.3388" y1="249.123" x2="-2965.6369" y2="249.123" gradientTransform="matrix(1, 0, 0, -1, 3411.4056, 770.2534)" xlink:href="#linear-gradient-2"/><linearGradient id="linear-gradient-12" x1="-3089.0792" y1="128.8192" x2="-3047.0813" y2="128.8192" gradientTransform="matrix(1, 0, 0, -1, 3441.1587, 783.9905)" xlink:href="#linear-gradient-2"/><linearGradient id="linear-gradient-13" x1="-3040.5879" y1="200.3189" x2="-3006.0896" y2="200.3189" gradientTransform="matrix(1, 0, 0, -1, 3423.4485, 775.5946)" xlink:href="#linear-gradient-2"/><linearGradient id="linear-gradient-14" x1="-2985.2414" y1="153.0715" x2="-2961.5742" y2="153.0715" gradientTransform="matrix(1, 0, 0, -1, 3433.0052, 762.7949)" xlink:href="#linear-gradient-2"/><linearGradient id="linear-gradient-15" x1="-2894.3017" y1="59.7567" x2="-2855.3472" y2="59.7567" gradientTransform="matrix(1, 0, 0, -1, 3451.8807, 737.5224)" xlink:href="#linear-gradient-2"/><linearGradient id="linear-gradient-16" x1="-2876.846" y1="157.1049" x2="-2833.098" y2="157.1049" gradientTransform="matrix(1, 0, 0, -1, 3428.8766, 735.5687)" xlink:href="#linear-gradient-2"/><linearGradient id="linear-gradient-17" x1="-2906.3445" y1="182.9782" x2="-2874.846" y2="182.9782" gradientTransform="matrix(1, 0, 0, -1, 3423.8669, 744.4891)" xlink:href="#linear-gradient-2"/><linearGradient id="linear-gradient-18" x1="-2976.3409" y1="59.1199" x2="-2944.9329" y2="59.1199" gradientTransform="matrix(1, 0, 0, -1, 3454.3445, 757.3107)" xlink:href="#linear-gradient-2"/><linearGradient id="linear-gradient-19" x1="-3110.8077" y1="160.3157" x2="-3080.8998" y2="160.3157" gradientTransform="matrix(1, 0, 0, -1, 3434.6391, 791.251)" xlink:href="#linear-gradient-2"/><linearGradient id="linear-gradient-20" x1="-2797.6001" y1="88.9834" x2="-2766.1016" y2="88.9834" gradientTransform="matrix(1, 0, 0, -1, 3442.6249, 716.8531)" xlink:href="#linear-gradient-2"/><linearGradient id="linear-gradient-21" x1="-2828.3485" y1="146.3555" x2="-2796.8501" y2="146.3555" gradientTransform="matrix(1, 0, 0, -1, 3430.2136, 725.4988)" xlink:href="#linear-gradient-2"/><linearGradient id="linear-gradient-22" x1="-2727.8794" y1="158.9933" x2="-2697.8809" y2="158.9933" gradientTransform="matrix(1, 0, 0, -1, 3424.6045, 702.8248)" xlink:href="#linear-gradient-2"/><linearGradient id="linear-gradient-23" x1="-2704.6256" y1="181.1967" x2="-2688.3763" y2="181.1967" gradientTransform="matrix(1, 0, 0, -1, 3419.0377, 699.644)" xlink:href="#linear-gradient-2"/><linearGradient id="linear-gradient-24" x1="-2812.5993" y1="110.4026" x2="-2796.8501" y2="110.4026" gradientTransform="matrix(1, 0, 0, -1, 3438.2989, 722.7107)" xlink:href="#linear-gradient-2"/><linearGradient id="linear-gradient-25" x1="-2694.8809" y1="195.8485" x2="-2682.8299" y2="195.8485" gradientTransform="matrix(1, 0, 0, -1, 3415.4496, 698.2749)" xlink:href="#linear-gradient-2"/><linearGradient id="linear-gradient-26" x1="-3061.5869" y1="270.5987" x2="-3029.3385" y2="270.5987" gradientTransform="matrix(1, 0, 0, -1, 3407.8253, 782.5983)" xlink:href="#linear-gradient-2"/><linearGradient id="linear-gradient-27" x1="-2994.4878" y1="193.2112" x2="-2980.2724" y2="193.2112" gradientTransform="matrix(1, 0, 0, -1, 3424.1182, 767.1034)" xlink:href="#linear-gradient-2"/><linearGradient id="linear-gradient-28" x1="-2934.9564" y1="52.264" x2="-2907.5714" y2="52.264" gradientTransform="matrix(1, 0, 0, -1, 3454.8638, 748.0383)" xlink:href="#linear-gradient-2"/><linearGradient id="linear-gradient-29" x1="-2988.0004" y1="120.4002" x2="-2971.043" y2="120.4002" gradientTransform="matrix(1, 0, 0, -1, 3440.7108, 763.3239)" xlink:href="#linear-gradient-2"/><linearGradient id="linear-gradient-30" x1="-2975.0432" y1="94.7191" x2="-2961.0889" y2="94.7191" gradientTransform="matrix(1, 0, 0, -1, 3446.3287, 759.9865)" xlink:href="#linear-gradient-2"/><linearGradient id="linear-gradient-31" x1="-2849.5753" y1="57.3318" x2="-2835.621" y2="57.3318" gradientTransform="matrix(1, 0, 0, -1, 3451.5702, 730.0191)" xlink:href="#linear-gradient-2"/><linearGradient id="linear-gradient-32" x1="-2828.3485" y1="67.6383" x2="-2797.6001" y2="67.6383" gradientTransform="matrix(1, 0, 0, -1, 3448.3917, 723.4601)" xlink:href="#linear-gradient-2"/><linearGradient id="linear-gradient-33" x1="-3045.4627" y1="237.7967" x2="-3031.9814" y2="237.7967" gradientTransform="matrix(1, 0, 0, -1, 3415.214, 780.1569)" xlink:href="#linear-gradient-2"/><linearGradient id="linear-gradient-34" x1="-7250.8251" y1="759.6882" x2="-7331.5209" y2="765.7886" gradientTransform="matrix(-1, 0, 0, 1, -6624.8638, -375.5675)" xlink:href="#linear-gradient-2"/><linearGradient id="linear-gradient-35" x1="-7238.7994" y1="643.4867" x2="-7263.0564" y2="645.3205" gradientTransform="matrix(-1, 0, 0, 1, -6649.7541, -363.9105)" xlink:href="#linear-gradient-2"/><linearGradient id="linear-gradient-36" x1="-7082.8051" y1="659.0012" x2="-7169.5573" y2="665.5595" gradientTransform="matrix(-1, 0, 0, 1, -6642.831, -337.078)" xlink:href="#linear-gradient-2"/><linearGradient id="linear-gradient-37" x1="-7193.0875" y1="689.6666" x2="-7242.3563" y2="693.3912" gradientTransform="matrix(-1, 0, 0, 1, -6638.6516, -357.7923)" xlink:href="#linear-gradient-2"/><linearGradient id="linear-gradient-38" x1="-7025.7534" y1="644.7219" x2="-7073.6167" y2="648.3403" gradientTransform="matrix(-1, 0, 0, 1, -6644.4238, -319.9782)" xlink:href="#linear-gradient-2"/><linearGradient id="linear-gradient-39" x1="-7246.9525" y1="709.543" x2="-7266.3969" y2="711.0129" gradientTransform="matrix(-1, 0, 0, 1, -6635.4955, -366.7592)" xlink:href="#linear-gradient-2"/><linearGradient id="linear-gradient-40" x1="-7182.2551" y1="625.9007" x2="-7236.7423" y2="630.0198" gradientTransform="matrix(-1, 0, 0, 1, -6652.3464, -354.4582)" xlink:href="#linear-gradient-2"/><linearGradient id="linear-gradient-41" x1="-7118.2356" y1="745.3563" x2="-7181.0561" y2="750.1054" gradientTransform="matrix(-1, 0, 0, 1, -6624.7222, -344.2724)" xlink:href="#linear-gradient-2"/><linearGradient id="linear-gradient-42" x1="-6932.1787" y1="679.6023" x2="-6991.2599" y2="684.0687" gradientTransform="matrix(-1, 0, 0, 1, -6634.5809, -301.6059)" xlink:href="#linear-gradient-2"/><linearGradient id="linear-gradient-43" x1="-7170.555" y1="790.2465" x2="-7228.0954" y2="794.5964" gradientTransform="matrix(-1, 0, 0, 1, -6616.1557, -356.2108)" xlink:href="#linear-gradient-2"/><linearGradient id="linear-gradient-44" x1="-7254.087" y1="673.4586" x2="-7295.9673" y2="676.6247" gradientTransform="matrix(-1, 0, 0, 1, -6643.6405, -369.9184)" xlink:href="#linear-gradient-2"/><linearGradient id="linear-gradient-45" x1="-7210.9753" y1="742.317" x2="-7245.377" y2="744.9177" gradientTransform="matrix(-1, 0, 0, 1, -6627.5199, -361.3366)" xlink:href="#linear-gradient-2"/><linearGradient id="linear-gradient-46" x1="-7167.4554" y1="700.1967" x2="-7186.152" y2="701.6101" gradientTransform="matrix(-1, 0, 0, 1, -6635.6134, -349.0759)" xlink:href="#linear-gradient-2"/><linearGradient id="linear-gradient-47" x1="-7060.239" y1="601.5868" x2="-7099.0845" y2="604.5234" gradientTransform="matrix(-1, 0, 0, 1, -6654.6507, -325.4789)" xlink:href="#linear-gradient-2"/><linearGradient id="linear-gradient-48" x1="-7037.9966" y1="698.7543" x2="-7081.6222" y2="702.0523" gradientTransform="matrix(-1, 0, 0, 1, -6632.8942, -323.4935)" xlink:href="#linear-gradient-2"/><linearGradient id="linear-gradient-49" x1="-7079.7275" y1="725.0893" x2="-7111.1378" y2="727.4639" gradientTransform="matrix(-1, 0, 0, 1, -6628.1006, -331.9048)" xlink:href="#linear-gradient-2"/><linearGradient id="linear-gradient-50" x1="-7149.8142" y1="601.2345" x2="-7181.1343" y2="603.6022" gradientTransform="matrix(-1, 0, 0, 1, -6656.8645, -344.2187)" xlink:href="#linear-gradient-2"/><linearGradient id="linear-gradient-51" x1="-7284.7797" y1="702.5238" x2="-7314.6039" y2="704.7784" gradientTransform="matrix(-1, 0, 0, 1, -6637.9839, -376.0008)" xlink:href="#linear-gradient-2"/><linearGradient id="linear-gradient-52" x1="-6970.9831" y1="631.0946" x2="-7002.3934" y2="633.4691" gradientTransform="matrix(-1, 0, 0, 1, -6646.0151, -305.8651)" xlink:href="#linear-gradient-2"/><linearGradient id="linear-gradient-53" x1="-7001.7315" y1="688.4667" x2="-7033.1418" y2="690.8412" gradientTransform="matrix(-1, 0, 0, 1, -6634.2192, -313.9726)" xlink:href="#linear-gradient-2"/><linearGradient id="linear-gradient-54" x1="-6906.5466" y1="707.1329" x2="-6936.4611" y2="709.3943" gradientTransform="matrix(-1, 0, 0, 1, -6627.8325, -293.4554)" xlink:href="#linear-gradient-2"/><linearGradient id="linear-gradient-55" x1="-6893.2364" y1="723.8827" x2="-6909.4403" y2="725.1076" gradientTransform="matrix(-1, 0, 0, 1, -6623.7974, -289.4404)" xlink:href="#linear-gradient-2"/><linearGradient id="linear-gradient-56" x1="-7001.7095" y1="653.1073" x2="-7017.4146" y2="654.2946" gradientTransform="matrix(-1, 0, 0, 1, -6641.8867, -311.3823)" xlink:href="#linear-gradient-2"/><linearGradient id="linear-gradient-57" x1="-6887.6841" y1="738.6926" x2="-6899.7014" y2="739.6011" gradientTransform="matrix(-1, 0, 0, 1, -6620.4103, -288.1236)" xlink:href="#linear-gradient-2"/><linearGradient id="linear-gradient-58" x1="-7234.221" y1="812.6816" x2="-7266.3791" y2="815.1126" gradientTransform="matrix(-1, 0, 0, 1, -6612.6944, -367.8711)" xlink:href="#linear-gradient-2"/><linearGradient id="linear-gradient-59" x1="-7185.1297" y1="735.9738" x2="-7199.3053" y2="737.0455" gradientTransform="matrix(-1, 0, 0, 1, -6628.204, -353.3056)" xlink:href="#linear-gradient-2"/><linearGradient id="linear-gradient-60" x1="-7112.4471" y1="594.5302" x2="-7139.7554" y2="596.5947" gradientTransform="matrix(-1, 0, 0, 1, -6657.411, -335.4476)" xlink:href="#linear-gradient-2"/><linearGradient id="linear-gradient-61" x1="-7179.0835" y1="668.0268" x2="-7192.9988" y2="669.0787" gradientTransform="matrix(-1, 0, 0, 1, -6642.9073, -350.3127)" xlink:href="#linear-gradient-2"/><linearGradient id="linear-gradient-62" x1="-7002.4805" y1="609.7777" x2="-7033.1429" y2="612.0957" gradientTransform="matrix(-1, 0, 0, 1, -6651.4327, -312.1514)" xlink:href="#linear-gradient-2"/><linearGradient id="linear-gradient-63" x1="-7236.8377" y1="780.587" x2="-7250.2812" y2="781.6033" gradientTransform="matrix(-1, 0, 0, 1, -6619.7006, -365.6048)" xlink:href="#linear-gradient-2"/><linearGradient id="linear-gradient-64" x1="-7233.0466" y1="666.0305" x2="-7246.9619" y2="667.0825" gradientTransform="matrix(-1, 0, 0, 1, -6644.6483, -362.0586)" xlink:href="#linear-gradient-2"/></defs><title>CSE-Fest-2020-Logo-Final</title><ellipse class="cls-1" cx="499.5033" cy="479.513" rx="244.1317" ry="252.1961" transform="translate(-370.9809 -63.3992) rotate(-16.7231)"/><ellipse class="cls-2" cx="499.3872" cy="479.1268" rx="238.1003" ry="245.9655" transform="translate(-370.8747 -63.4489) rotate(-16.7231)"/><circle class="cls-3" cx="334.4006" cy="571.2105" r="40.4611" transform="translate(-376.9358 -134.8076) rotate(-13.3442)"/><circle class="cls-4" cx="398.5352" cy="681.0246" r="12.1625" transform="translate(-400.5494 -117.0404) rotate(-13.3442)"/><circle class="cls-5" cx="518.1236" cy="630.8762" r="43.4978" transform="translate(-385.7464 -90.7933) rotate(-13.3442)"/><circle class="cls-6" cx="422.3038" cy="623.545" r="24.7035" transform="translate(-386.6413 -113.1065) rotate(-13.3442)"/><circle class="cls-7" cx="596.1893" cy="628.5448" r="23.9988" transform="translate(-383.1006 -72.8386) rotate(-13.3442)"/><circle class="cls-8" cx="380.0754" cy="614.2924" r="9.7495" transform="translate(-385.646 -123.1027) rotate(-13.3442)"/><circle class="cls-9" cx="444.9766" cy="683.4994" r="27.3201" transform="translate(-399.8667 -106.2549) rotate(-13.3442)"/><circle class="cls-10" cx="475.5705" cy="553.1484" r="31.4984" transform="translate(-368.9556 -102.7132) rotate(-13.3442)"/><circle class="cls-11" cx="677.7321" cy="581.8402" r="29.6235" transform="translate(-370.1196 -55.2795) rotate(-13.3442)"/><circle class="cls-12" cx="416.9178" cy="521.1304" r="28.8509" transform="translate(-363.1494 -117.1147) rotate(-13.3442)"/><circle class="cls-13" cx="373.0784" cy="655.1713" r="20.999" transform="translate(-395.2697 -123.6139) rotate(-13.3442)"/><circle class="cls-14" cx="400.1098" cy="575.2757" r="17.2491" transform="translate(-376.1 -119.5321) rotate(-13.3442)"/><circle class="cls-15" cx="459.5974" cy="609.7234" r="11.8336" transform="translate(-382.4444 -104.8723) rotate(-13.3442)"/><circle class="cls-16" cx="577.0563" cy="677.7657" r="19.4772" transform="translate(-394.9774 -75.9257) rotate(-13.3442)"/><circle class="cls-17" cx="573.9046" cy="578.4638" r="21.874" transform="translate(-372.1435 -79.3341) rotate(-13.3442)"/><circle class="cls-18" cx="533.2716" cy="561.511" r="15.7492" transform="translate(-369.3278 -89.1699) rotate(-13.3442)"/><circle class="cls-19" cx="493.7076" cy="698.1908" r="15.704" transform="translate(-401.9418 -94.6111) rotate(-13.3442)"/><circle class="cls-20" cx="338.7854" cy="630.9353" r="14.9539" transform="translate(-390.6019 -132.1831) rotate(-13.3442)"/><circle class="cls-21" cx="660.7741" cy="627.8697" r="15.7492" transform="translate(-381.201 -57.9507) rotate(-13.3442)"/><circle class="cls-22" cx="617.6143" cy="579.1433" r="15.7492" transform="translate(-371.1202 -69.2275) rotate(-13.3442)"/><circle class="cls-23" cx="711.7243" cy="543.8316" r="14.9993" transform="translate(-360.4294 -48.4603) rotate(-13.3442)"/><circle class="cls-24" cx="722.5367" cy="518.4472" r="8.1246" transform="translate(-354.2788 -46.6501) rotate(-13.3442)"/><circle class="cls-25" cx="633.5742" cy="612.3081" r="7.8746" transform="translate(-378.3438 -64.6486) rotate(-13.3442)"/><circle class="cls-26" cx="726.5942" cy="502.4265" r="6.0255" transform="translate(-350.4716 -46.1462) rotate(-13.3442)"/><circle class="cls-27" cx="362.3626" cy="511.9996" r="16.1242" transform="translate(-362.515 -129.9526) rotate(-13.3442)"/><circle class="cls-28" cx="436.738" cy="573.8922" r="7.1077" transform="translate(-374.7917 -111.1156) rotate(-13.3442)"/><circle class="cls-29" cx="533.5999" cy="695.7743" r="13.6925" transform="translate(-400.307 -85.4692) rotate(-13.3442)"/><circle class="cls-30" cx="461.1891" cy="642.9236" r="8.4787" transform="translate(-390.0641 -103.6085) rotate(-13.3442)"/><circle class="cls-31" cx="478.2627" cy="665.2674" r="6.9772" transform="translate(-394.7601 -99.0647) rotate(-13.3442)"/><circle class="cls-32" cx="608.9721" cy="672.6872" r="6.9772" transform="translate(-392.9436 -68.6966) rotate(-13.3442)"/><circle class="cls-33" cx="635.4174" cy="655.8219" r="15.3742" transform="translate(-388.337 -63.0483) rotate(-13.3442)"/><circle class="cls-34" cx="376.4919" cy="542.3602" r="6.7406" transform="translate(-369.1407 -125.8718) rotate(-13.3442)"/><circle class="cls-35" cx="666.3092" cy="387.171" r="40.4611" transform="translate(-322.6398 -72.4201) rotate(-12.6245)"/><circle class="cls-36" cx="601.1738" cy="280.493" r="12.1625" transform="translate(-300.8989 -89.2353) rotate(-12.6245)"/><circle class="cls-37" cx="483.3502" cy="325.2023" r="43.4978" transform="translate(-313.5192 -113.9059) rotate(-12.6245)"/><circle class="cls-38" cx="579.0703" cy="333.7365" r="24.7035" transform="translate(-313.0702 -92.779) rotate(-12.6245)"/><circle class="cls-39" cx="405.2613" cy="326.5529" r="23.9988" transform="translate(-315.7023 -130.9404) rotate(-12.6245)"/><circle class="cls-40" cx="621.1792" cy="343.5187" r="9.7495" transform="translate(-314.1902 -83.3391) rotate(-12.6245)"/><circle class="cls-41" cx="557.1524" cy="273.5021" r="27.3201" transform="translate(-300.4353 -99.0256) rotate(-12.6245)"/><circle class="cls-42" cx="524.9236" cy="403.4584" r="31.4984" transform="translate(-329.6178 -102.9277) rotate(-12.6245)"/><circle class="cls-43" cx="327.1384" cy="380.2295" r="29.6235" transform="translate(-329.3226 -146.7173) rotate(-12.6245)"/><circle class="cls-44" cx="583.1695" cy="436.2106" r="28.8509" transform="translate(-335.3679 -89.4056) rotate(-12.6245)"/><circle class="cls-45" cx="631.3867" cy="305.1233" r="20.999" transform="translate(-305.5517 -82.0365) rotate(-12.6245)"/><circle class="cls-46" cx="600.6563" cy="382.2808" r="17.2491" transform="translate(-323.1582 -86.8875) rotate(-12.6245)"/><circle class="cls-47" cx="541.1903" cy="351.8275" r="9.3745" transform="translate(-317.94 -100.6207) rotate(-12.6245)"/><circle class="cls-48" cx="425.0111" cy="277.5762" r="19.4772" transform="translate(-304.5204 -127.808) rotate(-12.6245)"/><circle class="cls-49" cx="426.9152" cy="376.9099" r="21.874" transform="translate(-326.1848 -124.9903) rotate(-12.6245)"/><circle class="cls-50" cx="467.332" cy="394.3718" r="15.7492" transform="translate(-329.0242 -115.7346) rotate(-12.6245)"/><circle class="cls-51" cx="508.6098" cy="258.1996" r="15.704" transform="translate(-298.2644 -110.0051) rotate(-12.6245)"/><circle class="cls-52" cx="661.7079" cy="327.6503" r="14.9539" transform="translate(-309.7421 -74.8648) rotate(-12.6245)"/><circle class="cls-53" cx="340.6732" cy="326.4167" r="15.7492" transform="translate(-317.2341 -145.0601) rotate(-12.6245)"/><circle class="cls-54" cx="383.2175" cy="375.6814" r="15.7492" transform="translate(-326.9728 -134.5706) rotate(-12.6245)"/><circle class="cls-55" cx="293.6714" cy="414.8082" r="14.9993" transform="translate(-337.6893 -153.1959) rotate(-12.6245)"/><circle class="cls-56" cx="277.5409" cy="435.0547" r="8.1246" transform="translate(-342.5044 -156.2318) rotate(-12.6245)"/><circle class="cls-57" cx="367.6754" cy="342.3187" r="7.8746" transform="translate(-320.0568 -138.7741) rotate(-12.6245)"/><circle class="cls-58" cx="273.2825" cy="451.0232" r="6.0255" transform="translate(-346.0974 -156.7765) rotate(-12.6245)"/><circle class="cls-59" cx="637.6057" cy="446.026" r="16.1242" transform="translate(-336.1971 -77.2707) rotate(-12.6245)"/><circle class="cls-60" cx="564.0135" cy="383.2041" r="7.1077" transform="matrix(0.9758, -0.2186, 0.2186, 0.9758, -324.2459, -94.8738)"/><circle class="cls-61" cx="468.6903" cy="260.1149" r="13.6925" transform="translate(-299.6481 -118.6836) rotate(-12.6245)"/><circle class="cls-62" cx="543.1338" cy="318.24" r="6.9772" transform="translate(-310.5521 -101.0079) rotate(-12.6245)"/><circle class="cls-63" cx="366.3789" cy="298.7853" r="15.3742" transform="translate(-310.5734 -140.1099) rotate(-12.6245)"/><circle class="cls-64" cx="623.8588" cy="415.4903" r="6.7406" transform="translate(-329.8556 -81.0134) rotate(-12.6245)"/><circle class="cls-65" cx="595.356" cy="304.4979" r="6.9772" transform="translate(-306.2861 -89.9265) rotate(-12.6245)"/><path id="dance" class="cls-66" d="M525.2067,642.08a1.8319,1.8319,0,0,0,0,.2009c.0577.5351.1038,1.0719.1815,1.6041.0722.4943.1833.9828.267,1.4757a.8926.8926,0,0,1-.0057.3682,5.0324,5.0324,0,0,1-1.2394,2.3541c-.3579.3576-.6875.7447-1.0572,1.089-.709.66-1.4146,1.3275-2.1648,1.9389a17.7378,17.7378,0,0,0-1.9827,1.6183,3.8117,3.8117,0,0,1-1.6411,1.0362,1.522,1.522,0,0,0-.8481.6485c-.2027.328-.367.6795-.5626,1.0122-.2937.5-.6338,1.0322-1.2908.9185a3.6865,3.6865,0,0,0-1.0625.01,1.4706,1.4706,0,0,0-1.1542.4669.5666.5666,0,0,1-.2043.1652.9517.9517,0,0,0-.4759.58,4.06,4.06,0,0,1-.224.5084c-.1366.2441-.2922.4776-.4418.7144a3.9721,3.9721,0,0,0-.4351.7026,8.6459,8.6459,0,0,0-.2081.98,1.1632,1.1632,0,0,1-.4217.7946,1.2381,1.2381,0,0,1-1.9248-.478,5.8374,5.8374,0,0,1-.4678-1.99c-.0467-1.1176-.0442-2.2375-.0544-3.3565-.007-.7688-.0363-1.54.0126-2.3057a5.62,5.62,0,0,1,.298-1.5108c.27-.7577.199-.6713.9046-.46.1822.0545.4841.064.5842-.043a1.0209,1.0209,0,0,1,.5487-.3164,3.1186,3.1186,0,0,1,2.11-.15,1.6674,1.6674,0,0,1-.0345-.2343c.0013-.1687-.052-.4235.033-.4864a.751.751,0,0,1,.5546-.09,2.7925,2.7925,0,0,1,.7979.3278.3519.3519,0,0,0,.4992-.0735c.2817-.2636.6007-.4883.8734-.76a2.8938,2.8938,0,0,0,.6589-.8088,1.9951,1.9951,0,0,1,.82-.9936c.15-.0888.3519-.2258.3756-.3669a1.31,1.31,0,0,1,.5673-.79c.054-.0455.1252-.1168.1237-.1745a1.6366,1.6366,0,0,1,.6557-1.2189.811.811,0,0,1,.8347-.2565,3.993,3.993,0,0,0,.7791.0481l-.2071-.8224a.5236.5236,0,0,1-.6119-.1507,14.6669,14.6669,0,0,1-1.3934-2.2143c-.4806-.8106-.4942-1.79-.9782-2.5955a.4216.4216,0,0,1-.03-.1009c-.077-.2677-.1533-.5355-.2314-.8029-.0618-.2116-.1286-.4218-.1882-.6341a4.5563,4.5563,0,0,0-.2578-.9033,5.5516,5.5516,0,0,1-.5476-1.9686c-.0631-.5161-.1193-1.033-.18-1.5494-.1126-.9627-.2328-1.9247-.3362-2.8884a2.09,2.09,0,0,0-.4285-1.38.2232.2232,0,0,1-.0512-.1178.9841.9841,0,0,0-.8686-.8347c-.1632-.0376-.33-.059-.4922-.1017a.4077.4077,0,0,1-.3569-.545,2.4079,2.4079,0,0,1,.0586-.31c.2483-.8429.5046-1.6834.75-2.5271q.9552-3.2847,1.9033-6.5715c.2661-.9195.5667-1.831.7844-2.7618a2.0179,2.0179,0,0,0-.17-1.6385c-.1907-.2868-.4037-.5586-.6006-.8414a1.4518,1.4518,0,0,0-.589-.504,7.7981,7.7981,0,0,1-1.0458-.6128.8988.8988,0,0,1-.4858-.7211c.0028-.6531.01-1.3077.057-1.9587.0358-.4952-.0123-.5831-.4776-.7757a14.7983,14.7983,0,0,0-2.1211-.6938,8.84,8.84,0,0,1-1.77-.7693c-.6531-.3271-1.27-.7284-1.93-1.04-1.11-.5249-2.2441-1-3.3631-1.5073a.4647.4647,0,0,0-.5453.0293c-.28.2064-.4369.1331-.5111-.1409a1.72,1.72,0,0,1-.4337-.0368c-.0353-.0117-.0141-.1948-.0206-.338a.5656.5656,0,0,0-.2342.0046.4966.4966,0,0,1-.5226-.0506,1.3539,1.3539,0,0,0-.2815-.0986c-.1162-.0429-.28-.0581-.3355-.1428-.1114-.1708-.2106-.1239-.3565-.0775a2.9422,2.9422,0,0,1-.61.127c-.3395.0322-.6844.0159-1.0215.0616-.2927.04-.5388-.0195-.5652-.2416-.0244-.2055-.1475-.2324-.2939-.2754-.2929-.0861-.3582-.3112-.14-.5279.0824-.0819.2182-.1074.318-.1756.0871-.06.2293-.154.22-.2133a.4555.4555,0,0,0-.2073-.2772,4.3563,4.3563,0,0,0-.5113-.212,2.9418,2.9418,0,0,0-.5186-.2339c-.9051-.19-1.8143-.36-2.7227-.5341-.1779-.034-.3276-.1128-.26-.3079a.3808.3808,0,0,1,.2993-.1622q.9666-.0139,1.9338.0118c.8807.0219,1.7609.0615,2.6415.0869a4.0176,4.0176,0,0,1,2.2.6536.5624.5624,0,0,0,.4891.0691c.3141-.0691.6915-.1815.874.2743.0251.0627.1621.0862.2513.1163.1532.0517.3095.0943.5.1513.2491-.15.43-.0922.5915.2182a.3016.3016,0,0,0,.1529.1474c.51.1462,1.0243.2746,1.5338.4209,1.0554.303,2.1011.6432,3.1647.9132a12.8106,12.8106,0,0,1,3.2226,1.2426,6.0434,6.0434,0,0,0,2.3176,1.0092,16.3626,16.3626,0,0,1,2.4831.6726,10.2616,10.2616,0,0,0,1.404.3656,4.6566,4.6566,0,0,1,2.446.9586,3.88,3.88,0,0,0,1.7582.9288,3.3755,3.3755,0,0,1,1.4556.5859c.2325.1722.4689.3393.6994.5057a1.7271,1.7271,0,0,0,.7715-2.0675.9628.9628,0,0,1,.1037-.6207c.22-.442.481-.8638.7371-1.2868a.9175.9175,0,0,1,.2645-.2781,5.05,5.05,0,0,0,.4731-.2559,1.3655,1.3655,0,0,1,.8613-.4074,3.648,3.648,0,0,0,.55-.071,3.04,3.04,0,0,1,1.6476.1981,8.4178,8.4178,0,0,1,1.8739,1.17,1.6667,1.6667,0,0,1,.4692.4806c.1209.2051.13.4752.2458.6844a2.1118,2.1118,0,0,1,.304,1.3871c-.104.6562-.2064,1.3132-.3409,1.9634a.4833.4833,0,0,0,.0724.4652c.236.2735.4863.5359.7067.8214.1254.1624.2234.255.4267.119a.6837.6837,0,0,1,.3027-.0743c.2824-.0286.3439-.1359.2127-.4022-.105-.2133-.2223-.4207-.3228-.636a3.66,3.66,0,0,1-.2564-.6341c-.0222-.0875.0773-.2058.1214-.31a.8155.8155,0,0,1,.228.1384c.2348.2861.447.5912.6882.8715a1.939,1.939,0,0,0,.376.2712l.087-.0667c-.0839-.3657-.1609-.7331-.2544-1.0963a.3828.3828,0,0,1,.2238-.4929c.0551.1016.11.1893.1519.2825a10.0708,10.0708,0,0,0,.61,1.3128,1.915,1.915,0,0,1,.4281.8368c.0077.0762.0918.1446.1408.2166.0552-.0824.1464-.16.1589-.2483.04-.2781.0568-.56.0689-.8411.0128-.2992.118-.4188.3965-.4.0346.3743.0772.7512.1024,1.1292.028.42.0408.8408.0585,1.2613a1.97,1.97,0,0,1-.0035.2388c-.0293.3671-.0739.7336-.0847,1.1011a1.0381,1.0381,0,0,0,.1253.3524,1.3132,1.3132,0,0,1,.1012.265c.0426.297.0739.5958.1018.8946.0086.0924.0292.218-.0189.2751a1.9478,1.9478,0,0,1-.4845.4543.503.503,0,0,0-.2641.4529c-.0632,1.0283-.1133,2.0575-.1758,3.0859a9.3167,9.3167,0,0,1-.1052,1.0717c-.1138.6374-.2815,1.2654-.386,1.904a7.1823,7.1823,0,0,1-.9739,2.9593.6148.6148,0,0,1-.6364.3186,3.2069,3.2069,0,0,1-2.1653-1.2012,14.0769,14.0769,0,0,0-2.8958-2.8132.3246.3246,0,0,0-.4581.0044c-.3629.2489-.7262.4975-1.0957.7364a10.8735,10.8735,0,0,0-1.2039.7687,9.6518,9.6518,0,0,0-1.9121,1.9159.35.35,0,0,0-.0677.2579c.1678.4537.3555.9.54,1.357l-.2938-.0025c.1824.1333.3012.233.4321.313a.7019.7019,0,0,1,.4169.6819.344.344,0,0,0,.0675.2183c.1742.2225.3567.4391.5445.65a.84.84,0,0,1,.2806.631c-.0038.0563.0623.1265.1112.1754a2.3537,2.3537,0,0,1,.4151.4015c.49.847.9461,1.7133,1.4351,2.5607.3484.6039.7262,1.1909,1.098,1.781.2493.3957.5237.776.7632,1.1773a1.5967,1.5967,0,0,1,.2506,1.1827.5737.5737,0,0,0,.135.5669,1.7052,1.7052,0,0,1,.31.5188q.5854,1.3005,1.1534,2.6089a13.0494,13.0494,0,0,1,.4866,1.2169,4.661,4.661,0,0,1,.1144.81c.0573.4378.1462.8743.1644,1.3137.0245.5908.0025,1.184-.0143,1.7758-.0163.5729-.0269,1.1476-.0838,1.7171-.0793.7935-.181,1.586-.31,2.373a3.8124,3.8124,0,0,1-.3357,1.17,13.8444,13.8444,0,0,1-.8782,1.2224,3.5638,3.5638,0,0,1-1.01,1.269c-.05.0291-.0943.18-.0711.2025.194.1908.2106.4581.3243.6779a2.83,2.83,0,0,0,.4749.5278,2.7512,2.7512,0,0,1,.1914.235,4.7279,4.7279,0,0,0,.4885.6664c.3558.34.7669.6216,1.1239.96a2.6538,2.6538,0,0,1,.78,1.33c.1343.5772-.1042.9488-.602,1.0147a5.8388,5.8388,0,0,1-1.6242.01,17.3772,17.3772,0,0,1-2.1411-.5169,8.4383,8.4383,0,0,1-3.462-2.0942c-.1057-.1-.2462-.2325-.2515-.3551-.0148-.34.0568-.6835.0512-1.0248-.01-.6241-.0514-1.2477-.0811-1.9035-.1513.1855-.2486.1029-.3731-.0224-.1776-.1787-.39-.3217-.5766-.4926a.5219.5219,0,0,1-.1907-.274,3.8406,3.8406,0,0,1,.0283-.6946.2271.2271,0,0,1,.115-.1571c.3846-.162.4565-.5.5162-.8571.0326-.195.0412-.4658.1671-.56a1.9333,1.9333,0,0,1,1.2316-.4076c.4318.0183.753-.2888.61-.7048a1.7934,1.7934,0,0,1,.2487-1.6517.8005.8005,0,0,0,.0914-.37,7.4874,7.4874,0,0,1,.0249-.7741,1.156,1.156,0,0,0-.1819-.9445.7144.7144,0,0,1,.0436-.9131,1.0911,1.0911,0,0,0,.09-.1941,1.0158,1.0158,0,0,0-.301.018c-.2984.1262-.4184-.0471-.5513-.2716-.2695-.4551-.5617-.8969-.8488-1.3414-.1439-.2229-.2972-.44-.4462-.6592Zm5.9112-25.87c.3871.4907.7852.9743,1.1416,1.4867a.87.87,0,0,1,.0827.5655.4715.4715,0,0,0,.1636.41c.2413.28.4878.5561.7138.8481a4,4,0,0,1,.3255.5395c.1021.1869.2064.2112.2936.0183a7.1342,7.1342,0,0,0,.4063-1.1043c.1787-.6752.323-1.36.4741-2.042a1.3477,1.3477,0,0,0-.6145-1.557,2.4936,2.4936,0,0,1-1.1649-1.7184.2134.2134,0,0,0-.243-.21,3.9384,3.9384,0,0,1-1.4507-.3639c-.3014-.1061-.5034.0282-.51.3444a.2967.2967,0,0,1-.0109.131,7.8649,7.8649,0,0,1-.4775.7851,1.4917,1.4917,0,0,1-.4069.2648C530.2549,615.1275,530.689,615.6669,531.1178,616.2105Z" transform="translate(-254.1286 -227.4095)"/><g id="football"><path class="cls-67" d="M667.7922,576.2964c.139.3083.2872.6129.4154.9258a12.6988,12.6988,0,0,1,.9955,2.5688,20.5845,20.5845,0,0,0,1.0717,3.481c.3377.9525.86,1.84,1.1939,2.7934a16.8777,16.8777,0,0,0,1.6885,3.1351c.6946,1.143,1.2785,2.3553,1.87,3.5573.16.3258.3329.39.6161.2538.2689-.1291.3855-.014.58.1825a7.2984,7.2984,0,0,0,1.4549,1.2179c.7908.4584,1.3692.1782,1.6666-.68.0285-.0822.0572-.1644.0961-.2763a1.4756,1.4756,0,0,1,1.0226.6674c.331.4761.6071.99.9388,1.4659a3.4138,3.4138,0,0,0,.7294.83.8383.8383,0,0,0,1.3841-.66,2.8193,2.8193,0,0,0-.8167-2.2832c-.2629-.2638-.5662-.4909-.8062-.773a6.4465,6.4465,0,0,1-.5849-.88c-.1065-.1779-.166-.3836-.2679-.5648a1.0851,1.0851,0,0,0-1.6819-.4641,2.0027,2.0027,0,0,1-.2845.0987c.0283-.1341.0184-.2378.0654-.2862a.8922.8922,0,0,0,.0679-1.1429,19.3742,19.3742,0,0,1-.97-2.3932,6.912,6.912,0,0,1,.6057.5366c.4888.5419.94,1.1186,1.4416,1.6478.728.768,1.0955.7925,1.9818.2125.4489-.2938.507-.2814.69.2228a4.0066,4.0066,0,0,0,1.3367,1.6936,35.4912,35.4912,0,0,1,3.2739,2.8987,5.3621,5.3621,0,0,1,.8564,2,7.6424,7.6424,0,0,1,.1779,1.28.4613.4613,0,0,0,.6043.4359,9.29,9.29,0,0,0,1.571-.5969.5812.5812,0,0,0,.2171-.8842c-.0882-.1552-.1944-.3011-.2714-.4614-.1436-.2986-.2584-.6115-.41-.9057a3.0092,3.0092,0,0,0-.5594-.9372,4.9336,4.9336,0,0,1-1.1084-1.6919c-.6264-1.2483-1.3022-2.4756-2.0273-3.6692a4.7015,4.7015,0,0,0-1.8233-1.7429.6078.6078,0,0,1-.3377-.6976.8685.8685,0,0,0-.1995-.6281c-.7652-.8545-1.5539-1.6885-2.3481-2.5165-.65-.6776-1.3206-1.3353-1.9775-2.0064a3.2493,3.2493,0,0,1-.2681-.35,8.8805,8.8805,0,0,0-.9082-1.2,8.44,8.44,0,0,0-1.5573-1.1925,1.7766,1.7766,0,0,1-.888-1.8078,5.46,5.46,0,0,0-.0738-1.63,9.0773,9.0773,0,0,1-.089-1.7127,7.4814,7.4814,0,0,1,2.8206.9544l.4008-.438a6.5429,6.5429,0,0,1,1.1391.8641,3.99,3.99,0,0,0,2.1642,1.2546c.2314.0577.4614.1214.6939.1741a.943.943,0,0,1,.8556.8814,1.2785,1.2785,0,0,0,1.163.9429c.1383-.01.2612-.2333.47-.4355.437-.0815.6178.0439.8034.6128a1.86,1.86,0,0,0,.2745.4159,1.7011,1.7011,0,0,0,.3535-.3531,1.3069,1.3069,0,0,0-.7681-1.9.6132.6132,0,0,0-.1281-.0393,3.9971,3.9971,0,0,1-2.4054-1.4931,7.9009,7.9009,0,0,0-3.0361-2.1549,6.6162,6.6162,0,0,1-.6314-.332l.109-.4276c-1.3737-.9331-2.7131-1.9048-4.1154-2.7753a5.3981,5.3981,0,0,0-3.5943-.6043c-.2207.0267-.44.0619-.7131.1006a2.9693,2.9693,0,0,1,.0021-1.7276c.1564-.3526-.0493-.8819-.1411-1.3214-.0418-.2-.2468-.3633-.3018-.564-.2317-.8463-.9982-1.2635-1.4848-1.9029-.4965.0285-.9739-.276-1.498.0129a1.8337,1.8337,0,0,0-.9026,1.1458,8.311,8.311,0,0,0-.1075,2.5028,1.91,1.91,0,0,0,1.1048,1.79.6436.6436,0,0,1-.0466,1.0986c-.7205.4735-1.4171.9833-2.13,1.4685a3.1252,3.1252,0,0,0-1.2767,1.9317c-.2989,1.2447-.5477,2.5016-.8079,3.7553-.0213.1026-.0017.2938.0554.32.4143.1884.3187.5331.2776.8484a4.892,4.892,0,0,0,.7811,3.31c.6859,1.1125,1.257,2.2962,1.8686,3.4539a2.1729,2.1729,0,0,1,.1263.4627q.2887,1.0956.5792,2.1908a.3612.3612,0,0,0,.07.1127,1.7809,1.7809,0,0,0,2.37.0282c-.5051-.4033-1.5611-.4775-.9979-1.5915l.7935,1.009a3.0131,3.0131,0,0,0-1.3869-2.7329,1.1216,1.1216,0,0,1-.6742-.7711c-.1375-.5177-.2656-1.04-.36-1.5668a7.665,7.665,0,0,0-1.0906-3.1414.5924.5924,0,0,1,.2266-.8568.9807.9807,0,0,0,.3257-.4851c.1131-.36.1736-.7364.2558-1.1061Z" transform="translate(-254.1286 -227.4095)"/><path class="cls-67" d="M673.1549,600.3641a2.5883,2.5883,0,1,0,1.7489-3.179A2.5857,2.5857,0,0,0,673.1549,600.3641Z" transform="translate(-254.1286 -227.4095)"/></g><g id="security"><path class="cls-68" d="M342.353,589.2587c1.1855-.1923,2.3011-.3587,3.4079-.571.14-.0269.2734-.2785.3432-.4526a1.7123,1.7123,0,0,1,1.6811-1.0935,1.6855,1.6855,0,0,1,1.5189,1.3618,1.6515,1.6515,0,0,1-.8906,1.7852,1.6044,1.6044,0,0,1-2.0482-.4825.5966.5966,0,0,0-.7034-.2623c-1.1136.1936-2.2326.3566-3.3459.5521-.4626.0812-.6809-.0811-.75-.5424-.1671-1.1179-.3579-2.2323-.5391-3.3481l-.0887-.5467-3.74,1.1884c.1607.9908.3111,2.0062.507,3.0128.0242.1244.28.2293.4474.2957a1.6648,1.6648,0,1,1-2.0389,2.3459,1.6234,1.6234,0,0,1,.5-2.1261.49.49,0,0,0,.2355-.5719c-.1685-.9471-.3138-1.8983-.4631-2.819l-4.0351.0517.0848.5229q.499,3.0767.9969,6.1536c.1186.7382.0993.763-.6175.88-1.4758.2419-2.9523.48-4.4183.7175-.4184,1.16-1.0063,1.6214-1.922,1.5212a1.656,1.656,0,0,1-.4041-3.189c.8174-.32,1.52-.0437,2.1712.866l4.359-.7071c-.0127-.1391-.0171-.2822-.04-.4223-.328-2.035-.6661-4.0685-.9805-6.1056a.5374.5374,0,0,0-.5085-.5292,15.9559,15.9559,0,0,1-10.4225-7.0906.5711.5711,0,0,0-.6767-.3206c-1.0085.1888-2.0246.3375-3.0971.5114.1942,1.1972.3728,2.3415.5773,3.4812.0175.0973.1964.1951.32.2393a1.6619,1.6619,0,1,1-1.9641,2.2822,1.6229,1.6229,0,0,1,.5732-2.0292.5.5,0,0,0,.2166-.5824q-.2862-1.6965-.5511-3.3967c-.088-.56-.0029-.68.5534-.7732,1.0961-.1837,2.1938-.3576,3.2858-.5347l-1.4132-3.707c-.7085.1149-1.4623.2179-2.2043.3764-.1253.0268-.2259.2822-.2927.45a1.6647,1.6647,0,1,1-2.3867-2.0179,1.6257,1.6257,0,0,1,2.1689.477.4843.4843,0,0,0,.5721.2331c.6653-.1242,1.3355-.2221,2.023-.3336-.08-.7116-.1743-1.3665-.22-2.0247-.0448-.6408-.04-1.2851-.0577-1.9763l-3.03.4915c-.9189.149-1.8408.2824-2.7555.4536-.4624.0865-.6694-.05-.74-.5259-.2251-1.5122-.4823-3.02-.7256-4.5194-1.21-.4946-1.6435-1.06-1.5231-1.9706a1.6945,1.6945,0,0,1,1.4681-1.4187,1.6727,1.6727,0,0,1,1.73,1.0773,1.7271,1.7271,0,0,1-.8926,2.1469l.3527,2.1743.3541,2.1832,5.8511-.9491c.1057-.5723.1866-1.1612.3252-1.7362a15.9491,15.9491,0,0,1,7.7265-10.4193c.3449-.2021.4655-.3844.3782-.7765-.13-.5819-.2-1.1769-.3-1.7926a2.3964,2.3964,0,0,0-.359,0c-.9852.1556-1.9721.3034-2.9515.49a.67.67,0,0,0-.417.37,1.7025,1.7025,0,0,1-1.7528,1.1935,1.6673,1.6673,0,0,1-.5154-3.1845,1.7025,1.7025,0,0,1,2.0422.58.6707.6707,0,0,0,.517.2066c1.0209-.1394,2.0364-.3176,3.0538-.4825,1.0507-.17,1.051-.17,1.2257.9026.0982.6025.1956,1.2051.2877,1.7731l3.7377-1.2006a11.7352,11.7352,0,0,0-.2275-1.2888c-.0372-.1335-.27-.2408-.4354-.3053a1.67,1.67,0,0,1,.2427-3.21,1.6655,1.6655,0,0,1,1.7695.8378,1.617,1.617,0,0,1-.4364,2.0991.5734.5734,0,0,0-.2757.6957c.0836.3515.1219.7138.1743,1.0366l4.0156-.0479c-.0147-.1248-.0286-.2968-.0559-.4667-.2485-1.5427-.5012-3.0848-.7485-4.6277-.0936-.5838-.04-.6551.554-.7522,1.5086-.2467,3.0177-.49,4.5149-.733.3555-1.1176.9211-1.5834,1.8258-1.5222a1.654,1.654,0,0,1,.5617,3.1614c-.8479.3647-1.5612.1024-2.255-.8356l-4.3493.7055.8529,5.2579c.1246.0291.28.0668.4359.1014a15.9624,15.9624,0,0,1,11.2579,8.64.56.56,0,0,0,.7216.3692c.7931-.1623,1.5974-.2693,2.4547-.4084-.1944-1.1987-.373-2.3432-.5776-3.483-.0174-.0971-.1967-.1946-.32-.2387a1.6614,1.6614,0,1,1,1.9641-2.2808,1.6227,1.6227,0,0,1-.5733,2.0289.5.5,0,0,0-.2159.583q.2863,1.6965.5527,3.3964c.0877.5594.0012.6786-.5548.7738-.7865.1346-1.5751.2568-2.3628.3843l-.4529.0735.9757,3.7758c.7029-.114,1.441-.2141,2.167-.37.126-.0271.2294-.28.295-.4474a1.6657,1.6657,0,1,1,.7279,2.0081,1.0473,1.0473,0,0,1-.4107-.3509c-.2021-.3905-.4851-.4037-.8651-.3232-.6146.13-1.24.2093-1.8112.302l-.1722,4.0713.6587-.1068c1.8542-.3007,3.71-.5927,5.5617-.9082.4625-.0788.669.0559.74.53.2251,1.5121.4823,3.0195.7316,4.556a1.7891,1.7891,0,0,1,1.4,1.0553,1.6583,1.6583,0,0,1-2.93,1.53,1.6133,1.6133,0,0,1,.3813-2.1845.6563.6563,0,0,0,.2877-.7782c-.2264-1.2726-.4217-2.5506-.6369-3.8772-.4626.075-.8842.1436-1.3058.2118-1.5754.2547-3.1493.5189-4.7274.7555a.5367.5367,0,0,0-.5223.4634,15.9728,15.9728,0,0,1-7.6893,10.0472c-.2689.1563-.381.2958-.3238.6183C341.9636,586.79,342.1468,587.988,342.353,589.2587Zm-5.74-3.2079a15.2877,15.2877,0,1,0-17.4836-12.4575A15.2552,15.2552,0,0,0,336.6125,586.0508ZM321.789,554.67a.84.84,0,0,0-1.6563.2826.84.84,0,1,0,1.6563-.2826Zm30.351,3.6439a.8355.8355,0,0,0-.9883-.68.84.84,0,0,0,.29,1.6552A.8326.8326,0,0,0,352.14,558.3136ZM317.45,586a.84.84,0,1,0-.2685-1.6581A.84.84,0,0,0,317.45,586Zm31.0538,2.6763a.84.84,0,1,0-1.6551.2807.8394.8394,0,0,0,1.6551-.2807Zm-17.56-37.6047a.8667.8667,0,0,0-.7257.9664.83.83,0,0,0,.9291.6987.8007.8007,0,0,0,.7416-.9272A.8376.8376,0,0,0,330.9438,551.0718ZM355.057,568.417a.8677.8677,0,0,0-.9856-.7.8345.8345,0,0,0-.6685.9969.8056.8056,0,0,0,.9415.668A.8388.8388,0,0,0,355.057,568.417Zm-39.8182,6.5322a.8038.8038,0,0,0-.96-.7016.839.839,0,0,0-.6979.9756.8653.8653,0,0,0,.9476.693A.8355.8355,0,0,0,315.2388,574.9491Zm22.2,15.9452a.8078.8078,0,0,0-.6852.9727.8381.8381,0,0,0,.9389.6884.8662.8662,0,0,0,.7255-.9669A.835.835,0,0,0,337.4393,590.8944Zm4.6566-41.6176a.8453.8453,0,1,0-.9769-.7061A.8482.8482,0,0,0,342.0959,549.2768Zm-30.31,14.787a.8491.8491,0,0,0-.9639-.7223.8447.8447,0,0,0,.2263,1.6739A.8523.8523,0,0,0,311.7857,564.0638Zm45.7532,14.5557a.8434.8434,0,1,0,.3243,1.655.8434.8434,0,0,0-.3243-1.655ZM327.511,595.0367a.8434.8434,0,1,0-1.6559.32.8434.8434,0,0,0,1.6559-.32Z" transform="translate(-254.1286 -227.4095)"/><path class="cls-69" d="M321.789,554.67a.84.84,0,1,1-1.6563.2826.84.84,0,0,1,1.6563-.2826Z" transform="translate(-254.1286 -227.4095)"/><path class="cls-69" d="M352.14,558.3136a.8326.8326,0,0,1-.6983.9748.84.84,0,0,1-.29-1.6552A.8355.8355,0,0,1,352.14,558.3136Z" transform="translate(-254.1286 -227.4095)"/><path class="cls-69" d="M317.45,586a.84.84,0,0,1-.2685-1.6581A.84.84,0,1,1,317.45,586Z" transform="translate(-254.1286 -227.4095)"/><path class="cls-69" d="M348.5034,588.6765a.8394.8394,0,0,1-1.6551.2807.84.84,0,1,1,1.6551-.2807Z" transform="translate(-254.1286 -227.4095)"/><path class="cls-69" d="M330.9438,551.0718a.8376.8376,0,0,1,.945.7379.8007.8007,0,0,1-.7416.9272.83.83,0,0,1-.9291-.6987A.8667.8667,0,0,1,330.9438,551.0718Z" transform="translate(-254.1286 -227.4095)"/><path class="cls-69" d="M355.057,568.417a.8388.8388,0,0,1-.7126.9652.8056.8056,0,0,1-.9415-.668.8345.8345,0,0,1,.6685-.9969A.8677.8677,0,0,1,355.057,568.417Z" transform="translate(-254.1286 -227.4095)"/><path class="cls-69" d="M315.2388,574.9491a.8355.8355,0,0,1-.71.9671.8653.8653,0,0,1-.9476-.693.839.839,0,0,1,.6979-.9756A.8038.8038,0,0,1,315.2388,574.9491Z" transform="translate(-254.1286 -227.4095)"/><path class="cls-69" d="M337.4393,590.8944a.835.835,0,0,1,.9792.6942.8662.8662,0,0,1-.7255.9669.8381.8381,0,0,1-.9389-.6884A.8078.8078,0,0,1,337.4393,590.8944Z" transform="translate(-254.1286 -227.4095)"/><path class="cls-69" d="M342.0959,549.2768a.8453.8453,0,0,1-.306-1.6624.8452.8452,0,1,1,.306,1.6624Z" transform="translate(-254.1286 -227.4095)"/><path class="cls-69" d="M311.7857,564.0638a.844.844,0,1,1-1.6758.2005.8394.8394,0,0,1,.7119-.9228A.8491.8491,0,0,1,311.7857,564.0638Z" transform="translate(-254.1286 -227.4095)"/><path class="cls-69" d="M357.5389,578.6194a.8434.8434,0,1,1-.68.9934A.852.852,0,0,1,357.5389,578.6194Z" transform="translate(-254.1286 -227.4095)"/><path class="cls-69" d="M327.511,595.0367a.8434.8434,0,0,1-1.6559.32.8434.8434,0,1,1,1.6559-.32Z" transform="translate(-254.1286 -227.4095)"/><path class="cls-68" d="M327.1981,568.5267a6.6355,6.6355,0,0,1,1.3277-6.1357,6.2672,6.2672,0,0,1,4.0071-2.2117,6.3509,6.3509,0,0,1,5.1524,1.4736,6.7408,6.7408,0,0,1,2.3425,4.7993c.1822-.0046.3116-.0051.4407-.0115a1.65,1.65,0,0,1,1.8261,1.2923,37.4113,37.4113,0,0,1,.7637,5.8657,8.3912,8.3912,0,0,1-7.1244,8.1471,8.4908,8.4908,0,0,1-9.3609-5.46,25.5332,25.5332,0,0,1-.7495-3.3969c-.1155-.57-.1878-1.1478-.2816-1.7218C325.2888,569.6172,325.634,569.04,327.1981,568.5267Zm6.5944-.2027q-3.2708.5306-6.5414,1.0621c-.8217.1344-1.1014.5325-.97,1.3606.073.4593.1344.921.2258,1.3767a29.7568,29.7568,0,0,0,.8395,3.9348,7.7183,7.7183,0,0,0,14.9283-3.1848c-.12-1.5189-.4272-3.0233-.6568-4.5332-.1414-.93-.5147-1.2-1.4315-1.0517Q336.9895,567.8053,333.7925,568.3239Zm5.3963-1.7112a5.714,5.714,0,1,0-11.1395,1.7957l1.4937-.2423c-.0454-.28-.081-.5226-.1246-.7639a4.1269,4.1269,0,0,1,8.0732-1.7125c.0861.38.1284.77.1929,1.167Zm-2.3326.372a3.5233,3.5233,0,0,0-2.1293-3.46,3.3533,3.3533,0,0,0-3.63.7522,3.4568,3.4568,0,0,0-.6856,3.7532Z" transform="translate(-254.1286 -227.4095)"/><path class="cls-68" d="M335.2222,577.8237c-.49-.0432-1-.0653-1.5011-.14a.5405.5405,0,0,1-.4861-.6812c.0288-.2133.03-.4306.0632-.6429a1.6906,1.6906,0,0,0-.5935-1.837,2.3212,2.3212,0,0,1-.0249-3.3149,2.4643,2.4643,0,0,1,3.338-.263,2.4062,2.4062,0,0,1,.5064,3.2953.7694.7694,0,0,0-.0687.935c.189.3675.319.765.5014,1.1363a.63.63,0,0,1-.3085.9514C336.2047,577.4748,335.732,577.6264,335.2222,577.8237Zm1.0077-1.1423c-.2758-.65-.4833-1.1908-.733-1.711a.6686.6686,0,0,1,.1614-.9153,1.53,1.53,0,0,0,.432-1.6405,1.6614,1.6614,0,0,0-1.69-1.2041,1.7025,1.7025,0,0,0-1.5464,1.3281,1.6191,1.6191,0,0,0,.9348,1.8423.6246.6246,0,0,1,.4171.7358c-.0679.6047-.1052,1.2129-.1637,1.9194Z" transform="translate(-254.1286 -227.4095)"/></g><g id="programming"><path class="cls-66" d="M509.7662,340.9085a6.0055,6.0055,0,0,1,1.6157.1019,5.7541,5.7541,0,0,1-1.4045.8538q-16.7382,4.37-33.492,8.68c-2.7418.7088-5.4788,1.4374-8.231,2.1028a3.3864,3.3864,0,0,1-1.2519-.2083,4.11,4.11,0,0,1,1.056-.75c1.3247-.4026,2.6769-.715,3.9705-1.0494a18.9122,18.9122,0,0,1-.8386-2.1137q-1.9757-7.5011-3.8931-15.0175c-.575-2.2361.0649-3.3345,2.2921-3.9118q13.8854-3.599,27.7753-7.1807c2.3019-.5937,3.3525.0442,3.9588,2.3817,1.247,4.807,2.4981,9.613,3.72,14.4263.2181.8592.3041,1.752.4728,2.7585C506.9037,341.6235,508.3233,341.21,509.7662,340.9085Zm-26.5656-7.6072c1.6465,2.4765,3.2722,4.9674,4.9656,7.4114.23.3318.8.428,1.2121.6333-.0244-.4558.1142-1.0155-.0993-1.3509q-2.4278-3.8141-4.996-7.5376a1.6248,1.6248,0,0,0-1.0827-.4427c-.1294-.0142-.3107.4421-.428.6219C482.98,332.959,483.0879,333.1317,483.2006,333.3013Zm-.9992,2.61c.1462-.28.008-.708-.0007-1.0686-.3656.1147-.8681.117-1.0715.3649-.6441.7845-1.1744,1.6623-1.7528,2.5012-.4214.6112-.2875,1.0552.38,1.3679.8855.4148,1.7438.9,2.6583,1.2332.3212.1169.7741-.128,1.1669-.2077-.2088-.3367-.3421-.7872-.6422-.9866a20.1139,20.1139,0,0,0-2.1136-1.09A24.5179,24.5179,0,0,0,482.2014,335.9109Zm8.0257,1.4c-.15.2838-.0089.7223,0,1.09.3579-.1.7212-.1849,1.07-.31.096-.0344.1485-.1887.2224-.2869,2.2931-3.047,2.0035-3.8954-1.7457-4.9584-.2654-.0752-.6207.1667-.9342.2612.1288.312.17.7634.4028.91.7216.4547,1.5163.7935,2.3819,1.2271A22.0417,22.0417,0,0,0,490.227,337.3108Z" transform="translate(-254.1286 -227.4095)"/><path class="cls-66" d="M470.2807,312.6889a9.4474,9.4474,0,1,1,11.4791,6.68A9.5134,9.5134,0,0,1,470.2807,312.6889Zm6.7819-4.1674a4.0583,4.0583,0,0,0-4.3519.8834,1.9486,1.9486,0,0,0-.5836,1.3805,7.0292,7.0292,0,0,0,4.508,6.2233,6.9139,6.9139,0,0,0,7.836-1.5255,7.0535,7.0535,0,0,0,1.8524-7.4651,7.4006,7.4006,0,0,0-.5534-1.1158A8.4142,8.4142,0,0,1,477.0626,308.5214Z" transform="translate(-254.1286 -227.4095)"/><path class="cls-66" d="M498.3648,321.1a5.2221,5.2221,0,0,0-2.8917-3.4342,9.3675,9.3675,0,0,0-7.2819-.4462,1.6443,1.6443,0,0,0-.69.4587c-3.2,3.53-7.0422,4.489-11.5737,3.041a4.02,4.02,0,0,0-2.1208.2278,8.2361,8.2361,0,0,0-5.196,4.02,4.7825,4.7825,0,0,0-.4971,3.9533Z" transform="translate(-254.1286 -227.4095)"/></g><path id="puzzle" class="cls-70" d="M685.0919,394.2395q.2106,3.5579.42,7.1159a1.3228,1.3228,0,0,1-1.38,1.5663c-3.1062.186-6.2128.3649-9.3187.556a1.2944,1.2944,0,0,1-1.3181-.6336,1.3227,1.3227,0,0,1,.099-1.4915,2.3575,2.3575,0,0,0-.3172-3.1558,5.8252,5.8252,0,0,0-2.5864-1.4556,10.3658,10.3658,0,0,0-4.9353-.2559,8.826,8.826,0,0,0-3.6532,1.48c-1.4676,1.0657-2.1988,2.6927-.8166,4.32a1.2567,1.2567,0,0,1-1.0253,2.0475c-2.9012.1809-5.8032.348-8.705.5182a1.32,1.32,0,0,1-1.5726-1.402q-.3205-5.4-.64-10.8c-.0093-.1565-.0255-.3132-.0238-.47a1.2735,1.2735,0,0,1,1.6119-1.2709,2.1362,2.1362,0,0,1,.8485.5731,3.9421,3.9421,0,0,0,6.6794-1.2837,5.6362,5.6362,0,0,0-.9087-6.3124,3.72,3.72,0,0,0-3.9335-1.2868,4.2352,4.2352,0,0,0-2.3751,1.7271,1.3491,1.3491,0,0,1-1.4812.5825,1.3644,1.3644,0,0,1-.9555-1.35q-.3309-5.5625-.6575-11.1253a1.6636,1.6636,0,0,1,.0157-.43,1.3115,1.3115,0,0,1,1.3882-1.0738q3.9549-.24,7.91-.47l.441-.0261c-.0627-.15-.0931-.2274-.1275-.3034a4.7426,4.7426,0,0,1-.2407-3.42,6.6331,6.6331,0,0,1,3.3177-3.8846,10.1824,10.1824,0,0,1,5.7727-1.2834,8.7275,8.7275,0,0,1,5.7075,2.3041,5.079,5.079,0,0,1,1.6043,4.9856c-.0437.2059-.1114.4066-.1828.663l.4433-.0263q3.883-.23,7.7662-.4575a2.7689,2.7689,0,0,1,.6838.0158,1.3414,1.3414,0,0,1,1.0338,1.3893q.2141,3.5577.4222,7.1158l.0245.4132c.069.0043.0958.0139.1153.0058.0776-.0322.1527-.07.229-.1057a4.7931,4.7931,0,0,1,3.3117-.3112,6.5479,6.5479,0,0,1,4.0748,3.3987,10.0949,10.0949,0,0,1,1.2617,5.85,8.5129,8.5129,0,0,1-2.7265,5.995,4.878,4.878,0,0,1-3.9247,1.3c-.46-.0535-.9121-.1774-1.4024-.276Zm-35.24-21.68.5961,10.0673c.1867-.1656.3491-.3153.5175-.458a5.4208,5.4208,0,0,1,7.0151-.164,7.432,7.432,0,0,1,.562,10.9272,5.4425,5.4425,0,0,1-7.2584.3356c-.0549-.0433-.1149-.08-.2155-.15l.5944,10.0388,7.8205-.4631a10.1885,10.1885,0,0,1-.4658-1.1661,4.16,4.16,0,0,1,1.185-4.1058,8.6564,8.6564,0,0,1,4.3408-2.3893,12.5306,12.5306,0,0,1,5.5221-.1817,7.8465,7.8465,0,0,1,4.4219,2.2043,3.95,3.95,0,0,1,.8793,4.5282,1.59,1.59,0,0,0-.0461.1695l8.5009-.5034L683.18,390.413c.4929.39.8934.7078,1.2952,1.024a4.1463,4.1463,0,0,0,2.0989.9763,3.5789,3.5789,0,0,0,3.2482-1.384,7.1491,7.1491,0,0,0,1.6333-4.2825,8.8744,8.8744,0,0,0-.9234-4.8022,5.6421,5.6421,0,0,0-2.1713-2.41,3.4034,3.4034,0,0,0-4.0341.3736c-.5514.4828-1.0614,1.0128-1.6653,1.5938l-.0279-.47q-.293-4.9487-.5862-9.8973c-.0284-.4789-.0289-.479-.5225-.45l-10.5114.6224-.4675.0277c.385-.5174.7269-.9618,1.0528-1.4177a3.4822,3.4822,0,0,0-.0868-4.5514,4.9187,4.9187,0,0,0-1.8355-1.38,8.7861,8.7861,0,0,0-8.3465.4835,4.408,4.408,0,0,0-2.2572,2.9564,3.2486,3.2486,0,0,0,.6929,2.78c.4515.5615.9624,1.0752,1.5083,1.6783Z" transform="translate(-254.1286 -227.4095)"/><g id="acoustic"><path class="cls-71" d="M331.97,358.676a10.5164,10.5164,0,0,1,1.2473.2308c.6818.2089,1.3487.4678,2.0175.7172a1.3137,1.3137,0,0,1,.839,1.7739c-.0764.2241-.1794.4391-.2669.65.7153.3965.883.6484.73,1.0533-.147.39-.4723.4871-1.1825.3394l-.1244.3181a7.579,7.579,0,0,1,.6713.72.5472.5472,0,0,1-.0142.4206c-.142.3921-.4563.4723-1.1808.3226a1.5315,1.5315,0,0,1-1.0361,1.154c-.0668.0209-.1259.125-.1539.203q-1.35,3.759-2.6909,7.5211a.0919.0919,0,0,0-.0035.0413c.6193.35,1.247.6664,1.8348,1.045a6.363,6.363,0,0,1,2.4039,2.61,4.4405,4.4405,0,0,1-.7016,4.8779c-.3719.3947-.75.7839-1.1376,1.1635a2.8586,2.8586,0,0,0-.7538,2.9591,32.2045,32.2045,0,0,1,.7778,3.7108,8.3371,8.3371,0,0,1-1.0521,5.2416,6.0927,6.0927,0,0,1-4.8239,3.0631,13.1862,13.1862,0,0,1-5.5952-.6131,23.0848,23.0848,0,0,1-5.1967-2.1619,9.9389,9.9389,0,0,1-3.4617-3.187,6.1311,6.1311,0,0,1-.4764-5.6364,10.241,10.241,0,0,1,3.933-4.8513c.4706-.3321.9239-.6886,1.3852-1.0339a2.6735,2.6735,0,0,0,1.0731-2.4988,18.8239,18.8239,0,0,1-.0978-2.2671,4.1978,4.1978,0,0,1,2.1037-3.3792,5.9022,5.9022,0,0,1,4.0887-.731c.6375.0776,1.2666.2239,1.9216.3431q.7281-2.0422,1.4593-4.0925c.404-1.1312.8117-2.261,1.2106-3.394.0382-.1086.0786-.2689.0282-.3478a1.4743,1.4743,0,0,1-.0955-1.4507,6.1963,6.1963,0,0,1-.66-.683.5892.5892,0,0,1,.0077-.4541c.1365-.385.4982-.4772,1.1957-.3045l.13-.42c-.6631-.3706-.8415-.6373-.7079-1.0252.1412-.41.4467-.5026,1.1062-.3735l.8175-1.3715ZM326.43,374.59a8.1438,8.1438,0,0,0-3.1046-.296,2.7931,2.7931,0,0,0-2.5539,3.1905,14.09,14.09,0,0,1,.11,1.6569,4.1356,4.1356,0,0,1-1.5474,3.433c-.5525.4485-1.1119.8909-1.6921,1.3022a8.5816,8.5816,0,0,0-3.2622,3.9786,4.3147,4.3147,0,0,0,.6584,4.5,9.2889,9.2889,0,0,0,2.7735,2.2542,22.0886,22.0886,0,0,0,4.27,1.7482,11.692,11.692,0,0,0,5.016.62,4.3456,4.3456,0,0,0,3.8566-2.9223,7.5173,7.5173,0,0,0,.35-4.1737c-.2316-1.14-.5381-2.2648-.7623-3.406a3.6754,3.6754,0,0,1,.6381-3.0038,18.5966,18.5966,0,0,1,1.64-1.8456,2.4873,2.4873,0,0,0,.66-2.7093c-.5441-1.584-1.9-2.3049-3.3034-2.99-.0544.1411-.0972.2453-.1351.3513-.58,1.6218-1.14,3.2511-1.75,4.8616a1.8177,1.8177,0,0,0-.0088,1.41,3.0691,3.0691,0,0,1-1.6911,3.8647,3.1518,3.1518,0,0,1-4.1424-1.5908,3.196,3.196,0,0,1,1.5881-4.1819.6774.6774,0,0,0,.3161-.3469c.4223-1.1365.8228-2.2811,1.2353-3.4213C325.8608,376.1179,326.1427,375.3666,326.43,374.59Zm6.4973-14.2058c-.16-.0679-.3078-.1892-.4282-.1663a.5525.5525,0,0,0-.3654.2832c-.433,1.1537-.8431,2.3161-1.2551,3.4777a.3909.3909,0,0,0,.2223.5594c.2739.1.4578-.0375.5516-.2982.41-1.1385.8192-2.277,1.221-3.4182A2.2307,2.2307,0,0,0,332.9268,360.3839Zm.2864,4.8452a2.4179,2.4179,0,0,0,.2323-.3787q.61-1.6724,1.2039-3.3509c.1227-.349.0384-.5654-.2293-.64-.3132-.0869-.4539.1083-.5459.3666q-.2731.7667-.5488,1.5326c-.2207.6174-.456,1.23-.65,1.856a.6216.6216,0,0,0,.1048.4851C332.8508,365.1928,333.0518,365.1864,333.2132,365.2291Z" transform="translate(-254.1286 -227.4095)"/><path class="cls-71" d="M319.2662,388.7865a1.8384,1.8384,0,0,1,.39.05q3.3292,1.182,6.6541,2.3762c.3573.1282.4369.2975.32.6563-.1055.3229-.2195.6431-.3366.9619a.43.43,0,0,1-.6168.2922q-3.358-1.204-6.7163-2.4073a.4119.4119,0,0,1-.2922-.5833c.12-.3538.2415-.7075.3776-1.0552A1.4514,1.4514,0,0,1,319.2662,388.7865Z" transform="translate(-254.1286 -227.4095)"/></g><g id="ai"><path class="cls-71" d="M517.1142,424.6243l-1.4661-.4439c.16-1.0075.3823-1.981.4605-2.9659a14.9445,14.9445,0,0,0-3.0592-10.22,30.27,30.27,0,0,1-3.5449-5.441c-2.9665-6.705.1061-13.5657,4.9857-17.1494a21.245,21.245,0,0,1,10.9576-3.9227,14.9427,14.9427,0,0,1,9.77,2.2247,14.5333,14.5333,0,0,1,6.193,8.0781,8.2894,8.2894,0,0,1,.328,2.9546,3.1378,3.1378,0,0,0,.9788,2.57c.83.8585,1.6511,1.726,2.4927,2.573,1.2985,1.3068,1.221,2.58-.2436,3.7155-.1827.1417-.3607.29-.5687.4569.1467.1992.2762.3645.3946.5374a1.416,1.416,0,0,1-.9118,2.2637c-1.27.2273-2.5462.418-3.8539.63l-.2574-1.5866,3.3764-.5477c.0079-.1028.0272-.15.0114-.1773-.8451-1.4309-.8071-1.6284.5129-2.6367,1.03-.7867,1.0192-.7914.158-1.7174-1.0523-1.1315-2.0859-2.2807-3.1187-3.43a2.4128,2.4128,0,0,1-.6035-1.8571c.3473-3.9362-1.5316-6.8577-4.2988-9.3208a12.811,12.811,0,0,0-9.0941-3.1493,19.4721,19.4721,0,0,0-9.7871,2.6994c-4.2372,2.5347-6.7746,6.2255-6.9509,11.27a11.59,11.59,0,0,0,2.05,6.75c.69,1.0654,1.4734,2.0717,2.2394,3.086C517.3,413.8894,518.7852,419.5036,517.1142,424.6243Z" transform="translate(-254.1286 -227.4095)"/><path class="cls-71" d="M529.3848,417.223l-1.6089.261-.0916-.5647q-1.769-10.9066-3.531-21.8142c-.06-.3727-.16-.5481-.5825-.633a3.2858,3.2858,0,1,1,4.0362-3.5922,3.129,3.129,0,0,1-1.4628,3.1223.7777.7777,0,0,0-.3829.945q1.77,10.788,3.5107,21.5807Zm-4.7891-24.3324a1.6421,1.6421,0,0,0,1.3891-1.8576,1.6858,1.6858,0,0,0-1.9246-1.3921,1.6454,1.6454,0,0,0-1.3481,1.9394A1.5723,1.5723,0,0,0,524.5957,392.8906Z" transform="translate(-254.1286 -227.4095)"/><path class="cls-71" d="M526.0667,422.7979l-1.5856.2572c-.1849-1.14-.3683-2.2717-.5522-3.4037-.5242-3.2282-1.0422-6.4575-1.5863-9.6823a1.16,1.16,0,0,0-.4187-.6463c-.695-.54-1.4319-1.0258-2.1333-1.558a.4854.4854,0,0,0-.6655-.019,3.2963,3.2963,0,0,1-5.0648-3.0726,3.0876,3.0876,0,0,1,2.0639-2.756,3.1523,3.1523,0,0,1,3.2653.4853,3.1872,3.1872,0,0,1,1.16,3.2482.7352.7352,0,0,0,.3536.8976c.8765.5894,1.7272,1.2184,2.57,1.8558a.9748.9748,0,0,1,.3617.5489q1.1245,6.7822,2.2149,13.57C526.0615,422.5982,526.0594,422.6756,526.0667,422.7979Zm-7.1115-18.0662a1.57,1.57,0,0,0-1.8435-1.3758,1.6272,1.6272,0,0,0-1.4239,1.8786,1.67,1.67,0,0,0,1.9238,1.386A1.6332,1.6332,0,0,0,518.9552,404.7317Z" transform="translate(-254.1286 -227.4095)"/><path class="cls-71" d="M524.1207,405.5349l-1.5977.2592a20.2978,20.2978,0,0,1-.3822-2.4706,3.4361,3.4361,0,0,0-2.0373-3.2566,1.1008,1.1008,0,0,1-.24-.1686,1.2562,1.2562,0,0,0-1.7133-.2317,2.914,2.914,0,0,1-3.4461-.4621,3.31,3.31,0,0,1,1.5257-5.7724,3.314,3.314,0,0,1,3.7949,4.0372.5422.5422,0,0,0,.2595.71c.8249.5635,1.6223,1.1672,2.4444,1.7348a1.4057,1.4057,0,0,1,.66,1.0341C523.6018,402.4591,523.8657,403.9629,524.1207,405.5349Zm-7.5653-10.4577a1.6165,1.6165,0,0,0-1.3813,1.8558,1.6884,1.6884,0,0,0,1.9206,1.3962,1.652,1.652,0,0,0,1.3553-1.94A1.5891,1.5891,0,0,0,516.5553,395.0772Z" transform="translate(-254.1286 -227.4095)"/><path class="cls-71" d="M530.5834,404.4859l-1.5443.2505-.1027-.6333c-.2165-1.3336-.4146-2.6705-.66-3.9988a1.2939,1.2939,0,0,1,.2862-1.1234c.6094-.79,1.1715-1.6155,1.7631-2.419a.5793.5793,0,0,0,.0436-.7711,3.2891,3.2891,0,1,1,5.812-3.0348,3.2912,3.2912,0,0,1-3.7863,4.4809.5858.5858,0,0,0-.7572.2831c-.4383.648-.89,1.2893-1.3729,1.9041a1.219,1.219,0,0,0-.2667,1.0729c.2342,1.27.418,2.55.6193,3.8263A.6459.6459,0,0,1,530.5834,404.4859Zm4.1913-10.7337a1.586,1.586,0,0,0-1.8815-1.33,1.6293,1.6293,0,0,0-1.3817,1.9112,1.696,1.696,0,0,0,1.9608,1.35A1.6737,1.6737,0,0,0,534.7747,393.7522Z" transform="translate(-254.1286 -227.4095)"/><path class="cls-71" d="M531.845,412.42c.6121,1.0283,1.1974,1.9962,1.7659,2.9739a1.15,1.15,0,0,0,1.0388.6278c1.54.0466,3.0782.1241,4.618.1615a3.4568,3.4568,0,0,0,1.0406-.1578,1.2464,1.2464,0,0,0,1.019-1.6718,2.9677,2.9677,0,0,1,.3474-2.1464c.0489-.0843.1277-.1751.1257-.2613-.0208-.8857.5971-1.04,1.2745-1.1367a2.9941,2.9941,0,0,0,.35-.0958,2.5226,2.5226,0,0,1-.2307,2.1124,2.0765,2.0765,0,0,0-.225,1.4616,2.76,2.76,0,0,1-1.9283,3.1955,11.4911,11.4911,0,0,1-4.2385.3448c-.4917-.0177-.7974.1084-.9293.5765-.3056,1.0848-.6019,2.1722-.9166,3.3118l-1.5893-.1163.9043-3.9618c-1.4965-.0573-2.037-1.3467-2.7187-2.4665-.3832-.6294-.7218-1.286-1.0987-1.963Z" transform="translate(-254.1286 -227.4095)"/><path class="cls-71" d="M531.557,410.1766l-1.5781.256c-.1018-.6277-.2153-1.2364-.2877-1.85-.0146-.1234.1115-.276.1982-.3969.8555-1.1939,1.7088-2.39,2.581-3.5712a.615.615,0,0,0,.0234-.83,3.2258,3.2258,0,0,1,.12-3.6385,3.3154,3.3154,0,0,1,3.4121-1.2937,3.2918,3.2918,0,0,1-1.4862,6.4136.6113.6113,0,0,0-.7675.2884c-.6293.9217-1.2739,1.8355-1.9625,2.7131a1.412,1.412,0,0,0-.317,1.4A3.0167,3.0167,0,0,1,531.557,410.1766Zm5.3539-8.3986a1.5867,1.5867,0,0,0-1.8779-1.3317,1.6668,1.6668,0,0,0-1.3881,1.9164,1.6913,1.6913,0,0,0,1.9649,1.3414A1.6584,1.6584,0,0,0,536.911,401.778Z" transform="translate(-254.1286 -227.4095)"/></g><g id="math"><path class="cls-71" d="M604.7669,615.6079l6.4,19.8559c-.0071.0233-.0235.0481-.02.07a2.9424,2.9424,0,0,1-2.11,3.1517q-9.2652,2.9629-18.5186,5.9623c-.1432.0461-.2858.0943-.43.1362a2.863,2.863,0,0,1-3.4872-1.8462q-3.0664-9.5084-6.1279-19.0184a2.7117,2.7117,0,0,1,.7886-2.966,6.6269,6.6269,0,0,1,.7158-.5286l19.6649-6.3386c.0564.0006.1132.0061.169.0012a2.8715,2.8715,0,0,1,2.7041,1.1588C604.6042,615.3627,604.6832,615.4871,604.7669,615.6079ZM585.376,632.8418q1.0961,3.4007,2.1923,6.8014c.2872.8909.5688,1.7837.8639,2.6721a.9911.9911,0,0,0,1.3222.6849q9.427-3.0368,18.8531-6.0767a1.0931,1.0931,0,0,0,.75-1.0936c-.0029-.0561-.0124-.1549-.0355-.16-.22-.05-.1978-.25-.244-.393q-2.9714-9.1979-5.9342-18.3985c-.0282-.0875-.0546-.1757-.0854-.2622a.9944.9944,0,0,0-1.3343-.6622q-9.3434,3.01-18.6857,6.024a1.1667,1.1667,0,0,0-.293.135,1.0863,1.0863,0,0,0-.4,1.3263Q583.86,628.1407,585.376,632.8418Z" transform="translate(-254.1286 -227.4095)"/><path class="cls-71" d="M604.7669,615.6079c-.0837-.1208-.1627-.2452-.2519-.3619a2.8715,2.8715,0,0,0-2.7041-1.1588c-.0559.005-.1127-.0005-.169-.0012l2.3865-.7692Z" transform="translate(-254.1286 -227.4095)"/><path class="cls-71" d="M591.61,636.3253c-.5637-.2855-1.1036-.5508-1.6355-.8312a.8213.8213,0,0,1-.4743-.8847.9026.9026,0,0,1,.7119-.8064,1.3147,1.3147,0,0,1,.6689.1184c.5233.239,1.0278.5192,1.5652.7961.28-.5476.5476-1.0824.8255-1.6119a.9092.9092,0,0,1,1.63.8051c-.221.4592-.4609.9094-.6951,1.3621-.0419.081-.0968.1553-.1646.2626.3845.1955.7323.3721,1.08.5493.1861.0949.3742.1864.5571.287a.8627.8627,0,0,1,.4046,1.2058.934.934,0,0,1-1.2447.41c-.4734-.23-.9382-.478-1.407-.7175-.0589-.03-.1195-.057-.2031-.0967-.2714.5328-.53,1.0658-.8115,1.5862a.9349.9349,0,0,1-1.6416.04.8261.8261,0,0,1,.0073-.8373c.23-.464.4711-.9229.7067-1.3844C591.5276,636.5046,591.5608,636.43,591.61,636.3253Z" transform="translate(-254.1286 -227.4095)"/><path class="cls-71" d="M588.48,625.7508c-.1931-.5992-.38-1.16-.554-1.7253a.852.852,0,0,1,.2818-.9668.902.902,0,0,1,1.44.44c.1622.4653.3049.9375.4563,1.4066l.0929.2883c.3773-.1216.7327-.2363,1.0881-.3507.2386-.0768.4759-.1578.7162-.2291a.869.869,0,0,1,1.1529.5785.8848.8848,0,0,1-.6141,1.1422c-.5145.1737-1.0333.3346-1.55.502-.07.0227-.138.0508-.2356.0871.1614.5007.321.99.4763,1.4814a2.0813,2.0813,0,0,1,.0961.3872.8683.8683,0,0,1-.6729.9741.8525.8525,0,0,1-1.0579-.5644c-.1682-.4809-.3168-.9687-.474-1.4535-.0276-.0851-.0549-.17-.0907-.2812-.5745.1852-1.1206.3631-1.6681.5362a1.8289,1.8289,0,0,1-.3642.0839.8813.8813,0,0,1-.9582-.6672.8627.8627,0,0,1,.5632-1.0622C587.2115,626.15,587.826,625.9616,588.48,625.7508Z" transform="translate(-254.1286 -227.4095)"/><path class="cls-71" d="M598.1914,621.1252c.8741-.2815,1.746-.57,2.6228-.8428a.8963.8963,0,0,1,1.2405.8245.9174.9174,0,0,1-.738.9169q-2.24.7246-4.4811,1.445c-.2622.0845-.5216.18-.7876.25a.901.901,0,0,1-1.1794-.9336.8156.8156,0,0,1,.4714-.7159,2.3878,2.3878,0,0,1,.3249-.1293Q596.9274,621.5305,598.1914,621.1252Z" transform="translate(-254.1286 -227.4095)"/><path class="cls-71" d="M599.0465,623.8262q1.323-.4264,2.6462-.8523a.8862.8862,0,0,1,1.187.56.8955.8955,0,0,1-.6352,1.1545q-2.645.8559-5.292,1.7055a.88.88,0,0,1-1.173-.5853.8684.8684,0,0,1,.6213-1.1288C597.282,624.393,598.1646,624.11,599.0465,623.8262Z" transform="translate(-254.1286 -227.4095)"/><path class="cls-71" d="M602.2515,633.72c-.89.287-1.7771.5824-2.67.8578a.8916.8916,0,0,1-1.2074-.9115.8469.8469,0,0,1,.6236-.7953q2.69-.88,5.3872-1.7354a.9011.9011,0,1,1,.5356,1.7207C604.0338,633.1537,603.1413,633.4327,602.2515,633.72Z" transform="translate(-254.1286 -227.4095)"/><path class="cls-71" d="M602.3355,634.0964a1.1008,1.1008,0,0,1,1.3236.651,1.019,1.019,0,0,1-.6434,1.2871,1.0842,1.0842,0,0,1-1.3162-.6558A.9966.9966,0,0,1,602.3355,634.0964Z" transform="translate(-254.1286 -227.4095)"/><path class="cls-71" d="M600.9288,629.6949a1.097,1.097,0,0,1,1.3157.664,1.1247,1.1247,0,0,1-.6809,1.2933,1.0988,1.0988,0,0,1-1.2852-.6832A.9942.9942,0,0,1,600.9288,629.6949Z" transform="translate(-254.1286 -227.4095)"/></g><g id="treasure"><path class="cls-72" d="M428.1768,532.948c-.5311-.9205-1.027-1.78-1.5227-2.6392l-3.0618-5.3081c-.6054-1.05-1.2-2.1057-1.8243-3.1439-.1529-.2542-.0469-.3923.0889-.5713q3.1221-4.115,6.24-8.2334c.4644-.6131.9278-1.227,1.4362-1.8994.1292.2239.2358.4082.342.5928q2.4164,4.2,4.8332,8.4c.4145.72.8282,1.44,1.2563,2.1518a.3206.3206,0,0,1-.0349.4255q-2.9579,3.89-5.9045,7.7887c-.4934.6518-.9818,1.3073-1.4739,1.96C428.4423,532.6161,428.3279,532.7561,428.1768,532.948Z" transform="translate(-254.1286 -227.4095)"/><path class="cls-72" d="M403.803,524.11c-.2655-.7854-.5935-1.5495-.78-2.3466a13.4134,13.4134,0,0,1,.4035-7.7247,7.4343,7.4343,0,0,1,2.34-3.4367,3.9445,3.9445,0,0,1,1.7823-.6809q3.94-.7887,7.8777-1.5878c.278-.0562.5542-.1208.8378-.1829-2.9172,4.3595-3.1053,8.9287-1.2153,13.7318Z" transform="translate(-254.1286 -227.4095)"/><path class="cls-72" d="M404.5687,525.2756c.5727-.1157,1.1225-.2384,1.6776-.3274a.4018.4018,0,0,1,.3085.1843c.8374,1.4356,1.6621,2.8785,2.49,4.3194.4659.8106.9279,1.6235,1.407,2.4263a.3778.3778,0,0,0,.309.1531c2.2913-.4465,4.58-.9068,6.8687-1.3661a.9471.9471,0,0,0,.1534-.0661l-4.11-7.1243c.6838-.1374,1.3206-.2713,1.9608-.3853.0672-.012.1867.0746.2288.1465q1.0155,1.7323,2.0155,3.4737,1.299,2.2482,2.5966,4.4972c.6049,1.0479,1.2094,2.096,1.8411,3.1909-.523.105-1.0006.2048-1.48.2965q-4.7277.9051-9.4558,1.8079c-.1848.0354-.3326.0665-.4605-.1564q-3.1454-5.4822-6.3091-10.9539A1.0422,1.0422,0,0,1,404.5687,525.2756Z" transform="translate(-254.1286 -227.4095)"/><path class="cls-72" d="M420.8883,520.4151c-.17-.4648-.3376-.8781-.4742-1.3012a13.4445,13.4445,0,0,1-.3517-6.6215,9.7766,9.7766,0,0,1,1.9133-4.4307,3.9846,3.9846,0,0,1,1.9345-1.45,2.9752,2.9752,0,0,1,2.8.7009,9.5261,9.5261,0,0,1,2.0571,2.49.34.34,0,0,1-.0571.2917q-2.0237,2.691-4.06,5.3724-1.7406,2.3-3.48,4.6011C421.0949,520.1671,421.0131,520.2616,420.8883,520.4151Z" transform="translate(-254.1286 -227.4095)"/><path class="cls-72" d="M421.023,507.19a11.9848,11.9848,0,0,0-2.5011,6.7136,13.5739,13.5739,0,0,0,1.2262,7.0479l-3.317.6609a10.35,10.35,0,0,1-1.1188-3.5547,13.4933,13.4933,0,0,1,.7438-6.8642,7.3887,7.3887,0,0,1,1.9322-2.9075,3.1128,3.1128,0,0,1,1.6092-.8152C420.0488,507.4018,420.4944,507.2954,421.023,507.19Z" transform="translate(-254.1286 -227.4095)"/><path class="cls-72" d="M417.1014,522.79c1.1065-.2186,2.152-.4323,3.2023-.62.09-.0161.2505.1172.311.22q1.33,2.2709,2.64,4.5538,1.7995,3.12,3.5961,6.2409c.0557.0968.1116.1935.1841.3191-1.094.2128-2.1515.4257-3.2138.6118-.09.0157-.25-.1267-.312-.2335q-1.8724-3.2177-3.7274-6.4454-1.2288-2.13-2.4567-4.26Z" transform="translate(-254.1286 -227.4095)"/><path class="cls-72" d="M403.7847,510.6509c-2.9268,4.3811-3.141,8.9242-1.2926,13.7071-.64.1314-1.32.2711-1.9993.41a3.6972,3.6972,0,0,0-.5393.1137c-.34.1254-.489-.0247-.6188-.3235a12.526,12.526,0,0,1-1.0095-4.9067,12.2886,12.2886,0,0,1,1.2446-5.8662,5.4092,5.4092,0,0,1,2.4786-2.649A11.3887,11.3887,0,0,1,403.7847,510.6509Z" transform="translate(-254.1286 -227.4095)"/><path class="cls-72" d="M409.72,536.8025c-.9937.1953-1.9248.3854-2.86.55-.08.0141-.2231-.1228-.2812-.2221-.6875-1.1742-1.3642-2.3546-2.044-3.5332q-2.0308-3.5211-4.0619-7.042l-.2456-.4257c.9762-.1919,1.9075-.38,2.8422-.55a.3348.3348,0,0,1,.259.1532c.83,1.4245,1.6489,2.8552,2.4725,4.2834q1.33,2.3068,2.6645,4.6115C408.8743,535.3357,409.2825,536.0439,409.72,536.8025Z" transform="translate(-254.1286 -227.4095)"/><path class="cls-72" d="M407.7954,524.6318c1.2048-.2387,2.3749-.4727,3.5461-.7011.3362-.0656.7333-.2479.9968-.1334.2486.108.361.5345.5282.8238.9694,1.6778,1.9372,3.3565,2.9319,5.0805-.267.0629-.5038.1251-.7433.1739-1.1821.2408-2.3654.4763-3.5472.7185-.17.0347-.2848.0419-.3927-.1472-1.0806-1.8944-2.1741-3.7815-3.2632-5.6711A1.3855,1.3855,0,0,1,407.7954,524.6318Zm5.4917,3.9832c-.2754-.4774-.5292-.93-.7961-1.3739a.6485.6485,0,0,1-.085-.5794,1.1489,1.1489,0,0,0-.8474-1.4945,1.2116,1.2116,0,1,0-.584,2.3517.722.722,0,0,1,.3754.2894c.2929.4653.557.9487.84,1.44Z" transform="translate(-254.1286 -227.4095)"/></g><g id="hackathon"><path class="cls-72" d="M558.7376,285.3712q-1.7746.2879-3.5493.5756a2.0763,2.0763,0,0,1-2.5431-1.7928,19.8833,19.8833,0,0,0-.8073-2.7823,5.9572,5.9572,0,0,0-2.2932-2.7,10.2262,10.2262,0,0,1-2.6949-2.4086,9.85,9.85,0,0,1-1.5808-4.4489c-.6083-4.7045,1.0081-8.5186,4.9915-11.0717a10.56,10.56,0,0,1,12.173.1144,10.8222,10.8222,0,0,1,4.9384,8.5753,8.0782,8.0782,0,0,1-.6938,4.605,8.1968,8.1968,0,0,1-.973,1.53,7.7037,7.7037,0,0,0-1.6052,6.7467,1.9364,1.9364,0,0,1-.6859,1.9911,2.5189,2.5189,0,0,1-1.05.4652C561.1612,285.0006,559.9473,285.175,558.7376,285.3712Zm-.2229-1.1967q1.714-.278,3.428-.5564c.8191-.1337,1.049-.4546.9217-1.2783a11.7126,11.7126,0,0,1-.0516-3.6169,8.35,8.35,0,0,1,1.8544-3.8031,6.6,6.6,0,0,0,1.5145-3.8816,11.9439,11.9439,0,0,0-.5554-4.0983,9.9152,9.9152,0,0,0-14.9666-5.0314,10.0761,10.0761,0,0,0-3.5824,12.1164,6.9569,6.9569,0,0,0,2.8781,3.43,7.3232,7.3232,0,0,1,3.0583,3.4942,27.3982,27.3982,0,0,1,.8462,2.981c.1621.6553.4762.9191,1.1469.8125C556.1768,284.5571,557.3456,284.3648,558.5148,284.1746Z" transform="translate(-254.1286 -227.4095)"/><path class="cls-72" d="M559.1515,288.4123q-1.8517.3-3.7033.6c-.4923.0791-.8091-.0966-.8735-.4765s.1756-.6544.6708-.7355q3.7221-.61,7.4461-1.2079c.4914-.0789.8.1139.8541.5032.0517.371-.1789.6306-.6514.7087C561.6473,288.01,560.3992,288.21,559.1515,288.4123Z" transform="translate(-254.1286 -227.4095)"/><path class="cls-72" d="M559.4844,290.22c.9171-.1492,1.8333-.304,2.7517-.4443.4829-.0738.8125.1818.7989.6056a.5853.5853,0,0,1-.5482.596q-2.83.465-5.6626.9175a.6153.6153,0,1,1-.17-1.2122C557.5959,290.5208,558.5407,290.3738,559.4844,290.22Z" transform="translate(-254.1286 -227.4095)"/><path class="cls-72" d="M541.1217,271.4855c.4251-.069.8492-.1448,1.2755-.205a.6175.6175,0,1,1,.2173,1.21q-1.2907.2346-2.59.42a.6179.6179,0,1,1-.1776-1.216C540.27,271.6161,540.6967,271.5545,541.1217,271.4855Z" transform="translate(-254.1286 -227.4095)"/><path class="cls-72" d="M544.0892,264.5833c.1011.5469-.31.9436-.7561.79-.8887-.3062-1.7658-.648-2.6379-.9994a.5552.5552,0,0,1-.3277-.7335.5686.5686,0,0,1,.7323-.3974q1.3483.4765,2.674,1.0152C543.9257,264.32,544.024,264.5131,544.0892,264.5833Z" transform="translate(-254.1286 -227.4095)"/><path class="cls-72" d="M563.1427,254.5793a4.397,4.397,0,0,1-.1147.532q-.435,1.1712-.8867,2.3361c-.1663.4263-.4926.5947-.8439.4585a.6321.6321,0,0,1-.3082-.881q.4556-1.2281.9329-2.4482a.5307.5307,0,0,1,.6609-.3865A2.1385,2.1385,0,0,1,563.1427,254.5793Z" transform="translate(-254.1286 -227.4095)"/><path class="cls-72" d="M569.2825,259.2964a1.8083,1.8083,0,0,1,.5318.3427.5148.5148,0,0,1-.0691.7331q-1.0923.9242-2.2164,1.81a.5768.5768,0,0,1-.8251-.1247.6015.6015,0,0,1,.1142-.8625c.6909-.5773,1.3923-1.1421,2.0935-1.707A2.5407,2.5407,0,0,1,569.2825,259.2964Z" transform="translate(-254.1286 -227.4095)"/><path class="cls-72" d="M548.54,259.0838a2.09,2.09,0,0,1-.4039.571.5381.5381,0,0,1-.7569-.1382c-.3619-.4329-.7152-.8731-1.0723-1.31-.221-.27-.4529-.5329-.6607-.8131a.596.596,0,0,1,.0681-.8353.5742.5742,0,0,1,.8346.03c.62.7245,1.2137,1.4714,1.8136,2.2129a.8938.8938,0,0,1,.0954.2189Z" transform="translate(-254.1286 -227.4095)"/><path class="cls-72" d="M554.8328,254.944c.0705.4385.15.8758.21,1.3157a.6106.6106,0,1,1-1.2022.1962q-.2245-1.3133-.4247-2.6307a.5964.5964,0,0,1,.5164-.7307.6026.6026,0,0,1,.6844.5349C554.7007,254.0652,554.7623,254.5055,554.8328,254.944Z" transform="translate(-254.1286 -227.4095)"/><path class="cls-72" d="M571.1607,267.4641c.4251-.069.8495-.1426,1.2755-.2056.4378-.0647.725.12.7808.49a.5958.5958,0,0,1-.5477.71q-1.3122.23-2.63.4242a.6086.6086,0,1,1-.1924-1.2c.4367-.08.8763-.1444,1.3147-.2155Z" transform="translate(-254.1286 -227.4095)"/><path class="cls-72" d="M555.4794,263.0256a7.0764,7.0764,0,0,1,7.7426,5.7937c.0907.579-.3359,1.0135-.7985.7729a.9567.9567,0,0,1-.3989-.5875,5.8643,5.8643,0,0,0-3.9689-4.5,5.3178,5.3178,0,0,0-2.4255-.2548,2.7807,2.7807,0,0,1-.4409.0346.5535.5535,0,0,1-.5773-.51.5656.5656,0,0,1,.4337-.6761A3.2166,3.2166,0,0,1,555.4794,263.0256Z" transform="translate(-254.1286 -227.4095)"/></g><g id="cricket"><path class="cls-72" d="M407.2144,330.6294q-.1806,1.5263-.3612,3.0527c-.1386,1.1749-.2731,2.35-.42,3.5241a.9191.9191,0,0,1-.1613.3509q-1.3414,2.1-2.69,4.1952a1.574,1.574,0,0,1-1.6369.85,1.5473,1.5473,0,0,1-1.2627-1.4528,1.1128,1.1128,0,0,0-.0419-.13l-.8172-.0125.171-11.2014-1.4035-.0214-.17,11.1639-.855-.013.17-11.17-1.0272-.0157-.1706,11.1772-.8611-.0131c-.007-.119-.0225-.244-.0206-.3688q.0785-5.24.1646-10.48a1.8329,1.8329,0,0,1,.1048-.4157c-.01-.1817-.0935-.4194-.0114-.5616a.6629.6629,0,0,1,.5039-.2369q1.9362-.0006,3.872.0586a.7.7,0,0,1,.5007.2519c.0842.1271.0129.3572-.0258.5361a2.3924,2.3924,0,0,1,.0927.4835q-.067,4.971-.1472,9.9419l-.0076.5007c.9451-1.4761,1.85-2.8612,2.7161-4.2707a2.2168,2.2168,0,0,0,.1667-.8686c.2044-1.7206.3589-3.4487.6257-5.1594a2.6357,2.6357,0,0,0-.2241-1.4386c-.5062-1.3388-.9718-2.6934-1.4319-4.049a2.6486,2.6486,0,0,1,3.9242-3.1282c.0408.0243.0836.0451.1591.0856l2.4328-2.5564c-.14-.2159-.14-.2159-.5344.027-.0623-.0563-.1359-.1127-.1975-.18q-3.2577-3.5628-6.5129-7.128a.5807.5807,0,0,1-.0628-.8382.9262.9262,0,0,1,1.5829-.1516q3.2841,3.5386,6.5628,7.0822c.04.0432.0765.09.1352.1588l-.4026.3263a4.1352,4.1352,0,0,1,.9855.0313.8439.8439,0,0,1,.5537.8072,1.0055,1.0055,0,0,1,.6423,1.699c.293.3315.5876.6726.8912,1.0056.1861.2042.3233.4261.0787.6519-.2427.224-.4564.082-.6415-.1286-.2821-.321-.5714-.6358-.8789-.9769-.648.68-1.2733,1.3356-1.8985,1.9917-.3219.3378-.6348.6848-.9687,1.01a.4343.4343,0,0,0-.1273.532c.2737.738.4769,1.5057.7952,2.2228a25.4685,25.4685,0,0,0,1.3908,2.7456,7.8663,7.8663,0,0,1,1.067,4.6805c-.1405,2.3746-.0966,4.76-.137,7.1407a1.5082,1.5082,0,0,1-2.976.3432,2.61,2.61,0,0,1-.04-.6407c.0388-2.74.0854-5.4793.1163-8.2191a1.6444,1.6444,0,0,0-.1525-.6813c-.3322-.7231-.6928-1.4332-1.0427-2.1482Z" transform="translate(-254.1286 -227.4095)"/><path class="cls-73" d="M404.2659,319.3379a2.067,2.067,0,1,1-2.0231-2.1017A2.0982,2.0982,0,0,1,404.2659,319.3379Z" transform="translate(-254.1286 -227.4095)"/><path class="cls-73" d="M414.73,311.164a1.3676,1.3676,0,0,1,1.8177.2543,1.3538,1.3538,0,0,1-.0508,1.8459Z" transform="translate(-254.1286 -227.4095)"/><path class="cls-73" d="M414.4109,311.4736a6.8872,6.8872,0,0,1,1.6994,2.051,1.3258,1.3258,0,0,1-1.6632-.26A1.3433,1.3433,0,0,1,414.4109,311.4736Z" transform="translate(-254.1286 -227.4095)"/></g><g id="music"><path class="cls-71" d="M472.5495,534.07a4.6128,4.6128,0,0,1,.6952,1.282c.6653,3.86,1.2874,7.7271,1.8983,11.596.2973,1.883-.5128,3.3256-2.0508,3.7093a2.7993,2.7993,0,0,1-3.0108-.93,2.757,2.757,0,0,1-.4265-3.1114,2.839,2.839,0,0,1,2.6672-1.6894,8.4976,8.4976,0,0,1,.8517.0468l-.9247-5.7c-2.8188,1.0132-5.6088,2.0011-8.3772,3.046-.1787.0675-.3061.5918-.2636.8745.3983,2.6516.8519,5.2949,1.2614,7.9449a2.9085,2.9085,0,0,1-4.9282,2.5165,2.9237,2.9237,0,0,1,2.0841-5.0127c.2372.0022.4741.034.8256.0608-.0434-.37-.0689-.6862-.1192-.9988-.4455-2.7664-.899-5.5315-1.3423-8.2983-.1908-1.1907-.1238-1.2856,1.023-1.7005q4.5727-1.6545,9.1427-3.3164a1.2588,1.2588,0,0,0,.28-.2028Zm-.7923,1.8925-8.7787,3.1918.2753,1.6974,8.7808-3.179-.14-.8633Zm1.8892,11.6593a1.4067,1.4067,0,0,0-1.5844-1.1288,1.3655,1.3655,0,0,0-1.0846,1.6045,1.3177,1.3177,0,0,0,1.5172,1.0708A1.3507,1.3507,0,0,0,473.6464,547.6215Zm-10.35,3.7249a1.2884,1.2884,0,0,0-1.5748-1.0828,1.3887,1.3887,0,0,0-1.0956,1.5207,1.48,1.48,0,0,0,1.58,1.1637A1.4047,1.4047,0,0,0,463.2969,551.3464Z" transform="translate(-254.1286 -227.4095)"/><path class="cls-71" d="M475.3835,564.6438c-1.9467-2.3558-1.981-3.8191-.2049-6.2866,2.359-3.2773,4.7293-6.5465,7.0641-9.841a1.5144,1.5144,0,0,0,.2495-1.1153,6.8742,6.8742,0,0,1,13.2628-3.6091,6.83,6.83,0,0,1-4.08,8.3351,2.6064,2.6064,0,0,1-1.0355.2777c-1.3159-.0454-2.0053.7272-2.6959,1.7207-2.15,3.0931-4.4008,6.1159-6.5833,9.1867a4.2241,4.2241,0,0,1-3.9567,2.0434.8321.8321,0,0,0-.4361.028c-1.0376.5871-2.0978,1.1435-3.0852,1.8073a3.1885,3.1885,0,0,0-1.3739,2.711,4.8746,4.8746,0,0,1-3.3489,4.7524,6.5471,6.5471,0,0,0-1.676,1.1592c-.3785.3189-.7216.6014-1.176.2309a.75.75,0,0,1-.01-1.2481,10.6046,10.6046,0,0,1,2.2575-1.561,3.4716,3.4716,0,0,0,2.3693-3.1917,5.0348,5.0348,0,0,1,3.6242-4.9473,3.9092,3.9092,0,0,0,.4868-.2278C475.1373,564.815,475.23,564.7437,475.3835,564.6438Zm9.8907-22.4847c.49.2757.9048.4643,1.27.7221,1.33.9377,2.67,1.8658,3.9414,2.8785.254.2023.2241.7611.3251,1.1556a5.034,5.034,0,0,1-1.2047.0741c-.267-.0448-.496-.3235-.739-.5017-1.4495-1.0634-2.898-2.128-4.3694-3.2088a5.2894,5.2894,0,0,0,8.9946,5.5262,5.3142,5.3142,0,0,0-.7993-7.037C490.6273,539.9092,487.5912,539.9871,485.2741,542.1592Zm-4.422,10.962c-1.5685,2.1973-3.1833,4.44-4.7759,6.698a2.3854,2.3854,0,1,0,3.8518,2.7626c1.2818-1.7474,2.5284-3.5207,3.8132-5.2659.3517-.4778.7856-.8949,1.1411-1.2942Zm1.1644-1.3971,3.7353,2.64,1.2949-1.8533-3.7268-2.6844Z" transform="translate(-254.1286 -227.4095)"/><path class="cls-71" d="M493.142,547.7085c-.389.4077-.6494.8829-.8738.8664a1.1538,1.1538,0,0,1-.8232-.673c-.0611-.1865.3466-.7155.6066-.7656C492.3156,547.0854,492.6566,547.4341,493.142,547.7085Z" transform="translate(-254.1286 -227.4095)"/></g><g id="ones"><path class="cls-71" d="M418.6338,269.9683l2.7754-1.5254,8.32,15.146-2.7754,1.5254Z" transform="translate(-254.1286 -227.4095)"/><path class="cls-71" d="M367.6387,650.5527l2.7754-1.5254,8.32,15.1465-2.7754,1.5254Z" transform="translate(-254.1286 -227.4095)"/><path class="cls-71" d="M572.3184,569.0273l3.0176.9629-5.252,16.4648-3.0176-.9629Z" transform="translate(-254.1286 -227.4095)"/><path class="cls-71" d="M633.8711,296.4072l2.9453,1.167L630.45,313.64l-2.9453-1.166Z" transform="translate(-254.1286 -227.4095)"/><path class="cls-71" d="M467.02,386.9634l2.73.48-2.6172,14.8887-2.73-.48Z" transform="translate(-254.1286 -227.4095)"/><path class="cls-71" d="M634.8838,647.2988l2.7295.48-2.6172,14.8887-2.7295-.48Z" transform="translate(-254.1286 -227.4095)"/><path class="cls-71" d="M528.2354,692.1855l2.34-1.4854,8.1006,12.7646-2.3408,1.4844Z" transform="translate(-254.1286 -227.4095)"/><path class="cls-71" d="M508.7441,250.5791l2.7285.48-2.6172,14.8887-2.7285-.48Z" transform="translate(-254.1286 -227.4095)"/><path class="cls-71" d="M384.1641,367.8218l2.55,1.0859-5.9258,13.9072-2.55-1.0869Z" transform="translate(-254.1286 -227.4095)"/><path class="cls-71" d="M334.3965,322.94l2.01-1.2681,6.917,10.9644-2.01,1.2681Z" transform="translate(-254.1286 -227.4095)"/><path class="cls-71" d="M575.001,426.1826l3.8828-2.7388,14.9395,21.1777-3.8818,2.7388Z" transform="translate(-254.1286 -227.4095)"/><path class="cls-71" d="M450.5176,674.7324l4.2227,2.1768-11.877,23.0352-4.2227-2.1768Z" transform="translate(-254.1286 -227.4095)"/></g><g id="zeros"><path class="cls-71" d="M427.251,367.2285a3.3432,3.3432,0,0,1,4.501,1.4116l4.9141,9.4019a3.3439,3.3439,0,0,1-1.41,4.502l-9.4014,4.9141a3.33,3.33,0,0,1-4.5029-1.4111l-4.915-9.4019a3.3292,3.3292,0,0,1,1.4131-4.5024Zm6.5371,12.5073a.16.16,0,0,0,.05-.2158l-4.9141-9.4019a.16.16,0,0,0-.2051-.082l-9.4023,4.9141a.1644.1644,0,0,0-.0713.2271l4.915,9.4019a.1632.1632,0,0,0,.2266.0708Z" transform="translate(-254.1286 -227.4095)"/><path class="cls-71" d="M401.1973,565.3311a3.3434,3.3434,0,0,1,4.501,1.4111l4.9141,9.4023a3.3439,3.3439,0,0,1-1.41,4.502l-9.4014,4.9141a3.33,3.33,0,0,1-4.5029-1.4111l-4.915-9.4014a3.33,3.33,0,0,1,1.4131-4.5029Zm6.5371,12.5068a.1588.1588,0,0,0,.05-.2148l-4.9141-9.4023a.16.16,0,0,0-.2051-.082l-9.4023,4.9141a.1641.1641,0,0,0-.0713.2266l4.915,9.4023a.163.163,0,0,0,.2266.07Z" transform="translate(-254.1286 -227.4095)"/><path class="cls-71" d="M576.9814,668.2373a3.3434,3.3434,0,0,1,4.501,1.4111l4.9141,9.4023a3.3439,3.3439,0,0,1-1.41,4.502l-9.4014,4.9141a3.33,3.33,0,0,1-4.5029-1.4111l-4.915-9.4014a3.33,3.33,0,0,1,1.4131-4.5029Zm6.5371,12.5068a.1588.1588,0,0,0,.05-.2148l-4.9141-9.4023a.16.16,0,0,0-.2051-.082l-9.4023,4.9141a.1641.1641,0,0,0-.0713.2266l4.915,9.4023a.163.163,0,0,0,.2266.07Z" transform="translate(-254.1286 -227.4095)"/><path class="cls-71" d="M589.5693,325.0322a4.4589,4.4589,0,0,1,3.1357,5.4531L589.0176,344.14a4.46,4.46,0,0,1-5.4551,3.1338l-13.6543-3.6885a4.4376,4.4376,0,0,1-3.1328-5.4531l3.6875-13.6543a4.4377,4.4377,0,0,1,5.4531-3.1328Zm-4.9053,18.1631a.2139.2139,0,0,0,.2441-.166l3.6875-13.6533a.2152.2152,0,0,0-.127-.2666l-13.6543-3.6875a.22.22,0,0,0-.2754.1572l-3.6875,13.6543a.2193.2193,0,0,0,.1582.2744Z" transform="translate(-254.1286 -227.4095)"/><path class="cls-71" d="M432.8184,617.98a4.4583,4.4583,0,0,1,3.1348,5.4531l-3.6875,13.6543a4.46,4.46,0,0,1-5.4551,3.1338l-13.6523-3.6885a4.4373,4.4373,0,0,1-3.1348-5.4531l3.6875-13.6543a4.4388,4.4388,0,0,1,5.4541-3.1328Zm-4.9062,18.1631a.2153.2153,0,0,0,.2461-.166l3.6875-13.6533a.2144.2144,0,0,0-.1289-.2666L418.0645,618.37a.22.22,0,0,0-.2754.1572l-3.6875,13.6543a.2186.2186,0,0,0,.1582.2744Z" transform="translate(-254.1286 -227.4095)"/><path class="cls-71" d="M360.73,294.5215a2.5088,2.5088,0,0,1,3.3135-1.2432l7.2461,3.291a2.5091,2.5091,0,0,1,1.2441,3.3135l-3.292,7.2471a2.4969,2.4969,0,0,1-3.3135,1.2422l-7.2461-3.291a2.4971,2.4971,0,0,1-1.2441-3.3125Zm9.64,4.3779a.12.12,0,0,0-.07-.1494l-7.2461-3.291a.1194.1194,0,0,0-.1592.0449l-3.292,7.2471a.1241.1241,0,0,0,.0625.167l7.2461,3.291a.1236.1236,0,0,0,.167-.0625Z" transform="translate(-254.1286 -227.4095)"/><path class="cls-71" d="M527.8037,555.1a2.5092,2.5092,0,0,1,3.3135-1.2432l7.2461,3.291a2.5091,2.5091,0,0,1,1.2441,3.3135l-3.292,7.2471a2.4969,2.4969,0,0,1-3.3135,1.2422l-7.2461-3.291a2.497,2.497,0,0,1-1.2441-3.3125Zm9.64,4.3779a.12.12,0,0,0-.07-.1494l-7.2461-3.291a.1194.1194,0,0,0-.1592.0449l-3.292,7.2471a.1241.1241,0,0,0,.0625.167l7.2461,3.291a.124.124,0,0,0,.167-.0625Z" transform="translate(-254.1286 -227.4095)"/><path class="cls-71" d="M488.2539,691.8643a2.5084,2.5084,0,0,1,3.3135-1.2432l7.2461,3.291a2.5091,2.5091,0,0,1,1.2441,3.3135l-3.292,7.2471a2.4969,2.4969,0,0,1-3.3135,1.2422l-7.2461-3.291a2.4973,2.4973,0,0,1-1.2441-3.3125Zm9.64,4.3779a.1206.1206,0,0,0-.07-.1494l-7.2461-3.291a.1194.1194,0,0,0-.1592.0449l-3.292,7.2471a.1241.1241,0,0,0,.0625.167l7.2461,3.291a.1232.1232,0,0,0,.167-.0625Z" transform="translate(-254.1286 -227.4095)"/><path class="cls-71" d="M608.7344,579.75a2.509,2.509,0,0,1,.834-3.4395l6.7949-4.1426a2.509,2.509,0,0,1,3.44.834l4.1436,6.7949a2.4976,2.4976,0,0,1-.8359,3.4395l-6.7949,4.1426a2.4964,2.4964,0,0,1-3.4395-.834Zm9.0391-5.5117a.1187.1187,0,0,0-.1621-.0254l-6.7949,4.1426a.1192.1192,0,0,0-.0527.1563l4.1426,6.7969a.1235.1235,0,0,0,.1738.041l6.7949-4.1426a.1219.1219,0,0,0,.042-.1719Z" transform="translate(-254.1286 -227.4095)"/><path class="cls-71" d="M654.0215,627.59a2.509,2.509,0,0,1,.834-3.4395l6.7949-4.1426a2.509,2.509,0,0,1,3.44.834l4.1436,6.7949a2.4976,2.4976,0,0,1-.8359,3.4395l-6.7949,4.1426a2.4964,2.4964,0,0,1-3.4395-.834Zm9.0391-5.5117a.1187.1187,0,0,0-.1621-.0254l-6.7949,4.1426a.1192.1192,0,0,0-.0527.1563l4.1426,6.7969a.1235.1235,0,0,0,.1738.041l6.7949-4.1426a.1219.1219,0,0,0,.042-.1719Z" transform="translate(-254.1286 -227.4095)"/><path class="cls-71" d="M472.2881,252.6226a2.51,2.51,0,0,1,3.1582,1.5986l2.4785,7.5625a2.51,2.51,0,0,1-1.5977,3.1577l-7.5625,2.4795a2.4971,2.4971,0,0,1-3.1582-1.5991l-2.4785-7.5615a2.4967,2.4967,0,0,1,1.5977-3.1582Zm3.2979,10.06a.12.12,0,0,0,.0635-.1528l-2.4785-7.5625a.122.122,0,0,0-.1426-.0859l-7.5625,2.4795a.1224.1224,0,0,0-.08.1592l2.4785,7.5615a.123.123,0,0,0,.1592.0806Z" transform="translate(-254.1286 -227.4095)"/><path class="cls-71" d="M598.15,374.24a2.509,2.509,0,0,1,3.5332.2168l5.2715,5.9614a2.5108,2.5108,0,0,1-.2168,3.5327l-5.9629,5.272a2.4956,2.4956,0,0,1-3.5312-.2168l-5.2715-5.9614a2.4971,2.4971,0,0,1,.2148-3.5327Zm7.0137,7.9307a.12.12,0,0,0-.0039-.1655l-5.2715-5.9614a.12.12,0,0,0-.1641-.0234l-5.9629,5.272a.1234.1234,0,0,0-.01.1782l5.2715,5.9614a.1235.1235,0,0,0,.1777.0107Z" transform="translate(-254.1286 -227.4095)"/><path class="cls-71" d="M644.0205,441.1074a2.5083,2.5083,0,0,1,1.8154,3.0391l-1.9473,7.7158a2.51,2.51,0,0,1-3.0391,1.8154l-7.7168-1.9473a2.4986,2.4986,0,0,1-1.8145-3.0391l1.9473-7.7168a2.4977,2.4977,0,0,1,3.0381-1.8145Zm-2.59,10.2646a.12.12,0,0,0,.1357-.0957l1.9463-7.7158a.1191.1191,0,0,0-.0732-.1484l-7.7168-1.9473a.1232.1232,0,0,0-.1533.0908l-1.9463,7.7168a.1232.1232,0,0,0,.0908.1533Z" transform="translate(-254.1286 -227.4095)"/></g><path class="cls-71" d="M301.7324,517.9707a4.8259,4.8259,0,0,1-4.0225,1.5273,6.2439,6.2439,0,0,1-3.7129-2.0332,7.4348,7.4348,0,0,1-2.0439-3.6133,2.3747,2.3747,0,0,1-1.5391-.4258,58.72,58.72,0,0,1-5.2314-4.9785q-7.1045-7.2144-13.626-14.8711a3.8135,3.8135,0,0,1-1.2559-2.6118,6.64,6.64,0,0,1,2.1973-3.4141,1.7754,1.7754,0,0,1,1.1807-.6538,2.4367,2.4367,0,0,1,1.3369.8726q.1963.2,3.63,4.32a22.3617,22.3617,0,0,1-1.1221-5.03,6.9755,6.9755,0,0,1,.9121-4.4019,4.81,4.81,0,0,1,.7021-.89,4.5294,4.5294,0,0,1,2.8691-1.2461,6.45,6.45,0,0,1,3.7139.9155,8.5116,8.5116,0,0,1,1.9941,1.4893,7.0171,7.0171,0,0,1,1.082,1.4336q2.2749,3.9463,1.2471,10.4517.4673-.5266,1.0176-1.07a5.5088,5.5088,0,0,1,4.44-1.9048,7.5652,7.5652,0,0,1,4.59,2.4214,12.6014,12.6014,0,0,1,2.1484,2.95,22.2836,22.2836,0,0,1,2.4854,7.6846,20.8094,20.8094,0,0,1-.4365,8.0928A10.465,10.465,0,0,1,301.7324,517.9707Zm-15.9072-17.7222a24.2968,24.2968,0,0,0,.0293-7.0186,18.2483,18.2483,0,0,0-2.2119-6.6216,8.59,8.59,0,0,0-1.1963-1.7168q-1.0854-1.1016-1.8711-.3286-1.37,1.3477.2754,7.2944A20.938,20.938,0,0,0,285.8252,500.2485Zm11.45,15.5327a5.19,5.19,0,0,0,.9307-1.5078,9.827,9.827,0,0,0,.7051-2.373,25.0225,25.0225,0,0,0,.1875-7.0586,26.93,26.93,0,0,0-1.3926-6.3589,8.0214,8.0214,0,0,0-1.6533-2.8467,3.89,3.89,0,0,0-1.2285-.8135,2.42,2.42,0,0,0-2.0322.3413,6.33,6.33,0,0,0-1.45,1.0659q-2.0391,2.0068-2.9531,6.8892,2.9736,3.2871,3.3857,3.7705a27.9424,27.9424,0,0,1,1.4463-4.8447,2.7644,2.7644,0,0,1,.5693-.9238,1.265,1.265,0,0,1,1.1787-.2729,1.3083,1.3083,0,0,1,.6777.2534.2517.2517,0,0,1,.0137.3164,13.2117,13.2117,0,0,0-1.2187,3.3711,24.3551,24.3551,0,0,0-.6035,5.2656q-.0469,4.0605,1.6621,5.7969A1.1118,1.1118,0,0,0,297.2754,515.7813Z" transform="translate(-254.1286 -227.4095)"/><path class="cls-71" d="M328.8457,493.9824q-2.5093,1.7688-6.0605-3.269-1.0664-1.5132-5.2373-8.1226-4.2642-6.7434-5.8633-9.1729.7236,2.8176,1.48,5.6392,1.6758,6.2439,3.2051,12.479a13.9746,13.9746,0,0,1,.5146,4.4536,3.1639,3.1639,0,0,1-1.28,2.3936q-1.5908,1.1213-4.6494-.88a26.0782,26.0782,0,0,1-6.4883-6.8672q-2.77-3.9265-7.2207-11.3413-1.8691-3.0981-3.2588-5.2734-1.9307-3.0264-.7627-4.8247a5.7246,5.7246,0,0,1,1.4844-1.4761,3.4044,3.4044,0,0,1,2.4707-.7656,3.0964,3.0964,0,0,1,2.0078,1.4233q.5654.8049,3.4824,6.4053,3.5713,6.9441,8.6133,14.9473,1.0371,1.6772,1.6455,2.5386.7031.9976.8555.8882.2886-.2021-1.3486-6.103-1.5205-5.4939-3.09-12.0732-.7148-2.9656-1.5273-5.748a17.0788,17.0788,0,0,0-1.499-3.875,12.6354,12.6354,0,0,1-1.2363-2.2822,2.7676,2.7676,0,0,1-.1084-1.9033,3.8246,3.8246,0,0,1,1.5547-1.7827,5.6285,5.6285,0,0,1,2.4814-1.1763,1.5754,1.5754,0,0,1,1.3574.4194,9.4521,9.4521,0,0,1,.7158.8726q.3765.5369.8057,1.2666,8.4536,15.0029,17.2314,29.7764a3.9635,3.9635,0,0,1,.667,1.9824A1.878,1.878,0,0,1,328.8457,493.9824Z" transform="translate(-254.1286 -227.4095)"/><path class="cls-71" d="M341.6094,485.3989q-3.2007,1.5132-7.7383-2.3818a26.6884,26.6884,0,0,1-6.5-9.0322,43.15,43.15,0,0,1-2.7539-7.85q-2.26-8.7832.7813-14.5767a7.9814,7.9814,0,0,1,3.6436-3.6421q3.5391-1.6736,5.5527,2.585a6.44,6.44,0,0,1,.8018,3.6138,1.007,1.007,0,0,1-.4473.8081q-.53.25-1.2324-1.2329l-.8105-1.7686a13.9937,13.9937,0,0,0-.9072-1.5923,1.031,1.031,0,0,0-1.4258-.4932q-.9771.4622-1.38,2.6748-.8218,4.511,2.3232,14.5615a28.6,28.6,0,0,1,5.7813-4.0571,4.1107,4.1107,0,0,1,2.2432-.4385,1.7987,1.7987,0,0,1,1.499,1.0024.4569.4569,0,0,1-.2471.687l-1.292.6113a32.7491,32.7491,0,0,0-6.9687,5.11q.6929,1.9021,1.4834,3.5762.4014.8481,1.2373,2.4224a13.8035,13.8035,0,0,0,2.2705,3.0742q2.1226,2.1863,3.9873,1.3042a4.2466,4.2466,0,0,0,1.0771-.8467q1.1895-1.2114,2.4033-5.8818l.3672-1.418q.3281-1.166.7314-1.3574.4248-.2.6943.3716.0117.0212.3789.8843.3706.8621-1.1924,6.5527a15.6068,15.6068,0,0,1-2.31,4.9814A5.3863,5.3863,0,0,1,341.6094,485.3989Z" transform="translate(-254.1286 -227.4095)"/><path class="cls-71" d="M363.7178,478.752a2.1141,2.1141,0,0,1-2.0566-.4062,8.7752,8.7752,0,0,1-2.3809-4.4985q-.7837-2.8469-1.8037-7.2583L352.42,444.7661q-4.7095,2.1475-8.2061,4.1055a6.0006,6.0006,0,0,1-1.3.5767q-1.22.3362-1.4941-.6587a4.23,4.23,0,0,1,.3008-2.44,3.6217,3.6217,0,0,1,.5537-1.1733,7.3293,7.3293,0,0,1,2.0742-1.47,83.9285,83.9285,0,0,1,7.8467-3.6426,3.2539,3.2539,0,0,1,2.1895-1.4043,4.9815,4.9815,0,0,1,2.6611-.2222,27.4236,27.4236,0,0,1,8.1182-1.2378q4.3682.2322,4.9082,2.1978a1.0776,1.0776,0,0,1-.0186.6377,1.098,1.098,0,0,1-.8018.7065,2.5327,2.5327,0,0,1-.835.06,22.5142,22.5142,0,0,0-7.7.9038c-.6035.166-1.2158.3511-1.8418.5552q2.9268,16.7219,6.1738,33.3784a4.2672,4.2672,0,0,1,.0332,2.0693A1.7624,1.7624,0,0,1,363.7178,478.752Z" transform="translate(-254.1286 -227.4095)"/><path class="cls-74" d="M398.95,474.2622q-5.4053-.2754-8.5713-8.6387a40.0142,40.0142,0,0,1-2.16-16.3374,65.8323,65.8323,0,0,1,1.9375-12.4692q3.2432-13.2466,11.3389-18.7485a12.31,12.31,0,0,1,7.6514-2.3208q5.8271.2966,5.5156,6.4414-.2271,4.459-1.7295,6.3188-.6387.7771-1.165.75-.9126-.0454-.7969-2.3281l.19-3.0527a23.5349,23.5349,0,0,0-.0518-2.7837q-.1113-1.59-1.5176-1.6616-1.6157-.082-3.7207,2.5566a22.5025,22.5025,0,0,0-3.5029,6.5806,94.4731,94.4731,0,0,0-3.1514,11.42,84.3555,84.3555,0,0,0-1.93,13.7012,29.6617,29.6617,0,0,0,.7949,9.2983q1.1836,4.3909,4.2744,4.5479a6.2247,6.2247,0,0,0,2.0605-.3882q2.36-.7251,7.3105-5.999l1.5273-1.6475q1.2642-1.3081,1.9316-1.2744a.6636.6636,0,0,1,.4121.1968,1.3166,1.3166,0,0,1,.2988,1.0366,5.4118,5.4118,0,0,1-1.1016,2.9707,74.6193,74.6193,0,0,1-5.3057,6.0308,23.3685,23.3685,0,0,1-6.5889,4.9448A8.08,8.08,0,0,1,398.95,474.2622Z" transform="translate(-254.1286 -227.4095)"/><path class="cls-74" d="M423.9541,479.728a10.1494,10.1494,0,0,1-5.8916-3.94,7.3025,7.3025,0,0,1-.9727-6.4014,8.7555,8.7555,0,0,1,3.49-4.7949,17.7994,17.7994,0,0,1,9.1152-3.1172,11.7672,11.7672,0,0,1,4.165.2476,3.4631,3.4631,0,0,1,2.1777,1.4829,2.5735,2.5735,0,0,1,.3369,2.0645.22.22,0,0,1-.252.1851,4.165,4.165,0,0,1-.6357-.14,18.3427,18.3427,0,0,0-9.16.2583,12.831,12.831,0,0,0-3.6309,1.5068,5.8092,5.8092,0,0,0-2.7559,3.21,2.1022,2.1022,0,0,0,.1221,1.53,4.88,4.88,0,0,0,3.3574,2.3589,10.5629,10.5629,0,0,0,6.0166-.1123,22.62,22.62,0,0,0,9.8125-5.8794,11.4794,11.4794,0,0,0,3.0264-4.7046q.47-1.6934-1.291-3.2969a30.9377,30.9377,0,0,0-4.58-3.3379,45.903,45.903,0,0,1-5.3809-3.8716,10.0039,10.0039,0,0,1-3.373-4.99,14.0561,14.0561,0,0,1-.13-7.9194,19.8956,19.8956,0,0,1,4.2764-7.75,25.5477,25.5477,0,0,1,6.6025-5.4961,22.6153,22.6153,0,0,1,8.2051-2.86,20.7721,20.7721,0,0,1,8.6006.5708,5.1021,5.1021,0,0,1,3.7217,3.5366,10.9409,10.9409,0,0,1-.1221,6.3345,24.0343,24.0343,0,0,1-5.6074,9.3862q-1.96,2.1907-3.1455,1.8608-1.0488-.293-.625-1.8164a12.2922,12.2922,0,0,1,1.4531-2.9888,33.2291,33.2291,0,0,0,4.001-8.3379q1.002-3.59-.6924-4.0615-1.3564-.3779-3.9062.9189a44.5243,44.5243,0,0,0-9.85,7.584,14.0553,14.0553,0,0,0-4.1123,6.1172,8.2284,8.2284,0,0,0-.2246,3.2949,6.124,6.124,0,0,0,1.8477,3.6533,25.9334,25.9334,0,0,0,3.5557,2.8882,34.6111,34.6111,0,0,1,3.7432,2.94q4.1543,3.821,2.4648,9.8838a16.3993,16.3993,0,0,1-3.5146,6.4648,24.5355,24.5355,0,0,1-12.9834,7.6973A14.5256,14.5256,0,0,1,423.9541,479.728Z" transform="translate(-254.1286 -227.4095)"/><path class="cls-74" d="M457.8643,489.7061q-4.793-2.2815-4.5723-11.249a40.0043,40.0043,0,0,1,4.3262-16.1235,64.7125,64.7125,0,0,1,6.5078-10.6465q8.0581-10.96,17.6768-12.9229a11.9841,11.9841,0,0,1,7.6885.7788q5.3027,2.5232,2.2646,8.9038a9.6355,9.6355,0,0,1-3.4375,4.3594,1.5065,1.5065,0,0,1-1.3643.2471q-.7939-.3779.2646-2.6l1.2861-2.6191a21.2222,21.2222,0,0,0,.9873-2.5669,1.5435,1.5435,0,0,0-.78-2.1235q-1.459-.6951-4.415.9351-6.022,3.3237-14.7148,16.5127a42.907,42.907,0,0,1,10.1982,2.87,6.1675,6.1675,0,0,1,2.6377,2.19,2.6917,2.6917,0,0,1,.2559,2.6919.6839.6839,0,0,1-1.0312.3657l-1.9355-.9219q-3.9683-1.89-12.5488-3.248-1.5557,2.61-2.7471,5.1167-.605,1.27-1.6416,3.7354a20.8573,20.8573,0,0,0-1.4189,5.5552q-.5244,4.5381,2.2686,5.8682a6.3372,6.3372,0,0,0,2.0059.4492q2.5371.2344,9.1143-2.7876l1.9951-.9189q1.6685-.7244,2.2725-.437c.4219.2012.499.5879.2256,1.1592q-.0146.0322-.666,1.2793-.6533,1.2466-8.7451,4.832a23.4138,23.4138,0,0,1-7.98,2.041A8.08,8.08,0,0,1,457.8643,489.7061Z" transform="translate(-254.1286 -227.4095)"/><path class="cls-74" d="M501.458,516.2148A3.3486,3.3486,0,0,1,499.6,513.57a8.2911,8.2911,0,0,1,.5293-3.6562,25.017,25.017,0,0,1,1.7578-3.832q.7793-1.377,11.28-18.0571a32.5512,32.5512,0,0,1-4.208-1.1245,1.5366,1.5366,0,0,1-.8789-1.1611,2.07,2.07,0,0,1,.2461-1.2944,2.74,2.74,0,0,1,3.32-1.2349q1.3228.3025,3.9648.9858l9.6113-15.89a44.3081,44.3081,0,0,0-7.4912-1.6035,4.2894,4.2894,0,0,1-1.5068-.4062q-.7954-.45-.2949-1.3369a6.3826,6.3826,0,0,1,2.59-2.6562q1.9863-1.0181,7.32.6187,14.8506,4.5857,19.627,7.2813,1.4385.8123,3.6064,2.3374a8.616,8.616,0,0,1,3.14,4.0933,5.0506,5.0506,0,0,1-.5527,4.4111q-.501.8884-1.0518.5771a.8939.8939,0,0,1-.2852-.2817,24.2285,24.2285,0,0,0-7.3262-5.83,63.2148,63.2148,0,0,0-7.41-3.5361q-.731,1.0811-10.6113,15.0845a22.5052,22.5052,0,0,1,3.3877,1.5073,7.8065,7.8065,0,0,1,2.2549,1.7983,2.4069,2.4069,0,0,1,.0117,2.9126c-.2187.3882-.4209.53-.6035.4263-.0215-.0112-.085-.0542-.1914-.1279s-.3838-.2368-.833-.49a25.13,25.13,0,0,0-6.5059-2.4209q-8.2441,11.8184-16.2891,23.7886a7.6666,7.6666,0,0,1-1.9922,2.207Q503.2949,517.249,501.458,516.2148Z" transform="translate(-254.1286 -227.4095)"/><path class="cls-74" d="M535.6035,531.502q-4.998-1.7871-5.6855-10.73a40.0424,40.0424,0,0,1,2.6768-16.4785,64.7518,64.7518,0,0,1,5.4014-11.2476q6.91-11.718,16.2813-14.6416a11.9882,11.9882,0,0,1,7.7285-.0015q5.5283,1.9753,3.15,8.63a9.63,9.63,0,0,1-2.98,4.6846,1.5056,1.5056,0,0,1-1.3311.3828q-.8276-.2959,0-2.6133l1.0146-2.7363a21.2254,21.2254,0,0,0,.7246-2.6528,1.5454,1.5454,0,0,0-.99-2.0342q-1.5249-.5442-4.3,1.376-5.6543,3.9163-12.9717,17.9146a42.8789,42.8789,0,0,1,10.4365,1.8252,6.1584,6.1584,0,0,1,2.8447,1.9121,2.6888,2.6888,0,0,1,.5264,2.6514.683.683,0,0,1-.9883.4688l-2.02-.7217q-4.1382-1.478-12.8125-1.9639-1.2832,2.7524-2.2168,5.3672-.4731,1.3242-1.2559,3.8828a20.8033,20.8033,0,0,0-.85,5.6689q-.0645,4.5688,2.8486,5.6094a6.2461,6.2461,0,0,0,2.041.2432q2.5459-.022,8.7852-3.6914l1.8926-1.1152q1.5864-.8906,2.2158-.666.6606.2373.3428,1.1309c-.0068.0234-.1865.47-.5342,1.34s-3.0859,2.7676-8.2119,5.69a23.4064,23.4064,0,0,1-7.7334,2.8369A8.0775,8.0775,0,0,1,535.6035,531.502Z" transform="translate(-254.1286 -227.4095)"/><path class="cls-74" d="M567.0332,542.2549a10.1575,10.1575,0,0,1-6.3467-3.1543,7.3035,7.3035,0,0,1-1.7812-6.2256,8.7575,8.7575,0,0,1,2.8467-5.2012,17.78,17.78,0,0,1,8.6436-4.2559,11.7241,11.7241,0,0,1,4.1611-.2871,3.4645,3.4645,0,0,1,2.3506,1.1914,2.5794,2.5794,0,0,1,.5977,2.0059.2187.2187,0,0,1-.2256.2148,4.3016,4.3016,0,0,1-.6494-.0576,18.3437,18.3437,0,0,0-9.0508,1.4268,12.7432,12.7432,0,0,0-3.4082,1.959,5.8107,5.8107,0,0,0-2.3242,3.5352,2.1132,2.1132,0,0,0,.3154,1.502,4.88,4.88,0,0,0,3.6328,1.91,10.5682,10.5682,0,0,0,5.9531-.8789,22.6283,22.6283,0,0,0,8.9795-7.0859,11.4434,11.4434,0,0,0,2.3994-5.0527q.2534-1.74-1.6992-3.1055a30.93,30.93,0,0,0-4.9707-2.7246,45.9291,45.9291,0,0,1-5.8311-3.1523,10.0052,10.0052,0,0,1-3.9834-4.5176,14.06,14.06,0,0,1-1.1406-7.8379,19.9014,19.9014,0,0,1,3.25-8.2329,25.5472,25.5472,0,0,1,5.8467-6.2954,22.6152,22.6152,0,0,1,7.7725-3.8848,20.7887,20.7887,0,0,1,8.6025-.5337,5.1064,5.1064,0,0,1,4.1436,3.0322,10.9629,10.9629,0,0,1,.6895,6.2979,24.0585,24.0585,0,0,1-4.3623,10.0269q-1.6641,2.4229-2.8828,2.248-1.0781-.1567-.8516-1.7227a12.2948,12.2948,0,0,1,1.0586-3.15,33.1808,33.1808,0,0,0,2.9033-8.78q.5332-3.6885-1.207-3.9395-1.3916-.2021-3.7559,1.4106a44.5145,44.5145,0,0,0-8.8,8.7808,14.0636,14.0636,0,0,0-3.2979,6.5928,8.2428,8.2428,0,0,0,.2,3.2959,6.12,6.12,0,0,0,2.2988,3.3877,25.92,25.92,0,0,0,3.8955,2.41,34.7226,34.7226,0,0,1,4.0889,2.4375q4.6084,3.2607,3.709,9.4873a16.418,16.418,0,0,1-2.6611,6.8623,24.5209,24.5209,0,0,1-11.8936,9.293A14.5285,14.5285,0,0,1,567.0332,542.2549Z" transform="translate(-254.1286 -227.4095)"/><path class="cls-74" d="M619.2344,543.34a3.1734,3.1734,0,0,1-2.9756-1.0146q-1.9541-2.1138-2.6387-7.1641-.5947-4.39-1.2275-11.1514l-3.1494-33.4546q-7.4312,2.2493-13.02,4.4609a9.0054,9.0054,0,0,1-2.0479.5967q-1.8809.2549-2.09-1.2778a6.3474,6.3474,0,0,1,.9365-3.5684,5.4617,5.4617,0,0,1,1.0557-1.6323,11.005,11.005,0,0,1,3.38-1.7715A125.9764,125.9764,0,0,1,609.85,483.52q.8892-1.292,3.5371-1.65a7.5072,7.5072,0,0,1,4.002.2026q7.9819-1.0459,12.3164-.2144,6.4453,1.22,6.8555,4.25a1.6138,1.6138,0,0,1-.1553.9438,1.6482,1.6482,0,0,1-1.335.89,3.7977,3.7977,0,0,1-1.252-.0786,33.7908,33.7908,0,0,0-11.6279-.1978q-1.3945.189-2.8477.457,1,25.4421,2.4941,50.856a6.4441,6.4441,0,0,1-.3633,3.082A2.645,2.645,0,0,1,619.2344,543.34Z" transform="translate(-254.1286 -227.4095)"/><path class="cls-71" d="M657.2051,528.2676a3.5275,3.5275,0,0,1-1.2354.3594q-.65.0659-1.5869-1.43a8.33,8.33,0,0,1-.4541-.7949,7.0121,7.0121,0,0,1-.4932-1.34,19.2527,19.2527,0,0,1-.3916-2.7031,82.1618,82.1618,0,0,1-.2871-10.459q.082-3.48.6582-12.6968a7.818,7.818,0,0,0-.2207-3.3008q-.4424-.8789-1.6982-.2451a6.7153,6.7153,0,0,0-1.0664.6948,40.259,40.259,0,0,0-4.0977,3.5361,7.93,7.93,0,0,1-1.63,1.2949,1.474,1.474,0,0,1-.9687.1855.8151.8151,0,0,1-.6045-.4429q-.56-1.1082.9863-2.623a26.263,26.263,0,0,1,6-4.7588,14.7627,14.7627,0,0,1,2.1563-.8247,4.19,4.19,0,0,1,3.168.5024,6.0041,6.0041,0,0,1,2.7539,2.5483c.0283.0562.1738.3774.4336.9634a7.6006,7.6006,0,0,1,.3457,2.9751q-.2212,11.7949-.2549,23.5957,4.2788-2.71,8.7988-4.9883l1.2227-.5918a2.2963,2.2963,0,0,1,2.0977-.0586,1.8158,1.8158,0,0,1,.8418.7832,2.6587,2.6587,0,0,1,.19.9q.0542.63-1.42,1.4512-11.5181,6.36-12.2617,6.8652A7.9536,7.9536,0,0,1,657.2051,528.2676Z" transform="translate(-254.1286 -227.4095)"/><path class="cls-71" d="M683.6934,512.81a7.9607,7.9607,0,0,1-2.4912,1.2217,6.9047,6.9047,0,0,1-6.3086-1.7187,26.6444,26.6444,0,0,1-4.4814-5.1621q-1.3271-1.9043-2.5889-3.8809-8.8579-13.7388-1.2588-19.0308,4.9028-3.416,14.1465,9.8545a37.4015,37.4015,0,0,1,4.0186,7.37,16.0386,16.0386,0,0,1,1.3662,6.3887,7.1875,7.1875,0,0,1-.666,3.0625A5.4551,5.4551,0,0,1,683.6934,512.81Zm-.7969-3.0732q1.6538-1.1514-1.4121-7.3564a64.8813,64.8813,0,0,0-5.0283-8.4077q-6.3765-9.1545-8.28-7.8291-3.1919,2.2236,7.7656,17.9565Q680.8589,511.1572,682.8965,509.7363Z" transform="translate(-254.1286 -227.4095)"/><path class="cls-71" d="M696.2988,503.5977a3.499,3.499,0,0,1-1.1006.668q-.6094.2344-1.9043-.9687c-.2314-.2109-.4453-.43-.6436-.65a6.9145,6.9145,0,0,1-.8242-1.166,19,19,0,0,1-1.0791-2.5083,81.9983,81.9983,0,0,1-2.9912-10.0273q-.8247-3.3823-2.6582-12.4316a7.8327,7.8327,0,0,0-1.07-3.13q-.6562-.7354-1.7041.2031a6.81,6.81,0,0,0-.8506.9487,40.3283,40.3283,0,0,0-3.0391,4.4775,7.8751,7.8751,0,0,1-1.2373,1.6729,1.49,1.49,0,0,1-.8887.4321.8176.8176,0,0,1-.6973-.2715q-.8276-.9258.2715-2.79a26.215,26.215,0,0,1,4.5605-6.1523,14.4424,14.4424,0,0,1,1.8682-1.3555,4.1876,4.1876,0,0,1,3.1895-.3369,6.01,6.01,0,0,1,3.3213,1.7461c.041.0469.2646.3193.668.8179a7.6056,7.6056,0,0,1,1.1055,2.7837q2.8477,11.4463,5.8779,22.8525,3.4277-3.7244,7.2021-7.1l1.0283-.8887a2.2947,2.2947,0,0,1,2.0088-.6011,1.8056,1.8056,0,0,1,1.0156.5376,2.6815,2.6815,0,0,1,.4189.8208q.2168.5925-.9951,1.77-9.4746,9.13-10.06,9.811A8.0185,8.0185,0,0,1,696.2988,503.5977Z" transform="translate(-254.1286 -227.4095)"/><path class="cls-71" d="M717.5918,482.7227a7.95,7.95,0,0,1-2.1592,1.7422,6.906,6.906,0,0,1-6.5332-.28,26.6787,26.6787,0,0,1-5.5107-4.0439q-1.7153-1.563-3.3838-3.2124-11.6733-11.4412-5.4336-18.2822,4.0254-4.415,15.9746,6.4829a37.37,37.37,0,0,1,5.5479,6.2983,16.0568,16.0568,0,0,1,2.7451,5.93,7.1849,7.1849,0,0,1,.0273,3.1338A5.4415,5.4415,0,0,1,717.5918,482.7227Zm-1.457-2.8193q1.3579-1.489-3.002-6.8628a64.9864,64.9864,0,0,0-6.7627-7.0894q-8.2441-7.5176-9.8066-5.8037-2.6221,2.874,11.543,15.7944Q714.4624,481.7383,716.1348,479.9033Z" transform="translate(-254.1286 -227.4095)"/></svg>