<svg id="Layer_7" data-name="Layer 7" xmlns="http://www.w3.org/2000/svg" xmlns:xlink="http://www.w3.org/1999/xlink" viewBox="0 0 1000 1000"><defs><style>.cls-1{fill:url(#linear-gradient);}.cls-2,.cls-66,.cls-67,.cls-72,.cls-73{fill:none;}.cls-2{stroke:#9d1f60;}.cls-2,.cls-66,.cls-67,.cls-68,.cls-69,.cls-70,.cls-72,.cls-73{stroke-miterlimit:10;}.cls-3{fill:url(#linear-gradient-2);}.cls-4{fill:url(#linear-gradient-3);}.cls-5{fill:url(#linear-gradient-4);}.cls-6{fill:url(#linear-gradient-5);}.cls-7{fill:url(#linear-gradient-6);}.cls-8{fill:url(#linear-gradient-7);}.cls-9{fill:url(#linear-gradient-8);}.cls-10{fill:url(#linear-gradient-9);}.cls-11{fill:url(#linear-gradient-10);}.cls-12{fill:url(#linear-gradient-11);}.cls-13{fill:url(#linear-gradient-12);}.cls-14{fill:url(#linear-gradient-13);}.cls-15{fill:url(#linear-gradient-14);}.cls-16{fill:url(#linear-gradient-15);}.cls-17{fill:url(#linear-gradient-16);}.cls-18{fill:url(#linear-gradient-17);}.cls-19{fill:url(#linear-gradient-18);}.cls-20{fill:url(#linear-gradient-19);}.cls-21{fill:url(#linear-gradient-20);}.cls-22{fill:url(#linear-gradient-21);}.cls-23{fill:url(#linear-gradient-22);}.cls-24{fill:url(#linear-gradient-23);}.cls-25{fill:url(#linear-gradient-24);}.cls-26{fill:url(#linear-gradient-25);}.cls-27{fill:url(#linear-gradient-26);}.cls-28{fill:url(#linear-gradient-27);}.cls-29{fill:url(#linear-gradient-28);}.cls-30{fill:url(#linear-gradient-29);}.cls-31{fill:url(#linear-gradient-30);}.cls-32{fill:url(#linear-gradient-31);}.cls-33{fill:url(#linear-gradient-32);}.cls-34{fill:url(#linear-gradient-33);}.cls-35{fill:url(#linear-gradient-34);}.cls-36{fill:url(#linear-gradient-35);}.cls-37{fill:url(#linear-gradient-36);}.cls-38{fill:url(#linear-gradient-37);}.cls-39{fill:url(#linear-gradient-38);}.cls-40{fill:url(#linear-gradient-39);}.cls-41{fill:url(#linear-gradient-40);}.cls-42{fill:url(#linear-gradient-41);}.cls-43{fill:url(#linear-gradient-42);}.cls-44{fill:url(#linear-gradient-43);}.cls-45{fill:url(#linear-gradient-44);}.cls-46{fill:url(#linear-gradient-45);}.cls-47{fill:url(#linear-gradient-46);}.cls-48{fill:url(#linear-gradient-47);}.cls-49{fill:url(#linear-gradient-48);}.cls-50{fill:url(#linear-gradient-49);}.cls-51{fill:url(#linear-gradient-50);}.cls-52{fill:url(#linear-gradient-51);}.cls-53{fill:url(#linear-gradient-52);}.cls-54{fill:url(#linear-gradient-53);}.cls-55{fill:url(#linear-gradient-54);}.cls-56{fill:url(#linear-gradient-55);}.cls-57{fill:url(#linear-gradient-56);}.cls-58{fill:url(#linear-gradient-57);}.cls-59{fill:url(#linear-gradient-58);}.cls-60{fill:url(#linear-gradient-59);}.cls-61{fill:url(#linear-gradient-60);}.cls-62{fill:url(#linear-gradient-61);}.cls-63{fill:url(#linear-gradient-62);}.cls-64{fill:url(#linear-gradient-63);}.cls-65{fill:url(#linear-gradient-64);}.cls-66,.cls-67,.cls-68,.cls-69,.cls-70,.cls-72,.cls-73{stroke:#fff;}.cls-66{stroke-width:2px;}.cls-67{stroke-width:1.75px;}.cls-68,.cls-69,.cls-72{stroke-width:1.5px;}.cls-69,.cls-70,.cls-71,.cls-74,.cls-75,.cls-76,.cls-77,.cls-78,.cls-79,.cls-80,.cls-81{fill:#fff;}.cls-70{stroke-width:0.75px;}.cls-73{stroke-width:0.68px;}.cls-74{font-size:24px;}.cls-74,.cls-75,.cls-76,.cls-77,.cls-78{font-family:Orbitron-Bold, Orbitron;font-weight:700;}.cls-75{font-size:21px;}.cls-76{font-size:18px;}.cls-77{font-size:36px;}.cls-78{font-size:32px;}.cls-79{font-size:37px;}.cls-79,.cls-80,.cls-81{font-family:TheArmyOfGod, The Army Of God;}.cls-80{font-size:49px;}.cls-81{font-size:38px;}</style><linearGradient id="linear-gradient" x1="261.19" y1="479.11" x2="737.72" y2="479.11" gradientTransform="translate(66.77 -61.07) rotate(7.51)" gradientUnits="userSpaceOnUse"><stop offset="0" stop-color="#250048"/><stop offset="1" stop-color="#9d1f60"/></linearGradient><linearGradient id="linear-gradient-2" x1="-3126.8" y1="219.44" x2="-3045.87" y2="219.44" gradientTransform="matrix(0.97, -0.23, -0.23, -0.97, 3389.5, 83.27)" gradientUnits="userSpaceOnUse"><stop offset="0" stop-color="#9d1f60"/><stop offset="1" stop-color="#250048"/></linearGradient><linearGradient id="linear-gradient-3" x1="-3061.44" y1="97.79" x2="-3037.12" y2="97.79" xlink:href="#linear-gradient-2"/><linearGradient id="linear-gradient-4" x1="-2964.84" y1="118.98" x2="-2877.85" y2="118.98" xlink:href="#linear-gradient-2"/><linearGradient id="linear-gradient-5" x1="-3037.59" y1="148.23" x2="-2988.18" y2="148.23" xlink:href="#linear-gradient-2"/><linearGradient id="linear-gradient-6" x1="-2868.85" y1="103.23" x2="-2820.85" y2="103.23" xlink:href="#linear-gradient-2"/><linearGradient id="linear-gradient-7" x1="-3061.59" y1="166.98" x2="-3042.09" y2="166.98" xlink:href="#linear-gradient-2"/><linearGradient id="linear-gradient-8" x1="-3031.98" y1="84.66" x2="-2977.34" y2="84.66" xlink:href="#linear-gradient-2"/><linearGradient id="linear-gradient-9" x1="-2976.31" y1="204.43" x2="-2913.31" y2="204.43" xlink:href="#linear-gradient-2"/><linearGradient id="linear-gradient-10" x1="-2784.35" y1="129.86" x2="-2725.1" y2="129.86" xlink:href="#linear-gradient-2"/><linearGradient id="linear-gradient-11" x1="-3023.34" y1="249.12" x2="-2965.64" y2="249.12" xlink:href="#linear-gradient-2"/><linearGradient id="linear-gradient-12" x1="-3089.08" y1="128.82" x2="-3047.08" y2="128.82" xlink:href="#linear-gradient-2"/><linearGradient id="linear-gradient-13" x1="-3040.59" y1="200.32" x2="-3006.09" y2="200.32" xlink:href="#linear-gradient-2"/><linearGradient id="linear-gradient-14" x1="-2985.24" y1="153.07" x2="-2961.57" y2="153.07" xlink:href="#linear-gradient-2"/><linearGradient id="linear-gradient-15" x1="-2894.3" y1="59.76" x2="-2855.35" y2="59.76" xlink:href="#linear-gradient-2"/><linearGradient id="linear-gradient-16" x1="-2876.85" y1="157.1" x2="-2833.1" y2="157.1" xlink:href="#linear-gradient-2"/><linearGradient id="linear-gradient-17" x1="-2906.34" y1="182.98" x2="-2874.85" y2="182.98" xlink:href="#linear-gradient-2"/><linearGradient id="linear-gradient-18" x1="-2976.34" y1="59.12" x2="-2944.93" y2="59.12" xlink:href="#linear-gradient-2"/><linearGradient id="linear-gradient-19" x1="-3110.81" y1="160.32" x2="-3080.9" y2="160.32" xlink:href="#linear-gradient-2"/><linearGradient id="linear-gradient-20" x1="-2797.6" y1="88.98" x2="-2766.1" y2="88.98" xlink:href="#linear-gradient-2"/><linearGradient id="linear-gradient-21" x1="-2828.35" y1="146.36" x2="-2796.85" y2="146.36" xlink:href="#linear-gradient-2"/><linearGradient id="linear-gradient-22" x1="-2727.88" y1="158.99" x2="-2697.88" y2="158.99" xlink:href="#linear-gradient-2"/><linearGradient id="linear-gradient-23" x1="-2704.63" y1="181.2" x2="-2688.38" y2="181.2" xlink:href="#linear-gradient-2"/><linearGradient id="linear-gradient-24" x1="-2812.6" y1="110.4" x2="-2796.85" y2="110.4" xlink:href="#linear-gradient-2"/><linearGradient id="linear-gradient-25" x1="-2694.88" y1="195.85" x2="-2682.83" y2="195.85" xlink:href="#linear-gradient-2"/><linearGradient id="linear-gradient-26" x1="-3061.59" y1="270.6" x2="-3029.34" y2="270.6" xlink:href="#linear-gradient-2"/><linearGradient id="linear-gradient-27" x1="-2994.49" y1="193.21" x2="-2980.27" y2="193.21" xlink:href="#linear-gradient-2"/><linearGradient id="linear-gradient-28" x1="-2934.96" y1="52.26" x2="-2907.57" y2="52.26" xlink:href="#linear-gradient-2"/><linearGradient id="linear-gradient-29" x1="-2988" y1="120.4" x2="-2971.04" y2="120.4" xlink:href="#linear-gradient-2"/><linearGradient id="linear-gradient-30" x1="-2975.04" y1="94.72" x2="-2961.09" y2="94.72" xlink:href="#linear-gradient-2"/><linearGradient id="linear-gradient-31" x1="-2849.58" y1="57.33" x2="-2835.62" y2="57.33" xlink:href="#linear-gradient-2"/><linearGradient id="linear-gradient-32" x1="-2828.35" y1="67.64" x2="-2797.6" y2="67.64" xlink:href="#linear-gradient-2"/><linearGradient id="linear-gradient-33" x1="-3045.46" y1="237.8" x2="-3031.98" y2="237.8" xlink:href="#linear-gradient-2"/><linearGradient id="linear-gradient-34" x1="-7250.83" y1="759.69" x2="-7331.52" y2="765.79" gradientTransform="matrix(-0.98, 0.21, 0.21, 0.98, -6618.13, 1209.94)" xlink:href="#linear-gradient-2"/><linearGradient id="linear-gradient-35" x1="-7238.8" y1="643.49" x2="-7263.06" y2="645.32" gradientTransform="matrix(-0.98, 0.21, 0.21, 0.98, -6618.13, 1209.94)" xlink:href="#linear-gradient-2"/><linearGradient id="linear-gradient-36" x1="-7082.81" y1="659" x2="-7169.56" y2="665.56" gradientTransform="matrix(-0.98, 0.21, 0.21, 0.98, -6618.13, 1209.94)" xlink:href="#linear-gradient-2"/><linearGradient id="linear-gradient-37" x1="-7193.09" y1="689.67" x2="-7242.36" y2="693.39" gradientTransform="matrix(-0.98, 0.21, 0.21, 0.98, -6618.13, 1209.94)" xlink:href="#linear-gradient-2"/><linearGradient id="linear-gradient-38" x1="-7025.75" y1="644.72" x2="-7073.62" y2="648.34" gradientTransform="matrix(-0.98, 0.21, 0.21, 0.98, -6618.13, 1209.94)" xlink:href="#linear-gradient-2"/><linearGradient id="linear-gradient-39" x1="-7246.95" y1="709.54" x2="-7266.4" y2="711.01" gradientTransform="matrix(-0.98, 0.21, 0.21, 0.98, -6618.13, 1209.94)" xlink:href="#linear-gradient-2"/><linearGradient id="linear-gradient-40" x1="-7182.26" y1="625.9" x2="-7236.74" y2="630.02" gradientTransform="matrix(-0.98, 0.21, 0.21, 0.98, -6618.13, 1209.94)" xlink:href="#linear-gradient-2"/><linearGradient id="linear-gradient-41" x1="-7118.24" y1="745.36" x2="-7181.06" y2="750.11" gradientTransform="matrix(-0.98, 0.21, 0.21, 0.98, -6618.13, 1209.94)" xlink:href="#linear-gradient-2"/><linearGradient id="linear-gradient-42" x1="-6930.02" y1="670.92" x2="-6989.11" y2="675.39" gradientTransform="matrix(-0.98, 0.21, 0.21, 0.98, -6618.13, 1209.94)" xlink:href="#linear-gradient-2"/><linearGradient id="linear-gradient-43" x1="-7170.55" y1="790.25" x2="-7228.1" y2="794.6" gradientTransform="matrix(-0.98, 0.21, 0.21, 0.98, -6618.13, 1209.94)" xlink:href="#linear-gradient-2"/><linearGradient id="linear-gradient-44" x1="-7254.09" y1="673.46" x2="-7295.97" y2="676.62" gradientTransform="matrix(-0.98, 0.21, 0.21, 0.98, -6618.13, 1209.94)" xlink:href="#linear-gradient-2"/><linearGradient id="linear-gradient-45" x1="-7210.98" y1="742.32" x2="-7245.38" y2="744.92" gradientTransform="matrix(-0.98, 0.21, 0.21, 0.98, -6618.13, 1209.94)" xlink:href="#linear-gradient-2"/><linearGradient id="linear-gradient-46" x1="-7167.46" y1="700.2" x2="-7186.15" y2="701.61" gradientTransform="matrix(-0.98, 0.21, 0.21, 0.98, -6618.13, 1209.94)" xlink:href="#linear-gradient-2"/><linearGradient id="linear-gradient-47" x1="-7060.24" y1="601.59" x2="-7099.08" y2="604.52" gradientTransform="matrix(-0.98, 0.21, 0.21, 0.98, -6618.13, 1209.94)" xlink:href="#linear-gradient-2"/><linearGradient id="linear-gradient-48" x1="-7038" y1="698.75" x2="-7081.62" y2="702.05" gradientTransform="matrix(-0.98, 0.21, 0.21, 0.98, -6618.13, 1209.94)" xlink:href="#linear-gradient-2"/><linearGradient id="linear-gradient-49" x1="-7079.73" y1="725.09" x2="-7111.14" y2="727.46" gradientTransform="matrix(-0.98, 0.21, 0.21, 0.98, -6618.13, 1209.94)" xlink:href="#linear-gradient-2"/><linearGradient id="linear-gradient-50" x1="-7149.81" y1="601.23" x2="-7181.13" y2="603.6" gradientTransform="matrix(-0.98, 0.21, 0.21, 0.98, -6618.13, 1209.94)" xlink:href="#linear-gradient-2"/><linearGradient id="linear-gradient-51" x1="-7284.78" y1="702.52" x2="-7314.6" y2="704.78" gradientTransform="matrix(-0.98, 0.21, 0.21, 0.98, -6618.13, 1209.94)" xlink:href="#linear-gradient-2"/><linearGradient id="linear-gradient-52" x1="-6970.98" y1="631.09" x2="-7002.39" y2="633.47" gradientTransform="matrix(-0.98, 0.21, 0.21, 0.98, -6618.13, 1209.94)" xlink:href="#linear-gradient-2"/><linearGradient id="linear-gradient-53" x1="-7001.73" y1="688.47" x2="-7033.14" y2="690.84" gradientTransform="matrix(-0.98, 0.21, 0.21, 0.98, -6618.13, 1209.94)" xlink:href="#linear-gradient-2"/><linearGradient id="linear-gradient-54" x1="-6902.76" y1="701.16" x2="-6932.67" y2="703.42" gradientTransform="matrix(-0.98, 0.21, 0.21, 0.98, -6618.13, 1209.94)" xlink:href="#linear-gradient-2"/><linearGradient id="linear-gradient-55" x1="-6893.24" y1="723.88" x2="-6909.44" y2="725.11" gradientTransform="matrix(-0.98, 0.21, 0.21, 0.98, -6618.13, 1209.94)" xlink:href="#linear-gradient-2"/><linearGradient id="linear-gradient-56" x1="-7001.71" y1="653.11" x2="-7017.41" y2="654.29" gradientTransform="matrix(-0.98, 0.21, 0.21, 0.98, -6618.13, 1209.94)" xlink:href="#linear-gradient-2"/><linearGradient id="linear-gradient-57" x1="-6887.68" y1="738.69" x2="-6899.7" y2="739.6" gradientTransform="matrix(-0.98, 0.21, 0.21, 0.98, -6618.13, 1209.94)" xlink:href="#linear-gradient-2"/><linearGradient id="linear-gradient-58" x1="-7234.22" y1="812.68" x2="-7266.38" y2="815.11" gradientTransform="matrix(-0.98, 0.21, 0.21, 0.98, -6618.13, 1209.94)" xlink:href="#linear-gradient-2"/><linearGradient id="linear-gradient-59" x1="-7185.13" y1="735.97" x2="-7199.31" y2="737.05" gradientTransform="matrix(-0.98, 0.21, 0.21, 0.98, -6618.13, 1209.94)" xlink:href="#linear-gradient-2"/><linearGradient id="linear-gradient-60" x1="-7112.45" y1="594.53" x2="-7139.76" y2="596.59" gradientTransform="matrix(-0.98, 0.21, 0.21, 0.98, -6618.13, 1209.94)" xlink:href="#linear-gradient-2"/><linearGradient id="linear-gradient-61" x1="-7179.08" y1="668.03" x2="-7193" y2="669.08" gradientTransform="matrix(-0.98, 0.21, 0.21, 0.98, -6618.13, 1209.94)" xlink:href="#linear-gradient-2"/><linearGradient id="linear-gradient-62" x1="-7002.48" y1="609.78" x2="-7033.14" y2="612.1" gradientTransform="matrix(-0.98, 0.21, 0.21, 0.98, -6618.13, 1209.94)" xlink:href="#linear-gradient-2"/><linearGradient id="linear-gradient-63" x1="-7236.84" y1="780.59" x2="-7250.28" y2="781.6" gradientTransform="matrix(-0.98, 0.21, 0.21, 0.98, -6618.13, 1209.94)" xlink:href="#linear-gradient-2"/><linearGradient id="linear-gradient-64" x1="-7233.05" y1="666.03" x2="-7246.96" y2="667.08" gradientTransform="matrix(-0.98, 0.21, 0.21, 0.98, -6618.13, 1209.94)" xlink:href="#linear-gradient-2"/></defs><title>Logo Concentric Circle</title><ellipse class="cls-1" cx="499.33" cy="479.21" rx="238.1" ry="245.97" transform="translate(-115.59 161.65) rotate(-16.51)"/><ellipse class="cls-2" cx="499.78" cy="480.49" rx="245.96" ry="254.08" transform="translate(-115.94 161.83) rotate(-16.51)"/><circle class="cls-3" cx="334" cy="570.68" r="40.46"/><circle class="cls-4" cx="397.72" cy="680.73" r="12.16"/><circle class="cls-5" cx="517.5" cy="631.03" r="43.5"/><circle class="cls-6" cx="421.71" cy="623.34" r="24.7"/><circle class="cls-7" cx="595.57" cy="628.99" r="24"/><circle class="cls-8" cx="379.51" cy="613.93" r="9.75"/><circle class="cls-9" cx="444.16" cy="683.38" r="27.32"/><circle class="cls-10" cx="475.24" cy="553.14" r="31.5"/><circle class="cls-11" cx="677.29" cy="582.59" r="29.62"/><circle class="cls-12" cx="416.7" cy="520.9" r="28.85"/><circle class="cls-13" cx="372.36" cy="654.78" r="21"/><circle class="cls-14" cx="399.69" cy="574.99" r="17.25"/><circle class="cls-15" cx="459.05" cy="609.66" r="11.83"/><circle class="cls-16" cx="576.26" cy="678.14" r="19.48"/><circle class="cls-17" cx="573.48" cy="578.82" r="21.87"/><circle class="cls-18" cx="532.91" cy="561.72" r="15.75"/><circle class="cls-19" cx="492.83" cy="698.25" r="15.7"/><circle class="cls-20" cx="338.16" cy="630.42" r="14.95"/><circle class="cls-21" cx="660.16" cy="628.55" r="15.75"/><circle class="cls-22" cx="617.18" cy="579.67" r="15.75"/><circle class="cls-23" cx="711.42" cy="544.71" r="15"/><circle class="cls-24" cx="722.33" cy="519.36" r="8.12"/><circle class="cls-25" cx="633.02" cy="612.89" r="7.87"/><circle class="cls-26" cx="726.45" cy="503.36" r="6.03"/><circle class="cls-27" cx="362.18" cy="511.57" r="16.12"/><circle class="cls-28" cx="436.33" cy="573.74" r="7.11"/><circle class="cls-29" cx="532.73" cy="695.98" r="13.69"/><circle class="cls-30" cx="460.52" cy="642.86" r="8.48"/><circle class="cls-31" cx="477.51" cy="665.27" r="6.98"/><circle class="cls-32" cx="608.19" cy="673.18" r="6.98"/><circle class="cls-33" cx="634.7" cy="656.41" r="15.37"/><circle class="cls-34" cx="376.2" cy="541.98" r="6.74"/><circle class="cls-35" cx="666.59" cy="387.88" r="40.46"/><circle class="cls-36" cx="601.86" cy="280.96" r="12.16"/><circle class="cls-37" cx="483.87" cy="325.23" r="43.5"/><circle class="cls-38" cx="579.56" cy="334.12" r="24.7"/><circle class="cls-39" cx="405.77" cy="326.28" r="24"/><circle class="cls-40" cx="621.63" cy="344.06" r="9.75"/><circle class="cls-41" cx="557.86" cy="273.8" r="27.32"/><circle class="cls-42" cx="525.15" cy="403.64" r="31.5"/><circle class="cls-43" cx="323.48" cy="371.65" r="29.62"/><circle class="cls-44" cx="583.27" cy="436.61" r="28.85"/><circle class="cls-45" cx="631.98" cy="305.7" r="21"/><circle class="cls-46" cx="600.96" cy="382.74" r="17.25"/><circle class="cls-47" cx="541.61" cy="352.07" r="9.37"/><circle class="cls-48" cx="425.71" cy="277.38" r="19.48"/><circle class="cls-49" cx="427.24" cy="376.72" r="21.87"/><circle class="cls-50" cx="467.59" cy="394.34" r="15.75"/><circle class="cls-51" cx="509.38" cy="258.32" r="15.7"/><circle class="cls-52" cx="662.21" cy="328.34" r="14.95"/><circle class="cls-53" cx="341.19" cy="325.91" r="15.75"/><circle class="cls-54" cx="383.55" cy="375.33" r="15.75"/><circle class="cls-55" cx="288.87" cy="409.1" r="15"/><circle class="cls-56" cx="277.65" cy="434.31" r="8.12"/><circle class="cls-57" cx="368.13" cy="341.91" r="7.87"/><circle class="cls-58" cx="273.33" cy="450.26" r="6.03"/><circle class="cls-59" cx="637.67" cy="446.62" r="16.12"/><circle class="cls-60" cx="564.31" cy="383.53" r="7.11"/><circle class="cls-61" cx="469.45" cy="260.08" r="13.69"/><circle class="cls-62" cx="543.68" cy="318.49" r="6.98"/><circle class="cls-63" cx="367" cy="298.37" r="15.37"/><circle class="cls-64" cx="624.04" cy="416.04" r="6.74"/><circle class="cls-65" cx="595.95" cy="304.94" r="6.98"/><path id="dance" class="cls-66" d="M524.54,642.26a1.34,1.34,0,0,0,0,.2c.06.53.1,1.07.18,1.6s.18,1,.26,1.48a.92.92,0,0,1,0,.37,5.07,5.07,0,0,1-1.25,2.35c-.36.35-.69.74-1.06,1.08-.71.66-1.42,1.33-2.17,1.93a19.18,19.18,0,0,0-2,1.61,3.7,3.7,0,0,1-1.65,1,1.54,1.54,0,0,0-.85.65c-.2.33-.37.68-.56,1-.3.5-.64,1-1.3.91a3.76,3.76,0,0,0-1.06,0,1.48,1.48,0,0,0-1.16.46.55.55,0,0,1-.2.17.93.93,0,0,0-.48.58,4.46,4.46,0,0,1-.22.5c-.14.25-.3.48-.45.72a3.92,3.92,0,0,0-.44.7,10,10,0,0,0-.21,1,1.17,1.17,0,0,1-.42.79,1.25,1.25,0,0,1-1.93-.49,5.9,5.9,0,0,1-.46-2c0-1.12,0-2.24,0-3.35,0-.77,0-1.54,0-2.31a5.56,5.56,0,0,1,.31-1.51c.27-.76.2-.67.9-.46.19.06.49.07.59,0a1,1,0,0,1,.55-.31,3.06,3.06,0,0,1,2.11-.14,1.32,1.32,0,0,1,0-.24c0-.17-.05-.42,0-.48a.75.75,0,0,1,.55-.09,2.55,2.55,0,0,1,.8.33.35.35,0,0,0,.5-.07c.28-.27.6-.49.88-.76a3,3,0,0,0,.66-.81,2,2,0,0,1,.82-1c.15-.08.36-.22.38-.36a1.28,1.28,0,0,1,.57-.79s.13-.12.12-.17a1.67,1.67,0,0,1,.66-1.22.8.8,0,0,1,.84-.25,4.8,4.8,0,0,0,.78.05l-.21-.83a.51.51,0,0,1-.61-.15,15,15,0,0,1-1.38-2.22c-.48-.81-.49-1.79-1-2.6a.29.29,0,0,1,0-.1l-.23-.8c-.06-.21-.13-.42-.18-.64a5.2,5.2,0,0,0-.26-.9,5.46,5.46,0,0,1-.54-2c-.06-.52-.11-1-.17-1.55-.11-1-.23-1.93-.33-2.89a2.08,2.08,0,0,0-.42-1.38.18.18,0,0,1,0-.12,1,1,0,0,0-.87-.84l-.49-.1c-.31-.09-.41-.23-.35-.55a1.7,1.7,0,0,1,.06-.31c.25-.84.51-1.68.75-2.52q1-3.29,1.93-6.57c.27-.92.58-1.83.8-2.76a2,2,0,0,0-.17-1.64l-.59-.84a1.62,1.62,0,0,0-.59-.51,7.35,7.35,0,0,1-1.05-.61.92.92,0,0,1-.48-.72c0-.66,0-1.31.07-2s0-.59-.48-.78a14.22,14.22,0,0,0-2.12-.7,9.17,9.17,0,0,1-1.76-.78c-.66-.33-1.27-.73-1.93-1.05-1.11-.52-2.24-1-3.36-1.52a.47.47,0,0,0-.54,0c-.28.21-.44.13-.51-.14a2,2,0,0,1-.44,0s0-.19,0-.34c-.06,0-.16,0-.23,0a.49.49,0,0,1-.52-.06,2.31,2.31,0,0,0-.28-.1c-.12,0-.28-.06-.34-.14s-.21-.12-.36-.08a3,3,0,0,1-.61.13c-.34,0-.68,0-1,.05s-.54,0-.56-.24-.15-.23-.29-.28c-.3-.08-.36-.31-.14-.53s.22-.1.32-.17.23-.15.22-.21a.48.48,0,0,0-.21-.28,4.55,4.55,0,0,0-.51-.21,2.71,2.71,0,0,0-.52-.24c-.9-.19-1.81-.37-2.72-.54-.18,0-.33-.12-.26-.31a.39.39,0,0,1,.3-.16c.65,0,1.29,0,1.94,0l2.64.09a4.11,4.11,0,0,1,2.2.66.51.51,0,0,0,.48.07c.32-.06.7-.17.88.28,0,.06.16.09.25.12l.5.15c.25-.15.43-.09.59.22a.31.31,0,0,0,.15.15l1.53.43c1.06.3,2.1.65,3.16.92a12.54,12.54,0,0,1,3.22,1.26,6.26,6.26,0,0,0,2.31,1,14.84,14.84,0,0,1,2.49.68,11.09,11.09,0,0,0,1.4.37,4.66,4.66,0,0,1,2.44,1,3.9,3.9,0,0,0,1.76.93,3.48,3.48,0,0,1,1.45.59c.23.18.47.34.7.51a1.74,1.74,0,0,0,.78-2.06.91.91,0,0,1,.1-.62c.22-.45.49-.87.74-1.29a.9.9,0,0,1,.27-.28,3.5,3.5,0,0,0,.47-.25,1.36,1.36,0,0,1,.87-.4,5.52,5.52,0,0,0,.55-.07,3.06,3.06,0,0,1,1.64.2,8.44,8.44,0,0,1,1.87,1.18,1.65,1.65,0,0,1,.47.48c.12.21.13.48.24.69a2.1,2.1,0,0,1,.3,1.38c-.1.66-.21,1.32-.35,2a.5.5,0,0,0,.07.46c.24.28.49.54.71.83s.22.25.42.12a.65.65,0,0,1,.31-.08c.28,0,.34-.13.21-.4s-.22-.42-.32-.63a3.86,3.86,0,0,1-.25-.64c0-.09.08-.21.12-.31a.88.88,0,0,1,.23.14c.23.29.44.59.68.87a1.78,1.78,0,0,0,.38.28l.08-.07c-.08-.37-.15-.73-.25-1.1a.39.39,0,0,1,.23-.49c.05.1.11.19.15.28a9.91,9.91,0,0,0,.61,1.32,1.91,1.91,0,0,1,.42.84c0,.07.09.14.14.21s.15-.15.16-.24a7.93,7.93,0,0,0,.07-.84c0-.3.12-.42.4-.4,0,.37.07.75.1,1.13s0,.84,0,1.26a1.92,1.92,0,0,1,0,.24c0,.36-.08.73-.09,1.1a1.32,1.32,0,0,0,.12.35,1,1,0,0,1,.1.27c0,.29.08.59.1.89,0,.09,0,.22,0,.28a2,2,0,0,1-.48.45.5.5,0,0,0-.27.45c-.07,1-.12,2.06-.19,3.09a7.76,7.76,0,0,1-.11,1.07c-.11.63-.28,1.26-.39,1.9a7.25,7.25,0,0,1-1,3,.62.62,0,0,1-.64.31,3.18,3.18,0,0,1-2.16-1.21,14,14,0,0,0-2.89-2.82c-.19-.15-.3-.1-.46,0-.36.25-.72.5-1.09.73a10,10,0,0,0-1.21.77,9.39,9.39,0,0,0-1.92,1.91.35.35,0,0,0-.07.25c.17.46.35.91.54,1.36h-.3c.18.13.3.23.43.31a.73.73,0,0,1,.42.69.35.35,0,0,0,.06.22c.18.22.36.44.55.65a.83.83,0,0,1,.27.63c0,.06.07.13.11.18a2,2,0,0,1,.42.4c.48.85.94,1.72,1.42,2.57.35.6.73,1.19,1.1,1.78.24.4.52.78.75,1.18a1.58,1.58,0,0,1,.25,1.18.58.58,0,0,0,.13.57,1.71,1.71,0,0,1,.31.52c.39.87.77,1.74,1.14,2.62a11.35,11.35,0,0,1,.49,1.21,5.44,5.44,0,0,1,.11.81c.05.44.14.88.16,1.32,0,.59,0,1.18,0,1.77s0,1.15-.09,1.72c-.09.79-.19,1.59-.32,2.37a3.85,3.85,0,0,1-.34,1.17,13.1,13.1,0,0,1-.89,1.22,3.56,3.56,0,0,1-1,1.27.23.23,0,0,0-.07.2c.19.19.21.46.32.68a2.88,2.88,0,0,0,.47.53,2.11,2.11,0,0,1,.19.23,4.81,4.81,0,0,0,.49.67c.35.34.76.62,1.12,1a2.64,2.64,0,0,1,.77,1.34c.14.58-.1,1-.6,1a5.57,5.57,0,0,1-1.63,0,17.4,17.4,0,0,1-2.13-.52,8.48,8.48,0,0,1-3.46-2.11c-.1-.1-.24-.23-.25-.35,0-.34.06-.69.06-1,0-.62-.05-1.25-.08-1.9-.15.18-.25.1-.37,0s-.39-.32-.58-.49-.18-.18-.18-.28a3.19,3.19,0,0,1,0-.69.21.21,0,0,1,.11-.16c.39-.16.46-.5.52-.85s0-.47.17-.56a1.88,1.88,0,0,1,1.23-.4c.43,0,.76-.29.62-.71a1.8,1.8,0,0,1,.25-1.65.75.75,0,0,0,.09-.37c0-.25,0-.52,0-.77a1.15,1.15,0,0,0-.18-.95.71.71,0,0,1,0-.91,1.14,1.14,0,0,0,.09-.19,1,1,0,0,0-.3,0c-.3.13-.42,0-.55-.27-.27-.46-.56-.9-.84-1.34l-.45-.66Zm6-25.85c.38.49.78,1,1.13,1.49a.84.84,0,0,1,.08.57.47.47,0,0,0,.17.41c.24.28.48.56.71.85a4,4,0,0,1,.32.54c.1.19.21.21.29,0a6.66,6.66,0,0,0,.41-1.1c.19-.68.33-1.36.49-2a1.36,1.36,0,0,0-.61-1.56,2.49,2.49,0,0,1-1.16-1.73.21.21,0,0,0-.24-.21,3.84,3.84,0,0,1-1.45-.37c-.3-.1-.51,0-.51.35a.3.3,0,0,1,0,.13,6.28,6.28,0,0,1-.48.78,1.38,1.38,0,0,1-.4.26Z"/><g id="football"><path class="cls-67" d="M667.37,577c.14.31.29.61.41.92a12.93,12.93,0,0,1,1,2.58,20.59,20.59,0,0,0,1.06,3.48c.33,1,.85,1.84,1.18,2.8a16.92,16.92,0,0,0,1.68,3.14c.69,1.15,1.27,2.36,1.85,3.57.16.32.34.39.62.25s.39,0,.58.19a7.34,7.34,0,0,0,1.45,1.22c.79.46,1.37.18,1.67-.67l.1-.28a1.52,1.52,0,0,1,1,.67c.33.48.6,1,.93,1.47a3.43,3.43,0,0,0,.73.83.83.83,0,0,0,1.38-.65,2.81,2.81,0,0,0-.81-2.29c-.26-.26-.56-.49-.8-.77a5.91,5.91,0,0,1-.58-.89c-.11-.17-.17-.38-.27-.56a1.08,1.08,0,0,0-1.68-.47,2.68,2.68,0,0,1-.28.1c0-.14,0-.24.06-.29a.89.89,0,0,0,.08-1.14,18.19,18.19,0,0,1-1-2.4,7.7,7.7,0,0,1,.6.54c.49.54.94,1.12,1.43,1.65.73.77,1.1.8,2,.22.45-.29.5-.28.69.23a3.94,3.94,0,0,0,1.33,1.7,34.56,34.56,0,0,1,3.26,2.91,5.55,5.55,0,0,1,.85,2,7.59,7.59,0,0,1,.17,1.28c0,.35.29.53.6.44a8.83,8.83,0,0,0,1.58-.59.59.59,0,0,0,.22-.89,4.25,4.25,0,0,1-.27-.46c-.15-.3-.26-.61-.41-.91a2.89,2.89,0,0,0-.56-.93,5,5,0,0,1-1.1-1.7c-.62-1.25-1.29-2.48-2-3.68a4.71,4.71,0,0,0-1.82-1.75.59.59,0,0,1-.33-.7.85.85,0,0,0-.2-.62c-.76-.86-1.55-1.7-2.34-2.53-.65-.68-1.31-1.34-2-2-.1-.11-.18-.24-.27-.35a7.76,7.76,0,0,0-.9-1.21,8.57,8.57,0,0,0-1.55-1.2,1.75,1.75,0,0,1-.88-1.81,5.6,5.6,0,0,0-.07-1.63,8.65,8.65,0,0,1-.08-1.71,7.45,7.45,0,0,1,2.81,1l.41-.43a6.41,6.41,0,0,1,1.13.87,4,4,0,0,0,2.16,1.26l.69.18a.94.94,0,0,1,.86.88,1.27,1.27,0,0,0,1.16.95c.13,0,.26-.23.47-.44.44-.08.62,0,.8.62a2.13,2.13,0,0,0,.27.42c.12-.12.28-.21.36-.36a1.31,1.31,0,0,0-.76-1.9l-.13,0a4,4,0,0,1-2.4-1.5,7.91,7.91,0,0,0-3-2.17,5.41,5.41,0,0,1-.63-.33l.11-.43c-1.37-.94-2.71-1.91-4.1-2.79a5.47,5.47,0,0,0-3.6-.62l-.71.1a3,3,0,0,1,0-1.73c.16-.35,0-.88-.14-1.32,0-.2-.24-.36-.3-.56-.23-.85-1-1.27-1.47-1.91-.5,0-1-.28-1.5,0a1.83,1.83,0,0,0-.91,1.14,8.42,8.42,0,0,0-.12,2.5,1.93,1.93,0,0,0,1.1,1.8.64.64,0,0,1,0,1.09c-.72.47-1.42,1-2.13,1.46a3.12,3.12,0,0,0-1.29,1.93c-.3,1.24-.56,2.5-.82,3.75,0,.11,0,.3,0,.32.42.19.32.54.28.85a4.89,4.89,0,0,0,.77,3.32c.68,1.11,1.25,2.3,1.85,3.46a2.06,2.06,0,0,1,.13.46l.57,2.19a.37.37,0,0,0,.07.12,1.78,1.78,0,0,0,2.37,0c-.51-.4-1.56-.48-1-1.59l.78,1a3,3,0,0,0-1.37-2.74,1.1,1.1,0,0,1-.67-.77c-.14-.52-.26-1-.36-1.57a7.59,7.59,0,0,0-1.08-3.15.6.6,0,0,1,.23-.85,1,1,0,0,0,.33-.49,10.34,10.34,0,0,0,.26-1.1Z"/><path class="cls-67" d="M672.64,601.09a2.59,2.59,0,1,0,1.76-3.17A2.58,2.58,0,0,0,672.64,601.09Z"/></g><g id="security"><path class="cls-68" d="M341.89,588.75c1.18-.18,2.3-.35,3.41-.55.14,0,.27-.28.34-.46a1.72,1.72,0,0,1,1.69-1.08,1.66,1.66,0,0,1,.61,3.15,1.61,1.61,0,0,1-2-.49.61.61,0,0,0-.71-.27c-1.11.19-2.23.35-3.35.54-.46.08-.68-.08-.74-.54-.17-1.12-.35-2.24-.53-3.35l-.09-.55-3.74,1.17c.16,1,.3,2,.5,3,0,.12.27.23.44.3a1.65,1.65,0,0,1,1.07,1.68,1.65,1.65,0,0,1-3.12.65,1.62,1.62,0,0,1,.51-2.12.49.49,0,0,0,.24-.57c-.17-.95-.31-1.9-.45-2.82l-4,0,.08.53q.5,3.08,1,6.15c.11.74.09.77-.62.88l-4.42.7c-.43,1.16-1,1.62-1.93,1.52a1.66,1.66,0,0,1-.39-3.19c.82-.32,1.52,0,2.16.87l4.37-.69c0-.14,0-.28,0-.42-.32-2-.65-4.07-1-6.11a.54.54,0,0,0-.51-.53,16,16,0,0,1-10.39-7.13.56.56,0,0,0-.68-.32c-1,.18-2,.33-3.1.5.19,1.19.37,2.34.57,3.48,0,.1.19.19.32.24a1.66,1.66,0,0,1-.18,3.24,1.68,1.68,0,0,1-1.8-1,1.62,1.62,0,0,1,.58-2,.5.5,0,0,0,.22-.58l-.54-3.4c-.08-.56,0-.68.56-.77l3.29-.53-1.4-3.71c-.71.11-1.46.21-2.21.37-.12,0-.22.28-.29.45a1.66,1.66,0,1,1-2.38-2,1.63,1.63,0,0,1,2.17.49.48.48,0,0,0,.57.23c.66-.12,1.33-.22,2-.32-.07-.72-.17-1.37-.21-2s0-1.29-.05-2l-3,.48c-.92.15-1.84.28-2.76.45-.46.08-.67-.06-.74-.53-.22-1.51-.47-3-.71-4.52-1.2-.5-1.64-1.07-1.51-2a1.66,1.66,0,0,1,3.2-.33,1.73,1.73,0,0,1-.9,2.14l.34,2.18.35,2.18,5.85-.92c.11-.58.19-1.16.33-1.74a16,16,0,0,1,7.77-10.39c.35-.2.47-.38.38-.77-.13-.59-.19-1.18-.29-1.8a2.16,2.16,0,0,0-.36,0c-1,.15-2,.3-3,.48a.65.65,0,0,0-.42.37,1.71,1.71,0,0,1-1.76,1.19,1.67,1.67,0,0,1-.5-3.19,1.7,1.7,0,0,1,2,.59.66.66,0,0,0,.51.21c1-.14,2-.31,3.06-.48s1.05-.16,1.22.91c.1.6.19,1.21.28,1.78l3.74-1.19a10.24,10.24,0,0,0-.22-1.29c0-.13-.27-.24-.43-.31a1.67,1.67,0,1,1,2-2.36,1.62,1.62,0,0,1-.45,2.1.55.55,0,0,0-.27.69c.08.35.11.71.17,1l4,0c0-.12,0-.29,0-.46-.25-1.55-.49-3.09-.73-4.63-.1-.59,0-.66.55-.75l4.52-.72c.36-1.11.93-1.58,1.83-1.51a1.66,1.66,0,0,1,1.51,1.36,1.68,1.68,0,0,1-1,1.8c-.85.36-1.56.1-2.25-.84l-4.35.68.83,5.27.44.1a15.94,15.94,0,0,1,11.22,8.68.55.55,0,0,0,.72.37c.8-.16,1.6-.26,2.46-.4-.19-1.2-.37-2.34-.57-3.48,0-.1-.19-.2-.31-.24a1.66,1.66,0,1,1,2-2.28,1.63,1.63,0,0,1-.58,2,.5.5,0,0,0-.22.58c.19,1.14.37,2.27.54,3.4.08.56,0,.68-.56.77-.79.14-1.58.25-2.36.38l-.46.07,1,3.78c.7-.11,1.44-.21,2.16-.36.13,0,.23-.28.3-.45a1.66,1.66,0,1,1,.72,2,1.08,1.08,0,0,1-.41-.35c-.2-.39-.48-.41-.86-.33-.62.13-1.24.21-1.81.3l-.19,4.07.66-.1c1.85-.3,3.71-.58,5.56-.89.46-.08.67.06.74.53.22,1.51.47,3,.71,4.56a1.81,1.81,0,0,1,1.4,1.06,1.66,1.66,0,0,1-2.94,1.52,1.62,1.62,0,0,1,.39-2.18.66.66,0,0,0,.29-.78c-.22-1.27-.41-2.55-.62-3.88l-1.31.21c-1.57.24-3.15.5-4.73.73a.54.54,0,0,0-.52.47,16,16,0,0,1-7.73,10c-.27.16-.38.3-.32.62C341.51,586.28,341.68,587.48,341.89,588.75Zm-5.73-3.23A15.29,15.29,0,1,0,318.72,573,15.24,15.24,0,0,0,336.16,585.52Zm-14.71-31.43a.84.84,0,0,0-1.66.27.84.84,0,1,0,1.66-.27Zm30.34,3.76a.84.84,0,0,0-1-.69.86.86,0,0,0-.69,1,.87.87,0,0,0,1,.71A.84.84,0,0,0,351.79,557.85ZM317,585.4a.84.84,0,1,0-.26-1.66.84.84,0,0,0,.26,1.66ZM348,588.19a.84.84,0,1,0-1.66.28.84.84,0,0,0,.94.69A.85.85,0,0,0,348,588.19Zm-17.42-37.67a.86.86,0,0,0-.73,1,.83.83,0,0,0,.93.7.8.8,0,0,0,.74-.92A.84.84,0,0,0,330.62,550.52ZM354.67,568a.87.87,0,0,0-1-.7.84.84,0,0,0-.67,1,.8.8,0,0,0,.94.67A.84.84,0,0,0,354.67,568Zm-39.85,6.38a.8.8,0,0,0-.95-.7.83.83,0,0,0-.7,1,.86.86,0,0,0,.94.7A.84.84,0,0,0,314.82,574.34Zm22.15,16a.8.8,0,0,0-.69,1,.83.83,0,0,0,.93.69.85.85,0,0,0,.73-1A.82.82,0,0,0,337,590.37Zm4.81-41.6a.85.85,0,0,0,.69-1,.84.84,0,0,0-1-.68.85.85,0,0,0-.68.95A.86.86,0,0,0,341.78,548.77Zm-30.37,14.68a.84.84,0,0,0-1.67.19.84.84,0,1,0,1.67-.19Zm45.7,14.72a.85.85,0,1,0,1,.7A.85.85,0,0,0,357.11,578.17ZM327,594.48a.84.84,0,0,0-1-.69.85.85,0,0,0-.67,1,.84.84,0,0,0,1.66-.31Z"/><path class="cls-69" d="M321.45,554.09a.84.84,0,1,1-1.66.27.84.84,0,0,1,1.66-.27Z"/><path class="cls-69" d="M351.79,557.85a.84.84,0,0,1-.7,1,.87.87,0,0,1-1-.71.86.86,0,0,1,.69-1A.84.84,0,0,1,351.79,557.85Z"/><path class="cls-69" d="M317,585.4a.84.84,0,0,1-.26-1.66.84.84,0,1,1,.26,1.66Z"/><path class="cls-69" d="M348,588.19a.85.85,0,0,1-.72,1,.84.84,0,0,1-.94-.69.84.84,0,1,1,1.66-.28Z"/><path class="cls-69" d="M330.62,550.52a.84.84,0,0,1,.94.75.8.8,0,0,1-.74.92.83.83,0,0,1-.93-.7A.86.86,0,0,1,330.62,550.52Z"/><path class="cls-69" d="M354.67,568a.84.84,0,0,1-.72,1,.8.8,0,0,1-.94-.67.84.84,0,0,1,.67-1A.87.87,0,0,1,354.67,568Z"/><path class="cls-69" d="M314.82,574.34a.84.84,0,0,1-.71,1,.86.86,0,0,1-.94-.7.83.83,0,0,1,.7-1A.8.8,0,0,1,314.82,574.34Z"/><path class="cls-69" d="M337,590.37a.82.82,0,0,1,1,.7.85.85,0,0,1-.73,1,.83.83,0,0,1-.93-.69A.8.8,0,0,1,337,590.37Z"/><path class="cls-69" d="M341.78,548.77a.86.86,0,0,1-1-.71.85.85,0,0,1,.68-.95.84.84,0,0,1,1,.68A.85.85,0,0,1,341.78,548.77Z"/><path class="cls-69" d="M311.41,563.45a.84.84,0,1,1-1-.73A.84.84,0,0,1,311.41,563.45Z"/><path class="cls-69" d="M357.11,578.17a.85.85,0,1,1-.68,1A.85.85,0,0,1,357.11,578.17Z"/><path class="cls-69" d="M327,594.48a.84.84,0,0,1-1.66.31.85.85,0,0,1,.67-1A.84.84,0,0,1,327,594.48Z"/><path class="cls-68" d="M326.81,568a6.65,6.65,0,0,1,1.35-6.14,6.27,6.27,0,0,1,4-2.19,6.34,6.34,0,0,1,5.15,1.49,6.75,6.75,0,0,1,2.33,4.81h.44a1.65,1.65,0,0,1,1.82,1.3,37.69,37.69,0,0,1,.74,5.87,8.4,8.4,0,0,1-7.16,8.12,8.5,8.5,0,0,1-9.34-5.5,25.68,25.68,0,0,1-.73-3.4c-.12-.57-.19-1.15-.28-1.72C324.89,569.05,325.24,568.47,326.81,568Zm6.59-.18-6.54,1c-.82.14-1.11.53-1,1.36.07.46.13.92.22,1.38a30.27,30.27,0,0,0,.83,3.94,7.72,7.72,0,0,0,14.94-3.13c-.12-1.52-.42-3-.64-4.54-.14-.93-.51-1.2-1.43-1.05Zm5.41-1.69a5.72,5.72,0,0,0-9.67-4.15,5.68,5.68,0,0,0-1.48,5.9l1.49-.24c0-.28-.07-.52-.12-.76a4.13,4.13,0,0,1,4.56-4.88,4.08,4.08,0,0,1,3.52,3.2c.09.38.13.77.19,1.16Zm-2.34.36a3.53,3.53,0,0,0-2.11-3.47,3.36,3.36,0,0,0-3.64.74,3.47,3.47,0,0,0-.7,3.75Z"/><path class="cls-68" d="M334.8,577.29c-.49,0-1-.07-1.5-.14a.55.55,0,0,1-.49-.69c0-.21,0-.43.07-.64a1.69,1.69,0,0,0-.59-1.84,2.32,2.32,0,0,1,0-3.31,2.45,2.45,0,0,1,3.34-.25,2.4,2.4,0,0,1,.49,3.29.79.79,0,0,0-.07.94c.19.37.32.76.5,1.14a.63.63,0,0,1-.31,1C335.78,577,335.31,577.1,334.8,577.29Zm1-1.14c-.27-.65-.48-1.19-.73-1.71a.66.66,0,0,1,.17-.91,1.55,1.55,0,0,0,.44-1.64,1.67,1.67,0,0,0-1.69-1.21,1.69,1.69,0,0,0-1.55,1.32,1.61,1.61,0,0,0,.93,1.84.63.63,0,0,1,.41.74c-.07.61-.11,1.21-.17,1.92Z"/></g><g id="programming"><path class="cls-66" d="M510.22,341a6,6,0,0,1,1.62.11,5.76,5.76,0,0,1-1.41.85q-16.76,4.31-33.52,8.55c-2.75.7-5.49,1.42-8.24,2.07a3.35,3.35,0,0,1-1.25-.21,4.19,4.19,0,0,1,1.06-.75c1.32-.39,2.68-.7,4-1a19.22,19.22,0,0,1-.83-2.12q-2-7.5-3.84-15c-.56-2.24.08-3.33,2.31-3.9l27.8-7.08c2.31-.58,3.35.06,3.95,2.4q1.85,7.22,3.67,14.44c.21.86.3,1.75.46,2.76C507.36,341.73,508.78,341.33,510.22,341Zm-26.53-7.71c1.63,2.49,3.25,5,4.94,7.43.22.34.79.44,1.21.64,0-.45.11-1-.1-1.35-1.61-2.55-3.27-5.06-5-7.56a1.64,1.64,0,0,0-1.08-.44c-.13,0-.31.44-.43.62Zm-1,2.61c.15-.28,0-.71,0-1.07-.36.11-.87.12-1.07.36-.65.78-1.18,1.66-1.76,2.5-.43.61-.29,1,.37,1.37.89.41,1.74.9,2.66,1.24.32.12.77-.13,1.16-.2-.2-.34-.34-.79-.64-1a19.56,19.56,0,0,0-2.1-1.1C481.8,337.29,482.3,336.64,482.68,335.93Zm8,1.43c-.15.28,0,.72,0,1.09.36-.1.73-.18,1.08-.31.09,0,.15-.18.22-.28,2.3-3,2-3.89-1.73-5-.26-.07-.62.17-.93.26.13.31.16.77.4.91.72.46,1.51.8,2.37,1.24A21,21,0,0,0,490.7,337.36Z"/><path class="cls-66" d="M470.84,312.66a9.45,9.45,0,1,1,11.46,6.73A9.51,9.51,0,0,1,470.84,312.66Zm6.8-4.14a4.06,4.06,0,0,0-4.35.87,1.91,1.91,0,0,0-.59,1.38,7,7,0,0,0,4.48,6.24,6.93,6.93,0,0,0,7.84-1.5,7.07,7.07,0,0,0,1.89-7.46,8,8,0,0,0-.55-1.11A8.44,8.44,0,0,1,477.64,308.52Z"/><path class="cls-66" d="M498.9,321.18a5.22,5.22,0,0,0-2.88-3.44,9.36,9.36,0,0,0-7.28-.48,1.62,1.62,0,0,0-.69.46c-3.22,3.52-7.06,4.46-11.59,3a3.84,3.84,0,0,0-2.12.22,8.22,8.22,0,0,0-5.21,4,4.76,4.76,0,0,0-.51,3.95Z"/></g><path id="puzzle" class="cls-70" d="M685.35,395c.13,2.37.27,4.74.39,7.11a1.32,1.32,0,0,1-1.38,1.56l-9.32.53a1.32,1.32,0,0,1-1.21-2.13,2.37,2.37,0,0,0-.31-3.16,5.86,5.86,0,0,0-2.58-1.47,10.46,10.46,0,0,0-4.94-.27,8.82,8.82,0,0,0-3.65,1.47c-1.48,1.06-2.21,2.68-.84,4.31a1.26,1.26,0,0,1-1,2c-2.9.17-5.8.32-8.71.48a1.31,1.31,0,0,1-1.56-1.41l-.6-10.8c0-.15,0-.31,0-.47a1.28,1.28,0,0,1,1.62-1.26,2.16,2.16,0,0,1,.85.57,3.93,3.93,0,0,0,6.68-1.26,5.63,5.63,0,0,0-.88-6.31,3.73,3.73,0,0,0-3.93-1.3,4.18,4.18,0,0,0-2.38,1.72,1.32,1.32,0,0,1-2.44-.78c-.2-3.71-.41-7.42-.61-11.13a1.55,1.55,0,0,1,0-.43,1.33,1.33,0,0,1,1.4-1.07l7.91-.44.44,0c-.06-.15-.09-.23-.13-.31a4.76,4.76,0,0,1-.23-3.42,6.68,6.68,0,0,1,3.34-3.87,10.1,10.1,0,0,1,5.77-1.26,8.71,8.71,0,0,1,5.7,2.32,5.1,5.1,0,0,1,1.59,5c0,.2-.11.4-.19.66l.45,0,7.76-.43a3.17,3.17,0,0,1,.69,0,1.36,1.36,0,0,1,1,1.4l.39,7.11,0,.42h.11l.23-.1a4.8,4.8,0,0,1,3.31-.3,6.59,6.59,0,0,1,4.07,3.41,10.14,10.14,0,0,1,1.24,5.86,8.56,8.56,0,0,1-2.75,6,4.87,4.87,0,0,1-3.93,1.29c-.46-.06-.91-.18-1.4-.28ZM650.19,373.2l.56,10.07.52-.45a5.41,5.41,0,0,1,7-.14,7.44,7.44,0,0,1,.53,10.93,5.45,5.45,0,0,1-7.26.31l-.22-.15.56,10,7.82-.44a8.74,8.74,0,0,1-.46-1.16,4.18,4.18,0,0,1,1.2-4.11,8.64,8.64,0,0,1,4.35-2.37,12.69,12.69,0,0,1,5.52-.16,7.89,7.89,0,0,1,4.42,2.22,4,4,0,0,1,.86,4.53,1.22,1.22,0,0,0-.05.17l8.5-.47-.6-10.84,1.29,1a4.22,4.22,0,0,0,2.1,1,3.58,3.58,0,0,0,3.25-1.38,7.13,7.13,0,0,0,1.65-4.27,8.89,8.89,0,0,0-.9-4.81,5.7,5.7,0,0,0-2.17-2.42,3.4,3.4,0,0,0-4,.36c-.55.48-1.07,1-1.67,1.59l0-.47q-.27-4.95-.55-9.9c0-.48,0-.48-.52-.45l-10.51.58-.47,0c.39-.52.73-1,1.06-1.42a3.49,3.49,0,0,0-.07-4.55,5.1,5.1,0,0,0-1.83-1.39,8.81,8.81,0,0,0-8.35.46,4.4,4.4,0,0,0-2.27,2.94,3.3,3.3,0,0,0,.68,2.79c.45.56,1,1.08,1.51,1.68Z"/><g id="acoustic"><path class="cls-71" d="M329.39,352.12a10.44,10.44,0,0,1,1.24.24c.68.21,1.35.47,2,.72a1.32,1.32,0,0,1,.83,1.78c-.08.22-.18.44-.27.65.71.4.88.65.73,1.06s-.48.48-1.19.33l-.12.32a7.25,7.25,0,0,1,.67.72.56.56,0,0,1,0,.42c-.14.39-.46.47-1.18.32a1.54,1.54,0,0,1-1,1.15c-.07,0-.13.12-.16.2-.91,2.5-1.81,5-2.72,7.51v0c.62.36,1.25.68,1.83,1.06a6.36,6.36,0,0,1,2.4,2.61,4.47,4.47,0,0,1-.72,4.88c-.38.39-.76.78-1.15,1.16a2.87,2.87,0,0,0-.76,3,31.28,31.28,0,0,1,.76,3.71,8.3,8.3,0,0,1-1.07,5.24,6.08,6.08,0,0,1-4.83,3,13.28,13.28,0,0,1-5.6-.63,23.6,23.6,0,0,1-5.19-2.18,10,10,0,0,1-3.45-3.2,6.13,6.13,0,0,1-.45-5.64,10.25,10.25,0,0,1,3.95-4.84c.47-.33.93-.68,1.39-1a2.66,2.66,0,0,0,1.08-2.49,19.23,19.23,0,0,1-.09-2.27,4.22,4.22,0,0,1,2.12-3.37,5.9,5.9,0,0,1,4.09-.72c.64.08,1.27.23,1.92.35.49-1.36,1-2.72,1.48-4.08.4-1.13.82-2.26,1.22-3.39a.49.49,0,0,0,0-.35,1.46,1.46,0,0,1-.09-1.45,5.26,5.26,0,0,1-.66-.69.59.59,0,0,1,0-.45c.14-.38.5-.48,1.2-.3l.13-.42c-.66-.37-.84-.64-.71-1s.45-.5,1.11-.37l.82-1.37Zm-5.6,15.9a8.09,8.09,0,0,0-3.11-.31,2.79,2.79,0,0,0-2.56,3.18,13.09,13.09,0,0,1,.1,1.66,4.12,4.12,0,0,1-1.56,3.42c-.55.45-1.12.89-1.7,1.3a8.54,8.54,0,0,0-3.27,4,4.31,4.31,0,0,0,.64,4.5,9.29,9.29,0,0,0,2.76,2.26,22.1,22.1,0,0,0,4.27,1.77,11.67,11.67,0,0,0,5,.63,4.34,4.34,0,0,0,3.87-2.9,7.46,7.46,0,0,0,.36-4.18c-.22-1.14-.53-2.26-.75-3.4a3.75,3.75,0,0,1,.65-3,20.46,20.46,0,0,1,1.65-1.84,2.49,2.49,0,0,0,.67-2.7c-.54-1.59-1.89-2.31-3.29-3l-.14.35c-.59,1.62-1.15,3.24-1.77,4.85a1.81,1.81,0,0,0,0,1.41,3.07,3.07,0,0,1-1.71,3.86,3.14,3.14,0,0,1-4.13-1.61,3.18,3.18,0,0,1,1.6-4.17.68.68,0,0,0,.32-.35c.42-1.13.83-2.28,1.25-3.41C323.21,369.54,323.5,368.79,323.79,368Zm6.55-14.19c-.16-.06-.31-.19-.43-.16a.53.53,0,0,0-.37.28c-.44,1.15-.85,2.31-1.27,3.47-.08.24,0,.47.22.56a.4.4,0,0,0,.56-.29l1.23-3.42A2.34,2.34,0,0,0,330.34,353.83Zm.26,4.85a2.55,2.55,0,0,0,.24-.38c.41-1.11.82-2.23,1.21-3.34.13-.35.05-.57-.22-.64s-.46.1-.55.36l-.55,1.53c-.23.62-.46,1.23-.66,1.85a.61.61,0,0,0,.1.49C330.24,358.64,330.44,358.64,330.6,358.68Z"/><path class="cls-71" d="M316.57,382.19a1.27,1.27,0,0,1,.39.05q3.33,1.18,6.64,2.4c.36.13.44.3.32.66s-.22.64-.34,1a.43.43,0,0,1-.62.29l-6.7-2.44a.4.4,0,0,1-.29-.58c.12-.35.24-.71.38-1A1.31,1.31,0,0,1,316.57,382.19Z"/></g><g id="ai"><path class="cls-71" d="M517.26,424.77l-1.46-.45c.16-1,.39-2,.47-3a15,15,0,0,0-3-10.23,29.63,29.63,0,0,1-3.53-5.46c-2.94-6.71.16-13.56,5-17.13a21.36,21.36,0,0,1,11-3.88,14.94,14.94,0,0,1,9.76,2.26,14.57,14.57,0,0,1,6.17,8.1,8.24,8.24,0,0,1,.31,3,3.14,3.14,0,0,0,1,2.57c.83.87,1.65,1.74,2.49,2.59,1.29,1.31,1.21,2.58-.26,3.71l-.57.46.39.53a1.41,1.41,0,0,1-.92,2.26c-1.27.23-2.55.41-3.86.62l-.25-1.59,3.38-.53c0-.11,0-.15,0-.18-.84-1.43-.8-1.63.53-2.63,1-.79,1-.79.16-1.72q-1.57-1.71-3.1-3.44a2.43,2.43,0,0,1-.6-1.86c.36-3.94-1.51-6.87-4.27-9.34a12.8,12.8,0,0,0-9.08-3.18,19.39,19.39,0,0,0-9.79,2.66c-4.25,2.52-6.8,6.2-7,11.24a11.61,11.61,0,0,0,2,6.76c.68,1.07,1.46,2.08,2.22,3.1A16.45,16.45,0,0,1,517.26,424.77Z"/><path class="cls-71" d="M529.56,417.42l-1.61.25-.09-.56q-1.73-10.92-3.45-21.83c-.06-.37-.16-.55-.58-.63a3.29,3.29,0,1,1,4-3.58,3.13,3.13,0,0,1-1.48,3.12.78.78,0,0,0-.38.94q1.72,10.78,3.43,21.59Zm-4.7-24.35a1.65,1.65,0,0,0,1.4-1.85,1.68,1.68,0,0,0-1.92-1.4,1.65,1.65,0,0,0-1.36,1.93A1.57,1.57,0,0,0,524.86,393.07Z"/><path class="cls-71" d="M526.22,423l-1.59.25-.54-3.4c-.51-3.23-1-6.47-1.55-9.69a1.16,1.16,0,0,0-.41-.65c-.7-.54-1.43-1-2.13-1.57a.5.5,0,0,0-.67,0,3.29,3.29,0,1,1-3-5.84,3.17,3.17,0,0,1,3.27.5,3.21,3.21,0,0,1,1.15,3.25.73.73,0,0,0,.35.9c.87.59,1.72,1.23,2.56,1.87a.92.92,0,0,1,.36.55q1.1,6.78,2.16,13.58C526.21,422.78,526.21,422.86,526.22,423Zm-7-18.09a1.58,1.58,0,0,0-1.84-1.39,1.63,1.63,0,0,0-1.43,1.88,1.67,1.67,0,0,0,1.91,1.39A1.64,1.64,0,0,0,519.18,404.89Z"/><path class="cls-71" d="M524.34,405.71l-1.6.25a18.88,18.88,0,0,1-.37-2.47,3.43,3.43,0,0,0-2-3.26,1,1,0,0,1-.24-.17,1.25,1.25,0,0,0-1.71-.24,2.91,2.91,0,0,1-3.45-.48,3.31,3.31,0,0,1,1.55-5.76,3.31,3.31,0,0,1,3.78,4.05.55.55,0,0,0,.26.71c.82.57,1.62,1.17,2.44,1.74a1.41,1.41,0,0,1,.65,1C523.83,402.63,524.09,404.14,524.34,405.71Zm-7.53-10.49a1.63,1.63,0,0,0-1.39,1.85,1.7,1.7,0,0,0,1.92,1.41,1.66,1.66,0,0,0,1.36-1.94A1.6,1.6,0,0,0,516.81,395.22Z"/><path class="cls-71" d="M530.8,404.69l-1.54.24-.1-.63c-.21-1.34-.41-2.68-.65-4a1.31,1.31,0,0,1,.29-1.13c.62-.78,1.18-1.61,1.78-2.41a.58.58,0,0,0,0-.77,3.29,3.29,0,1,1,5.83-3,3.29,3.29,0,0,1-3.81,4.46.6.6,0,0,0-.76.28c-.44.65-.89,1.29-1.38,1.9a1.26,1.26,0,0,0-.27,1.07c.23,1.28.41,2.56.61,3.83A1.2,1.2,0,0,1,530.8,404.69ZM535,394a1.59,1.59,0,0,0-1.88-1.34,1.63,1.63,0,0,0-1.39,1.91,1.7,1.7,0,0,0,2,1.35A1.67,1.67,0,0,0,535,394Z"/><path class="cls-71" d="M532,412.62c.6,1,1.19,2,1.75,3a1.17,1.17,0,0,0,1,.64c1.54.05,3.08.13,4.61.18a3.77,3.77,0,0,0,1-.16,1.24,1.24,0,0,0,1-1.67,2.91,2.91,0,0,1,.36-2.14c0-.09.13-.18.12-.26,0-.89.6-1,1.28-1.13a3.21,3.21,0,0,0,.35-.1,2.51,2.51,0,0,1-.24,2.11,2.12,2.12,0,0,0-.23,1.46,2.75,2.75,0,0,1-1.94,3.19,11.44,11.44,0,0,1-4.24.33c-.49,0-.79.11-.93.57-.31,1.09-.61,2.17-.93,3.31l-1.59-.12.92-4c-1.49-.06-2-1.35-2.71-2.48-.38-.63-.71-1.28-1.09-2Z"/><path class="cls-71" d="M531.76,410.38l-1.58.25c-.1-.63-.21-1.24-.28-1.85,0-.12.11-.28.2-.4.86-1.19,1.71-2.38,2.59-3.56a.61.61,0,0,0,0-.83,3.23,3.23,0,0,1,.13-3.64,3.35,3.35,0,0,1,3.42-1.28,3.29,3.29,0,0,1-1.51,6.41.62.62,0,0,0-.77.29c-.63.92-1.28,1.83-2,2.7a1.43,1.43,0,0,0-.33,1.4A3,3,0,0,1,531.76,410.38Zm5.38-8.38a1.59,1.59,0,0,0-1.87-1.34,1.65,1.65,0,1,0,.56,3.26A1.65,1.65,0,0,0,537.14,402Z"/></g><g id="math"><path class="cls-71" d="M604.2,616.08,610.52,636s0,0,0,.07a3,3,0,0,1-2.12,3.15q-9.27,2.93-18.54,5.89l-.43.13a2.86,2.86,0,0,1-3.48-1.86l-6.06-19a2.72,2.72,0,0,1,.8-3c.22-.2.48-.35.72-.53l19.69-6.26h.17a2.88,2.88,0,0,1,2.7,1.17Zm-19.46,17.16q1.1,3.4,2.17,6.81c.28.9.56,1.79.85,2.68a1,1,0,0,0,1.32.69l18.88-6a1.08,1.08,0,0,0,.75-1.09c0-.05,0-.15,0-.16-.22,0-.2-.25-.24-.39q-2.94-9.21-5.87-18.42c0-.09-.05-.18-.08-.27a1,1,0,0,0-1.34-.66l-18.7,6a1,1,0,0,0-.3.14,1.08,1.08,0,0,0-.4,1.32Q583.25,628.54,584.74,633.24Z"/><path class="cls-71" d="M604.2,616.08l-.25-.36a2.88,2.88,0,0,0-2.7-1.17h-.17l2.39-.76Z"/><path class="cls-71" d="M591,636.75c-.56-.29-1.1-.55-1.63-.84a.81.81,0,0,1-.47-.88.92.92,0,0,1,.72-.81,1.38,1.38,0,0,1,.66.12c.53.25,1,.53,1.57.81.28-.55.55-1.08.83-1.61a.85.85,0,0,1,1.18-.42.87.87,0,0,1,.45,1.23c-.23.46-.47.91-.7,1.36l-.17.26,1.08.55.55.29a.86.86,0,0,1,.4,1.21.92.92,0,0,1-1.24.4c-.47-.23-.94-.48-1.41-.72l-.2-.1c-.27.54-.53,1.07-.82,1.59a.93.93,0,0,1-1.64,0,.84.84,0,0,1,0-.84c.23-.46.48-.92.71-1.38A1.47,1.47,0,0,0,591,636.75Z"/><path class="cls-71" d="M587.87,626.16c-.19-.6-.37-1.16-.54-1.72a.86.86,0,0,1,.28-1,.9.9,0,0,1,1.44.45c.16.46.3.94.45,1.41l.09.28,1.09-.34.72-.23a.9.9,0,1,1,.53,1.72c-.51.18-1,.34-1.55.5l-.24.09.48,1.48a2.74,2.74,0,0,1,.09.39.87.87,0,0,1-.68,1,.85.85,0,0,1-1-.57c-.17-.48-.32-1-.47-1.45,0-.09-.06-.17-.09-.29l-1.67.53a2.22,2.22,0,0,1-.37.09.89.89,0,0,1-1-.67.86.86,0,0,1,.57-1.06C586.6,626.56,587.22,626.37,587.87,626.16Z"/><path class="cls-71" d="M597.6,621.58c.88-.28,1.75-.57,2.63-.84a.9.9,0,0,1,1.24.83.92.92,0,0,1-.75.92l-4.48,1.42c-.26.09-.52.18-.79.25a.91.91,0,0,1-1.18-.94.82.82,0,0,1,.48-.71l.32-.13Z"/><path class="cls-71" d="M598.45,624.28l2.65-.84a.9.9,0,1,1,.54,1.71l-5.3,1.69a.9.9,0,1,1-.54-1.72Z"/><path class="cls-71" d="M601.62,634.19c-.9.28-1.78.57-2.68.84a.89.89,0,0,1-1.2-.91.84.84,0,0,1,.62-.8q2.7-.87,5.4-1.71a.9.9,0,1,1,.53,1.72C603.4,633.63,602.51,633.9,601.62,634.19Z"/><path class="cls-71" d="M601.7,634.56a1.11,1.11,0,0,1,1.32.66,1,1,0,0,1-.65,1.28,1.08,1.08,0,0,1-1.31-.66A1,1,0,0,1,601.7,634.56Z"/><path class="cls-71" d="M600.31,630.16a1.09,1.09,0,0,1,1.31.66,1.14,1.14,0,0,1-.68,1.3,1.11,1.11,0,0,1-1.29-.69A1,1,0,0,1,600.31,630.16Z"/></g><g id="treasure"><path class="cls-72" d="M427.92,532.76l-1.51-2.64-3.05-5.32c-.6-1-1.19-2.11-1.81-3.15-.15-.26,0-.39.09-.57l6.27-8.21,1.45-1.9c.12.23.23.41.34.6l4.8,8.42c.41.72.82,1.44,1.25,2.15a.33.33,0,0,1,0,.43q-3,3.87-5.93,7.76l-1.49,2C428.19,532.43,428.07,532.57,427.92,532.76Z"/><path class="cls-72" d="M403.58,523.84c-.26-.79-.59-1.56-.77-2.35a13.41,13.41,0,0,1,.43-7.73,7.46,7.46,0,0,1,2.35-3.43,4.1,4.1,0,0,1,1.79-.67l7.88-1.56.84-.18c-2.93,4.35-3.14,8.92-1.27,13.73Z"/><path class="cls-72" d="M404.34,525c.57-.11,1.12-.23,1.68-.32a.42.42,0,0,1,.31.19q1.25,2.16,2.47,4.33c.46.81.92,1.62,1.4,2.43a.37.37,0,0,0,.31.15l6.87-1.34.15-.06-4.08-7.14c.68-.14,1.32-.27,2-.38a.29.29,0,0,1,.23.15c.67,1.15,1.34,2.32,2,3.48l2.58,4.5,1.83,3.2-1.48.29-9.46,1.78c-.19,0-.33.06-.46-.16-2.08-3.67-4.18-7.32-6.27-11Z"/><path class="cls-72" d="M420.68,520.2c-.17-.46-.34-.88-.47-1.3a13.39,13.39,0,0,1-.33-6.62,9.76,9.76,0,0,1,1.93-4.43,4.09,4.09,0,0,1,1.94-1.44,3,3,0,0,1,2.8.71,9.68,9.68,0,0,1,2.05,2.5c0,.06,0,.22-.06.29l-4.08,5.36-3.5,4.59Z"/><path class="cls-72" d="M420.86,507a12,12,0,0,0-2.53,6.7,13.73,13.73,0,0,0,1.2,7.06l-3.31.64a10.13,10.13,0,0,1-1.11-3.55,13.53,13.53,0,0,1,.77-6.87,7.49,7.49,0,0,1,1.94-2.9,3.25,3.25,0,0,1,1.61-.81C419.89,507.19,420.33,507.08,420.86,507Z"/><path class="cls-72" d="M416.88,522.56c1.11-.21,2.15-.42,3.21-.6.09,0,.25.11.31.22q1.32,2.28,2.62,4.56l3.57,6.26c.06.09.11.19.18.32l-3.21.6c-.09,0-.25-.13-.31-.24l-3.71-6.46L417.1,523Z"/><path class="cls-72" d="M403.61,510.38c-2.94,4.37-3.17,8.91-1.34,13.7l-2,.4a4.69,4.69,0,0,0-.54.11c-.34.13-.49,0-.62-.32a12.42,12.42,0,0,1-1-4.91,12.23,12.23,0,0,1,1.26-5.86,5.42,5.42,0,0,1,2.49-2.64A9.69,9.69,0,0,1,403.61,510.38Z"/><path class="cls-72" d="M409.45,536.55c-1,.19-1.93.38-2.86.54-.08,0-.23-.12-.28-.22-.69-1.18-1.36-2.36-2-3.55l-4-7.05-.25-.43,2.85-.54a.35.35,0,0,1,.26.16c.82,1.42,1.64,2.86,2.45,4.29s1.77,3.08,2.65,4.62Z"/><path class="cls-72" d="M407.57,524.37l3.55-.69c.33-.06.73-.24,1-.13s.36.54.53.83l2.91,5.09-.74.17-3.55.71c-.17,0-.29,0-.39-.15q-1.62-2.85-3.25-5.68Zm5.48,4c-.28-.48-.53-.94-.8-1.38a.66.66,0,0,1-.08-.58,1.15,1.15,0,0,0-.84-1.5,1.18,1.18,0,0,0-1.47.86,1.2,1.2,0,0,0,.88,1.49.7.7,0,0,1,.37.29c.29.47.55,1,.84,1.44Z"/></g><g id="hackathon"><path class="cls-72" d="M559.4,285.68l-3.55.56a2.07,2.07,0,0,1-2.53-1.8,20.26,20.26,0,0,0-.8-2.79,6.07,6.07,0,0,0-2.28-2.71,10,10,0,0,1-2.69-2.42,9.64,9.64,0,0,1-1.56-4.45c-.6-4.71,1-8.52,5-11.05a10.55,10.55,0,0,1,12.17.16,10.81,10.81,0,0,1,4.91,8.59,8.17,8.17,0,0,1-.71,4.6,9,9,0,0,1-1,1.53,7.67,7.67,0,0,0-1.63,6.74,1.94,1.94,0,0,1-.7,2,2.49,2.49,0,0,1-1.05.46C561.83,285.32,560.61,285.48,559.4,285.68Zm-.22-1.2,3.43-.54c.82-.14,1.06-.46.93-1.28a11.87,11.87,0,0,1,0-3.62,8.4,8.4,0,0,1,1.87-3.79,6.62,6.62,0,0,0,1.53-3.88,11.91,11.91,0,0,0-.54-4.1,9.92,9.92,0,0,0-15-5.09,10.08,10.08,0,0,0-3.62,12.11,6.94,6.94,0,0,0,2.86,3.44,7.36,7.36,0,0,1,3.05,3.5,27.53,27.53,0,0,1,.83,3c.16.65.47.92,1.14.81Z"/><path class="cls-72" d="M559.81,288.72l-3.71.59c-.49.07-.81-.1-.87-.48s.18-.66.67-.74l7.45-1.18c.49-.07.8.12.85.51s-.18.63-.65.71Z"/><path class="cls-72" d="M560.13,290.53l2.76-.44c.48-.07.81.19.79.61a.59.59,0,0,1-.55.6l-5.66.89a.6.6,0,0,1-.76-.49.62.62,0,0,1,.59-.72C558.24,290.82,559.19,290.68,560.13,290.53Z"/><path class="cls-72" d="M541.84,271.73c.42-.07.85-.15,1.28-.21s.69.12.76.47a.6.6,0,0,1-.55.75c-.86.15-1.73.29-2.59.41a.62.62,0,0,1-.77-.54.63.63,0,0,1,.59-.68C541,271.85,541.41,271.79,541.84,271.73Z"/><path class="cls-72" d="M544.83,264.83c.1.55-.31.95-.76.79-.88-.31-1.76-.65-2.63-1a.55.55,0,0,1-.33-.73.58.58,0,0,1,.74-.4c.9.32,1.79.67,2.67,1C544.67,264.57,544.77,264.76,544.83,264.83Z"/><path class="cls-72" d="M563.92,254.9a3.9,3.9,0,0,1-.11.53c-.3.78-.59,1.56-.9,2.34-.17.42-.49.59-.84.45a.63.63,0,0,1-.31-.88c.31-.82.62-1.63.94-2.45a.54.54,0,0,1,.66-.38A2,2,0,0,1,563.92,254.9Z"/><path class="cls-72" d="M570.05,259.64a1.81,1.81,0,0,1,.53.35.52.52,0,0,1-.08.73q-1.1.91-2.22,1.8a.57.57,0,0,1-.82-.13.59.59,0,0,1,.11-.86l2.1-1.7A2.59,2.59,0,0,1,570.05,259.64Z"/><path class="cls-72" d="M549.3,259.35a2,2,0,0,1-.4.57.54.54,0,0,1-.76-.14c-.36-.43-.71-.88-1.07-1.31s-.45-.54-.65-.82a.58.58,0,0,1,.07-.83.56.56,0,0,1,.83,0c.62.73,1.21,1.47,1.81,2.22a.73.73,0,0,1,.09.22Z"/><path class="cls-72" d="M555.61,255.23c.07.44.15.88.21,1.32a.61.61,0,1,1-1.21.19c-.14-.87-.28-1.75-.41-2.63a.6.6,0,0,1,.52-.73.6.6,0,0,1,.68.54C555.48,254.36,555.54,254.8,555.61,255.23Z"/><path class="cls-72" d="M571.89,267.82l1.28-.2c.44-.07.72.12.78.49a.6.6,0,0,1-.55.71c-.88.15-1.75.28-2.63.41a.61.61,0,1,1-.19-1.2c.43-.08.87-.14,1.31-.21Z"/><path class="cls-72" d="M556.23,263.32a7.07,7.07,0,0,1,7.72,5.82c.09.58-.34,1-.8.77a1,1,0,0,1-.4-.59,5.87,5.87,0,0,0-4-4.51,5.41,5.41,0,0,0-2.43-.27,3.13,3.13,0,0,1-.44,0,.56.56,0,0,1-.57-.51.57.57,0,0,1,.43-.68A4.08,4.08,0,0,1,556.23,263.32Z"/></g><g id="cricket"><path class="cls-72" d="M407.71,330.37c-.12,1-.25,2-.37,3.05s-.28,2.35-.43,3.52a1,1,0,0,1-.17.35l-2.7,4.19a1.57,1.57,0,0,1-1.64.84,1.55,1.55,0,0,1-1.26-1.46.79.79,0,0,0,0-.13h-.82l.22-11.2-1.41,0-.21,11.16H398l.22-11.17-1,0L397,340.63l-.86,0a2.23,2.23,0,0,1,0-.37c.06-3.49.13-7,.2-10.48a1.46,1.46,0,0,1,.11-.41c0-.19-.09-.42,0-.57a.68.68,0,0,1,.5-.23c1.29,0,2.58,0,3.87.07a.7.7,0,0,1,.5.26c.09.12,0,.35,0,.53a2.81,2.81,0,0,1,.09.49q-.09,5-.19,9.94v.5c.95-1.47,1.86-2.86,2.74-4.26a2.45,2.45,0,0,0,.17-.87c.21-1.72.37-3.45.64-5.16a2.61,2.61,0,0,0-.22-1.44c-.5-1.34-1-2.69-1.42-4.05a2.65,2.65,0,0,1,3.94-3.11l.16.08,2.44-2.55c-.14-.21-.14-.21-.53,0-.06-.06-.14-.11-.2-.18q-3.24-3.58-6.49-7.15a.59.59,0,0,1-.06-.84.93.93,0,0,1,1.59-.15l6.53,7.11.14.16-.4.32a4,4,0,0,1,1,0,.84.84,0,0,1,.55.81,1,1,0,0,1,.64,1.7l.88,1c.19.2.33.42.08.65s-.46.08-.64-.13l-.88-1-1.9,2c-.32.34-.64.69-1,1a.42.42,0,0,0-.13.53c.27.74.47,1.51.78,2.23a27.16,27.16,0,0,0,1.38,2.75,7.81,7.81,0,0,1,1.05,4.68c-.15,2.38-.11,4.76-.16,7.14a1.53,1.53,0,0,1-1.38,1.5,1.55,1.55,0,0,1-1.6-1.17,2.26,2.26,0,0,1,0-.64c0-2.74.1-5.48.14-8.22a1.5,1.5,0,0,0-.15-.68c-.33-.72-.69-1.43-1-2.15Z"/><path class="cls-73" d="M404.81,319.07a2.07,2.07,0,1,1-2-2.11A2.1,2.1,0,0,1,404.81,319.07Z"/><path class="cls-73" d="M415.3,310.93a1.38,1.38,0,0,1,1.82.26,1.36,1.36,0,0,1-.06,1.85Z"/><path class="cls-73" d="M415,311.24a6.69,6.69,0,0,1,1.69,2.06A1.33,1.33,0,0,1,415,313,1.34,1.34,0,0,1,415,311.24Z"/></g><g id="music"><path class="cls-71" d="M472.29,534.05a4.9,4.9,0,0,1,.69,1.29q1,5.79,1.85,11.6c.29,1.88-.52,3.32-2.06,3.7a2.81,2.81,0,0,1-3-.94,2.75,2.75,0,0,1-.41-3.11,2.82,2.82,0,0,1,2.67-1.68c.26,0,.53,0,.85.05l-.9-5.71c-2.83,1-5.62,2-8.39,3-.18.06-.31.59-.27.87.39,2.65.83,5.3,1.23,8a2.91,2.91,0,0,1-1.59,3.06,2.94,2.94,0,0,1-3.34-.56,2.92,2.92,0,0,1,2.1-5c.24,0,.47,0,.82.07,0-.37-.06-.69-.11-1q-.66-4.15-1.31-8.3c-.19-1.2-.12-1.29,1-1.7l9.15-3.28a1.14,1.14,0,0,0,.28-.21Zm-.8,1.89-8.79,3.16.27,1.7,8.79-3.15-.14-.86Zm1.84,11.67a1.41,1.41,0,0,0-1.58-1.14,1.38,1.38,0,0,0-1.09,1.6,1.32,1.32,0,0,0,1.52,1.08A1.35,1.35,0,0,0,473.33,547.61ZM463,551.29a1.29,1.29,0,0,0-1.57-1.09,1.39,1.39,0,0,0-1.1,1.52,1.48,1.48,0,0,0,1.57,1.17A1.4,1.4,0,0,0,463,551.29Z"/><path class="cls-71" d="M475,564.64c-1.94-2.37-2-3.83-.18-6.29,2.37-3.27,4.75-6.53,7.1-9.82a1.53,1.53,0,0,0,.25-1.11,6.88,6.88,0,0,1,13.28-3.56,6.84,6.84,0,0,1-4.12,8.32,2.39,2.39,0,0,1-1,.27c-1.32-.05-2,.72-2.7,1.71-2.17,3.09-4.43,6.1-6.62,9.17a4.27,4.27,0,0,1-4,2,.77.77,0,0,0-.43,0c-1,.58-2.1,1.14-3.09,1.8a3.18,3.18,0,0,0-1.39,2.7,4.87,4.87,0,0,1-3.36,4.74,6.79,6.79,0,0,0-1.69,1.16c-.37.31-.72.59-1.17.22a.75.75,0,0,1,0-1.25,10.86,10.86,0,0,1,2.27-1.55,3.49,3.49,0,0,0,2.38-3.18,5,5,0,0,1,3.64-4.93,4.37,4.37,0,0,0,.49-.23C474.76,564.81,474.85,564.74,475,564.64Zm10-22.45c.49.28.9.47,1.27.73,1.33.94,2.66,1.87,3.93,2.89.25.2.22.76.32,1.16a4.88,4.88,0,0,1-1.2.06c-.27,0-.5-.32-.74-.5l-4.36-3.22a5.29,5.29,0,1,0,8.2-1.48C490.34,540,487.31,540,485,542.19Zm-4.46,10.94c-1.58,2.2-3.2,4.43-4.8,6.68a2.39,2.39,0,1,0,3.84,2.78c1.29-1.74,2.54-3.51,3.83-5.25.36-.48.79-.89,1.15-1.29Zm1.17-1.39,3.72,2.66,1.31-1.85-3.72-2.7Z"/><path class="cls-71" d="M492.83,547.77c-.39.4-.65.88-.88.86a1.17,1.17,0,0,1-.82-.68c-.06-.18.35-.71.61-.76S492.34,547.49,492.83,547.77Z"/></g><g id="ones"><text class="cls-74" transform="translate(426.55 285.59) rotate(-28.57)">I</text><text class="cls-74" transform="translate(374.13 665.98) rotate(-28.57)">I</text><text class="cls-74" transform="matrix(0.95, 0.31, -0.31, 0.95, 565.37, 585.37)">I</text><text class="cls-74" transform="matrix(0.93, 0.37, -0.37, 0.93, 626.81, 312.55)">I</text><text class="cls-75" transform="matrix(0.98, 0.18, -0.18, 0.98, 463.36, 401.57)">I</text><text class="cls-75" transform="matrix(0.98, 0.18, -0.18, 0.98, 630.25, 662.53)">I</text><text class="cls-75" transform="translate(534.34 705.8) rotate(-32.19)">I</text><text class="cls-75" transform="matrix(0.98, 0.18, -0.18, 0.98, 505.6, 265.35)">I</text><text class="cls-75" transform="translate(377.39 380.96) rotate(23.29)">I</text><text class="cls-76" transform="matrix(0.85, -0.53, 0.53, 0.85, 340.88, 333.87)">I</text><text class="cls-77" transform="translate(588.31 449.03) rotate(-34.99)">I</text><text class="cls-77" transform="matrix(0.89, 0.46, -0.46, 0.89, 435.97, 696.6)">I</text></g><g id="zeros"><text class="cls-74" transform="matrix(0.89, -0.46, 0.46, 0.89, 422.11, 389.42)">O</text><text class="cls-74" transform="matrix(0.89, -0.46, 0.46, 0.89, 395.32, 587.43)">O</text><text class="cls-74" transform="matrix(0.89, -0.46, 0.46, 0.89, 570.72, 690.99)">O</text><text class="cls-78" transform="translate(564.43 342.27) rotate(15.33)">O</text><text class="cls-78" transform="translate(406.59 634.63) rotate(15.33)">O</text><text class="cls-76" transform="translate(368.41 309.9) rotate(-65.36)">O</text><text class="cls-76" transform="translate(534.51 571.1) rotate(-65.36)">O</text><text class="cls-76" transform="translate(494.45 707.72) rotate(-65.36)">O</text><text class="cls-76" transform="matrix(-0.52, -0.86, 0.86, -0.52, 625.31, 583.28)">O</text><text class="cls-76" transform="matrix(-0.52, -0.86, 0.86, -0.52, 670.41, 631.29)">O</text><text class="cls-76" transform="translate(466.13 268.4) rotate(-17.94)">O</text><text class="cls-76" transform="matrix(0.75, -0.66, 0.66, 0.75, 598.47, 391.97)">O</text><text class="cls-76" transform="translate(629.81 451.46) rotate(14.37)">O</text></g><text class="cls-79" transform="matrix(0.71, -0.7, 0.7, 0.71, 292.77, 514.43)">B</text><text class="cls-79" transform="translate(309.66 497.95) rotate(-37.22)">U</text><text class="cls-79" transform="translate(323.15 487.12) rotate(-28.41)">E</text><text class="cls-79" transform="translate(346.05 474.89) rotate(-18.05)">T</text><text class="cls-79" transform="matrix(0.98, -0.18, 0.18, 0.98, 365.15, 468.89)"> </text><text class="cls-80" transform="translate(376.36 466.11) rotate(-1.33)">C</text><text class="cls-80" transform="translate(402.99 465.12) rotate(11.36)">S</text><text class="cls-80" transform="translate(434.65 471.37) rotate(22.92)">E</text><text class="cls-80" transform="translate(466.84 485.62) rotate(29.72)"> </text><text class="cls-80" transform="translate(481.23 494.33) rotate(32.69)">F</text><text class="cls-80" transform="translate(510.3 513.03) rotate(23.02)">E</text><text class="cls-80" transform="translate(547.04 528.23) rotate(11.71)">S</text><text class="cls-80" transform="translate(583.92 535.23) rotate(-0.29)">T</text><text class="cls-81" transform="matrix(0.99, -0.16, 0.16, 0.99, 614.5, 534.29)"> </text><text class="cls-79" transform="translate(630.28 532.12) rotate(-18.41)">2</text><text class="cls-79" transform="matrix(0.86, -0.5, 0.5, 0.86, 660.54, 521.55)">0</text><text class="cls-79" transform="translate(683.44 508.25) rotate(-38.89)">2</text><text class="cls-79" transform="translate(707.26 488.69) rotate(-47.18)">0</text></svg>